# Blender 4.5.4 LTS
# www.blender.org
mtllib G_L1.mtl
o G_L1
v -0.009360 -0.001552 -0.002504
v -0.009360 -0.001552 0.002496
v -0.009832 -0.001341 0.002496
v -0.009832 -0.001341 -0.002504
v -0.010136 -0.000922 0.002496
v -0.010136 -0.000922 -0.002504
v -0.010190 -0.000407 0.002496
v -0.010190 -0.000407 -0.002504
v -0.008417 0.004373 0.002496
v -0.008417 0.004373 -0.002504
v -0.008931 0.004320 -0.002504
v -0.008931 0.004320 0.002496
v -0.009350 0.004016 -0.002504
v -0.009350 0.004016 0.002496
v -0.009561 0.003543 -0.002504
v -0.009561 0.003543 0.002496
v -0.009561 0.003543 0.002496
v -0.009561 0.003543 -0.002504
v -0.010190 -0.000407 -0.002504
v -0.010190 -0.000407 0.002496
v -0.022714 0.003611 0.002496
v -0.022423 0.004503 0.002496
v -0.021143 0.003699 0.002496
v -0.022715 0.002672 0.002496
v -0.021248 0.003040 0.002496
v -0.021057 0.002400 0.002496
v -0.021871 0.005262 0.002496
v -0.020763 0.004247 0.002496
v -0.021111 0.005814 0.002496
v -0.020182 0.004576 0.002496
v -0.009561 0.003543 0.002496
v -0.010190 -0.000407 0.002496
v -0.018360 0.002580 0.002496
v -0.009350 0.004016 0.002496
v -0.018446 0.003879 0.002496
v -0.018896 0.004372 0.002496
v -0.018255 0.003239 0.002496
v -0.020219 0.006103 0.002496
v -0.019280 0.006102 0.002496
v -0.019516 0.004621 0.002496
v -0.010136 -0.000922 0.002496
v -0.020223 0.000177 0.002496
v -0.019321 0.001703 0.002496
v -0.021874 0.001020 0.002496
v -0.022425 0.001779 0.002496
v -0.018740 0.002032 0.002496
v -0.021115 0.000467 0.002496
v -0.020607 0.001907 0.002496
v -0.019987 0.001658 0.002496
v -0.009832 -0.001341 0.002496
v -0.008417 0.004373 0.002496
v -0.008931 0.004320 0.002496
v -0.009360 -0.001552 0.002496
v -0.022714 0.003611 -0.002504
v -0.021248 0.003040 -0.002504
v -0.021143 0.003699 -0.002504
v -0.022423 0.004503 -0.002504
v -0.020763 0.004247 -0.002504
v -0.009561 0.003543 -0.002504
v -0.018255 0.003239 -0.002504
v -0.018360 0.002580 -0.002504
v -0.021111 0.005814 -0.002504
v -0.021871 0.005262 -0.002504
v -0.022715 0.002672 -0.002504
v -0.022425 0.001779 -0.002504
v -0.021057 0.002400 -0.002504
v -0.010136 -0.000922 -0.002504
v -0.018740 0.002032 -0.002504
v -0.019321 0.001703 -0.002504
v -0.010190 -0.000407 -0.002504
v -0.020182 0.004576 -0.002504
v -0.020219 0.006103 -0.002504
v -0.019516 0.004621 -0.002504
v -0.021874 0.001020 -0.002504
v -0.020607 0.001907 -0.002504
v -0.009350 0.004016 -0.002504
v -0.021115 0.000467 -0.002504
v -0.020223 0.000177 -0.002504
v -0.019987 0.001658 -0.002504
v -0.018446 0.003879 -0.002504
v -0.019280 0.006102 -0.002504
v -0.018896 0.004372 -0.002504
v -0.008931 0.004320 -0.002504
v -0.009832 -0.001341 -0.002504
v -0.009360 -0.001552 -0.002504
v -0.008417 0.004373 -0.002504
v -0.001508 -0.003209 -0.010004
v -0.000969 -0.003777 -0.010004
v -0.000969 -0.003777 0.009996
v -0.002175 -0.002799 -0.010004
v -0.001508 -0.003209 0.009996
v -0.002926 -0.002576 -0.010004
v -0.002175 -0.002799 0.009996
v -0.002926 -0.002576 0.009996
v 0.001222 0.002736 -0.010004
v 0.000855 0.001229 -0.010004
v 0.000236 0.001478 -0.010004
v 0.000472 0.002959 -0.010004
v -0.018446 0.003879 -0.010004
v -0.018896 0.004372 -0.010004
v -0.018360 0.002580 -0.010004
v -0.018255 0.003239 -0.010004
v 0.001890 0.002326 -0.010004
v -0.022714 0.003611 -0.010004
v -0.022423 0.004503 -0.010004
v -0.021143 0.003699 -0.010004
v -0.019321 0.001703 -0.010004
v -0.018740 0.002032 -0.010004
v -0.022715 0.002672 -0.010004
v -0.021248 0.003040 -0.010004
v -0.021057 0.002400 -0.010004
v 0.002428 0.001758 -0.010004
v 0.001305 0.000736 -0.010004
v -0.021874 0.001020 -0.010004
v -0.022425 0.001779 -0.010004
v -0.021871 0.005262 -0.010004
v -0.020763 0.004247 -0.010004
v -0.021111 0.005814 -0.010004
v -0.020182 0.004576 -0.010004
v 0.023723 -0.030900 -0.010004
v 0.001392 -0.000563 -0.010004
v 0.001497 0.000096 -0.010004
v -0.001497 -0.000104 -0.010004
v -0.020223 0.000177 -0.010004
v -0.021115 0.000467 -0.010004
v -0.020607 0.001907 -0.010004
v -0.019987 0.001658 -0.010004
v 0.001011 -0.001112 -0.010004
v 0.023057 -0.030945 -0.010004
v 0.022476 -0.031274 -0.010004
v -0.001305 -0.000743 -0.010004
v -0.002926 -0.002576 -0.010004
v -0.020219 0.006103 -0.010004
v -0.019280 0.006102 -0.010004
v -0.019516 0.004621 -0.010004
v -0.001508 -0.003209 -0.010004
v -0.002175 -0.002799 -0.010004
v -0.000855 -0.001236 -0.010004
v -0.001392 0.000556 -0.010004
v 0.026341 -0.031457 -0.010004
v 0.026488 -0.032384 -0.010004
v 0.024984 -0.032282 -0.010004
v 0.021059 -0.034143 -0.010004
v -0.000969 -0.003777 -0.010004
v 0.021991 -0.032482 -0.010004
v 0.000430 -0.001441 -0.010004
v -0.000236 -0.001485 -0.010004
v -0.001011 0.001104 -0.010004
v -0.000430 0.001433 -0.010004
v 0.024793 -0.031642 -0.010004
v 0.025916 -0.030620 -0.010004
v 0.026340 -0.033311 -0.010004
v 0.024879 -0.032941 -0.010004
v 0.025913 -0.034147 -0.010004
v 0.024499 -0.033490 -0.010004
v 0.022558 -0.035234 -0.010004
v 0.021722 -0.034807 -0.010004
v 0.022633 -0.033614 -0.010004
v 0.022182 -0.033121 -0.010004
v 0.022096 -0.031822 -0.010004
v 0.024343 -0.031149 -0.010004
v 0.023485 -0.035382 -0.010004
v 0.023252 -0.033863 -0.010004
v 0.023918 -0.033819 -0.010004
v 0.025249 -0.034810 -0.010004
v 0.024413 -0.035236 -0.010004
v -0.019321 0.001703 0.009996
v -0.020223 0.000177 0.009996
v -0.002926 -0.002576 0.009996
v -0.000236 -0.001485 0.009996
v -0.000969 -0.003777 0.009996
v 0.000430 -0.001441 0.009996
v -0.019987 0.001658 0.009996
v -0.001508 -0.003209 0.009996
v -0.002175 -0.002799 0.009996
v -0.021874 0.001020 0.009996
v -0.020607 0.001907 0.009996
v -0.021057 0.002400 0.009996
v -0.021115 0.000467 0.009996
v -0.022425 0.001779 0.009996
v 0.022476 -0.031274 0.009996
v 0.001011 -0.001112 0.009996
v -0.001497 -0.000104 0.009996
v -0.001392 0.000556 0.009996
v -0.018255 0.003239 0.009996
v -0.021111 0.005814 0.009996
v -0.021871 0.005262 0.009996
v -0.020763 0.004247 0.009996
v 0.023057 -0.030945 0.009996
v 0.023723 -0.030900 0.009996
v 0.002428 0.001758 0.009996
v 0.001497 0.000096 0.009996
v -0.018360 0.002580 0.009996
v -0.020182 0.004576 0.009996
v -0.020219 0.006103 0.009996
v -0.022423 0.004503 0.009996
v -0.021143 0.003699 0.009996
v -0.022714 0.003611 0.009996
v -0.021248 0.003040 0.009996
v 0.001392 -0.000563 0.009996
v -0.001305 -0.000743 0.009996
v -0.018740 0.002032 0.009996
v -0.001011 0.001104 0.009996
v -0.019280 0.006102 0.009996
v -0.018896 0.004372 0.009996
v -0.000430 0.001433 0.009996
v -0.018446 0.003879 0.009996
v -0.022715 0.002672 0.009996
v 0.001305 0.000736 0.009996
v 0.001890 0.002326 0.009996
v 0.000855 0.001229 0.009996
v 0.001222 0.002736 0.009996
v 0.000472 0.002959 0.009996
v 0.000236 0.001478 0.009996
v -0.019516 0.004621 0.009996
v -0.000855 -0.001236 0.009996
v 0.025913 -0.034147 0.009996
v 0.026340 -0.033311 0.009996
v 0.024879 -0.032941 0.009996
v 0.023485 -0.035382 0.009996
v 0.024413 -0.035236 0.009996
v 0.023918 -0.033819 0.009996
v 0.024499 -0.033490 0.009996
v 0.025249 -0.034810 0.009996
v 0.026488 -0.032384 0.009996
v 0.024984 -0.032282 0.009996
v 0.026341 -0.031457 0.009996
v 0.024793 -0.031642 0.009996
v 0.021991 -0.032482 0.009996
v 0.022096 -0.031822 0.009996
v 0.021059 -0.034143 0.009996
v 0.022182 -0.033121 0.009996
v 0.023252 -0.033863 0.009996
v 0.022558 -0.035234 0.009996
v 0.021722 -0.034807 0.009996
v 0.022633 -0.033614 0.009996
v 0.025916 -0.030620 0.009996
v 0.024343 -0.031149 0.009996
v -0.019321 0.001703 0.002496
v -0.019987 0.001658 0.002496
v -0.019987 0.001658 0.009996
v -0.018740 0.002032 0.002496
v -0.019321 0.001703 0.009996
v -0.018360 0.002580 0.002496
v -0.018740 0.002032 0.009996
v -0.018255 0.003239 0.002496
v -0.018360 0.002580 0.009996
v -0.018446 0.003879 0.002496
v -0.018255 0.003239 0.009996
v -0.018896 0.004372 0.002496
v -0.018446 0.003879 0.009996
v -0.019516 0.004621 0.002496
v -0.018896 0.004372 0.009996
v -0.020182 0.004576 0.002496
v -0.019516 0.004621 0.009996
v -0.020763 0.004247 0.002496
v -0.020182 0.004576 0.009996
v -0.021143 0.003699 0.002496
v -0.020763 0.004247 0.009996
v -0.021248 0.003040 0.002496
v -0.021143 0.003699 0.009996
v -0.021057 0.002400 0.002496
v -0.021248 0.003040 0.009996
v -0.020607 0.001907 0.002496
v -0.021057 0.002400 0.009996
v -0.020607 0.001907 0.009996
v 0.025916 -0.030620 -0.010004
v 0.025916 -0.030620 0.009996
v 0.026341 -0.031457 0.009996
v 0.026341 -0.031457 -0.010004
v 0.026488 -0.032384 0.009996
v 0.026488 -0.032384 -0.010004
v 0.026340 -0.033311 0.009996
v 0.026340 -0.033311 -0.010004
v 0.025913 -0.034147 0.009996
v 0.025913 -0.034147 -0.010004
v 0.025249 -0.034810 0.009996
v 0.025249 -0.034810 -0.010004
v 0.024413 -0.035236 0.009996
v 0.024413 -0.035236 -0.010004
v 0.023485 -0.035382 0.009996
v 0.023485 -0.035382 -0.010004
v 0.022558 -0.035234 0.009996
v 0.022558 -0.035234 -0.010004
v 0.021722 -0.034807 0.009996
v 0.021722 -0.034807 -0.010004
v 0.021059 -0.034143 0.009996
v 0.021059 -0.034143 -0.010004
v 0.023918 -0.033819 -0.010004
v 0.023252 -0.033863 -0.010004
v 0.023252 -0.033863 0.009996
v 0.024499 -0.033490 -0.010004
v 0.023918 -0.033819 0.009996
v 0.024879 -0.032941 -0.010004
v 0.024499 -0.033490 0.009996
v 0.024984 -0.032282 -0.010004
v 0.024879 -0.032941 0.009996
v 0.024793 -0.031642 -0.010004
v 0.024984 -0.032282 0.009996
v 0.024343 -0.031149 -0.010004
v 0.024793 -0.031642 0.009996
v 0.023723 -0.030900 -0.010004
v 0.024343 -0.031149 0.009996
v 0.023057 -0.030945 -0.010004
v 0.023723 -0.030900 0.009996
v 0.022476 -0.031274 -0.010004
v 0.023057 -0.030945 0.009996
v 0.022096 -0.031822 -0.010004
v 0.022476 -0.031274 0.009996
v 0.021991 -0.032482 -0.010004
v 0.022096 -0.031822 0.009996
v 0.022182 -0.033121 -0.010004
v 0.021991 -0.032482 0.009996
v 0.022633 -0.033614 -0.010004
v 0.022182 -0.033121 0.009996
v 0.022633 -0.033614 0.009996
v 0.000430 -0.001441 -0.010004
v -0.000236 -0.001485 -0.010004
v -0.000236 -0.001485 0.009996
v 0.001011 -0.001112 -0.010004
v 0.000430 -0.001441 0.009996
v 0.001392 -0.000563 -0.010004
v 0.001011 -0.001112 0.009996
v 0.001497 0.000096 -0.010004
v 0.001392 -0.000563 0.009996
v 0.001305 0.000736 -0.010004
v 0.001497 0.000096 0.009996
v 0.000855 0.001229 -0.010004
v 0.001305 0.000736 0.009996
v 0.000236 0.001478 -0.010004
v 0.000855 0.001229 0.009996
v -0.000430 0.001433 -0.010004
v 0.000236 0.001478 0.009996
v -0.001011 0.001104 -0.010004
v -0.000430 0.001433 0.009996
v -0.001392 0.000556 -0.010004
v -0.001011 0.001104 0.009996
v -0.001497 -0.000104 -0.010004
v -0.001392 0.000556 0.009996
v -0.001305 -0.000743 -0.010004
v -0.001497 -0.000104 0.009996
v -0.000855 -0.001236 -0.010004
v -0.001305 -0.000743 0.009996
v -0.000855 -0.001236 0.009996
v 0.021059 -0.034143 0.009996
v -0.000969 -0.003777 0.009996
v -0.000969 -0.003777 -0.010004
v 0.021059 -0.034143 -0.010004
v -0.002926 -0.002576 0.009996
v -0.009360 -0.001552 0.002496
v -0.009360 -0.001552 -0.002504
v -0.020223 0.000177 0.009996
v -0.020223 0.000177 0.002496
v -0.020223 0.000177 -0.010004
v -0.002926 -0.002576 -0.010004
v -0.020223 0.000177 -0.002504
v -0.020223 0.000177 0.002496
v -0.020223 0.000177 0.009996
v -0.021115 0.000467 0.009996
v -0.021115 0.000467 0.002496
v -0.021874 0.001020 0.009996
v -0.021874 0.001020 0.002496
v -0.022425 0.001779 0.009996
v -0.022425 0.001779 0.002496
v -0.022715 0.002672 0.009996
v -0.022715 0.002672 0.002496
v -0.022714 0.003611 0.009996
v -0.022714 0.003611 0.002496
v -0.022423 0.004503 0.009996
v -0.022423 0.004503 0.002496
v -0.021871 0.005262 0.009996
v -0.021871 0.005262 0.002496
v -0.021111 0.005814 0.009996
v -0.021111 0.005814 0.002496
v -0.020219 0.006103 0.009996
v -0.020219 0.006103 0.002496
v -0.019280 0.006102 0.009996
v -0.019280 0.006102 0.002496
v -0.019280 0.006102 0.009996
v 0.000472 0.002959 0.009996
v -0.008417 0.004373 0.002496
v 0.000472 0.002959 -0.010004
v -0.008417 0.004373 -0.002504
v -0.019280 0.006102 -0.010004
v -0.019280 0.006102 -0.002504
v -0.019280 0.006102 0.002496
v 0.000472 0.002959 -0.010004
v 0.000472 0.002959 0.009996
v 0.001222 0.002736 0.009996
v 0.001222 0.002736 -0.010004
v 0.001890 0.002326 0.009996
v 0.001890 0.002326 -0.010004
v 0.002428 0.001758 0.009996
v 0.002428 0.001758 -0.010004
v 0.025916 -0.030620 0.009996
v 0.025916 -0.030620 -0.010004
v 0.002428 0.001758 -0.010004
v 0.002428 0.001758 0.009996
v -0.019321 0.001703 -0.010004
v -0.019987 0.001658 -0.010004
v -0.019987 0.001658 -0.002504
v -0.018740 0.002032 -0.010004
v -0.019321 0.001703 -0.002504
v -0.018360 0.002580 -0.010004
v -0.018740 0.002032 -0.002504
v -0.018255 0.003239 -0.010004
v -0.018360 0.002580 -0.002504
v -0.018446 0.003879 -0.010004
v -0.018255 0.003239 -0.002504
v -0.018896 0.004372 -0.010004
v -0.018446 0.003879 -0.002504
v -0.019516 0.004621 -0.010004
v -0.018896 0.004372 -0.002504
v -0.020182 0.004576 -0.010004
v -0.019516 0.004621 -0.002504
v -0.020763 0.004247 -0.010004
v -0.020182 0.004576 -0.002504
v -0.021143 0.003699 -0.010004
v -0.020763 0.004247 -0.002504
v -0.021248 0.003040 -0.010004
v -0.021143 0.003699 -0.002504
v -0.021057 0.002400 -0.010004
v -0.021248 0.003040 -0.002504
v -0.020607 0.001907 -0.010004
v -0.021057 0.002400 -0.002504
v -0.020607 0.001907 -0.002504
v -0.020223 0.000177 -0.010004
v -0.020223 0.000177 -0.002504
v -0.021115 0.000467 -0.002504
v -0.021115 0.000467 -0.010004
v -0.021874 0.001020 -0.002504
v -0.021874 0.001020 -0.010004
v -0.022425 0.001779 -0.002504
v -0.022425 0.001779 -0.010004
v -0.022715 0.002672 -0.002504
v -0.022715 0.002672 -0.010004
v -0.022714 0.003611 -0.002504
v -0.022714 0.003611 -0.010004
v -0.022423 0.004503 -0.002504
v -0.022423 0.004503 -0.010004
v -0.021871 0.005262 -0.002504
v -0.021871 0.005262 -0.010004
v -0.021111 0.005814 -0.002504
v -0.021111 0.005814 -0.010004
v -0.020219 0.006103 -0.002504
v -0.020219 0.006103 -0.010004
v -0.019280 0.006102 -0.002504
v -0.019280 0.006102 -0.010004
vn -0.9878 -0.1557 -0.0000
vn -0.9876 0.1572 -0.0000
vn -0.8913 -0.4533 -0.0000
vn -0.7076 -0.7066 -0.0000
vn -0.4546 -0.8907 -0.0000
vn -0.1572 -0.9876 -0.0000
vn -0.8907 0.4546 -0.0000
vn -0.7066 0.7076 -0.0000
vn -0.4533 0.8913 -0.0000
vn -0.1557 0.9878 -0.0000
vn 0.1571 0.9876 -0.0000
vn -0.2869 0.9580 -0.0000
vn 0.1572 0.9876 -0.0000
vn 0.5701 0.8216 -0.0000
vn 0.8701 0.4929 -0.0000
vn 0.9978 0.0665 -0.0000
vn 0.9278 -0.3730 -0.0000
vn 0.6741 -0.7386 -0.0000
vn 0.2869 -0.9580 -0.0000
vn -0.5701 -0.8216 -0.0000
vn -0.8701 -0.4929 -0.0000
vn -0.9978 -0.0665 -0.0000
vn -0.9278 0.3730 -0.0000
vn -0.6741 0.7386 -0.0000
vn 0.8094 0.5872 -0.0000
vn 0.6299 0.7767 -0.0000
vn 0.4074 0.9132 -0.0000
vn -0.8094 -0.5872 -0.0000
vn 0.9513 0.3083 -0.0000
vn 1.0000 -0.0007 -0.0000
vn 0.9508 -0.3097 -0.0000
vn 0.8086 -0.5884 -0.0000
vn 0.5872 -0.8094 -0.0000
vn 0.3083 -0.9513 -0.0000
vn -0.0007 -1.0000 -0.0000
vn -0.3097 -0.9508 -0.0000
vn -0.5884 -0.8086 -0.0000
vn 0.8095 0.5872 -0.0000
vn -0.0000 -0.0000 1.0000
vn -0.0000 -0.0000 -1.0000
vn -0.6299 -0.7767 -0.0000
vn -0.4074 -0.9132 -0.0000
vn -0.0003 -0.0000 -1.0000
vn -0.3577 0.9338 -0.0000
vn -0.7767 0.6299 -0.0000
vn -0.9338 -0.3577 -0.0000
vn -0.9876 0.1571 -0.0000
vt 1.256637 0.020000
vt 1.570796 0.012500
vt 1.570796 0.020000
vt 0.942478 0.020000
vt 1.256637 0.012500
vt 0.628319 0.020000
vt 0.942478 0.012500
vt 0.314159 0.020000
vt 0.628319 0.012500
vt 0.000000 0.020000
vt 0.314159 0.012500
vt 1.884956 0.012500
vt 1.884956 0.020000
vt 2.199115 0.020000
vt 2.513274 0.012500
vt 2.513274 0.020000
vt 2.827433 0.012500
vt 2.827433 0.020000
vt 3.141593 0.012500
vt 3.141593 0.020000
vt 2.199115 0.012500
vt 0.000000 0.012500
vt -0.448799 0.020000
vt -0.448799 0.012500
vt 0.448799 0.012500
vt 0.448799 0.020000
vt 0.897598 0.012500
vt 0.897598 0.020000
vt 1.346397 0.012500
vt 1.346397 0.020000
vt 1.795196 0.012500
vt 1.795196 0.020000
vt 2.243995 0.012500
vt 2.243995 0.020000
vt 2.692794 0.012500
vt 2.692794 0.020000
vt 3.590392 0.012500
vt 3.590392 0.020000
vt 4.039191 0.012500
vt 4.039191 0.020000
vt 4.487989 0.012500
vt 4.487989 0.020000
vt 4.936789 0.012500
vt 4.936789 0.020000
vt 5.385587 0.012500
vt 5.385587 0.020000
vt -0.040000 0.000000
vt 0.000000 -0.020000
vt 0.000000 0.000000
vt -0.040000 -0.020000
vt 3.926991 0.000000
vt 3.665191 0.020000
vt 3.665191 0.000000
vt 3.926991 0.020000
vt 3.403392 0.020000
vt 3.403392 0.000000
vt 3.141593 0.000000
vt -0.020000 -0.020000
vt -0.009000 -0.012500
vt -0.000000 -0.020000
vt -0.000000 0.000000
vt -0.009000 -0.007500
vt -0.020000 -0.012500
vt -0.020000 0.000000
vt -0.020000 -0.007500
vt 0.314159 0.007500
vt 0.628319 -0.000000
vt 0.628319 0.007500
vt 0.942478 -0.000000
vt 0.942478 0.007500
vt 1.256637 -0.000000
vt 1.256637 0.007500
vt 1.570796 -0.000000
vt 1.570796 0.007500
vt 1.884956 -0.000000
vt 1.884956 0.007500
vt 0.314159 -0.000000
vt 0.000000 0.007500
vt 2.199115 -0.000000
vt 2.199115 0.007500
vt 2.513274 -0.000000
vt 2.513274 0.007500
vt 2.827433 -0.000000
vt 2.827433 0.007500
vt 3.141593 0.007500
vt -0.002485 -0.020000
vt -0.002485 0.000000
vt 0.448799 -0.000000
vt -0.448799 -0.000000
vt 5.385587 -0.000000
vt 4.936789 -0.000000
vt 4.487989 -0.000000
vt 4.039191 -0.000000
vt 3.590392 -0.000000
vt 2.692794 -0.000000
vt 2.243995 -0.000000
vt 1.795196 -0.000000
vt 1.346397 -0.000000
vt 0.897598 -0.000000
vt 4.241150 0.020000
vt 4.555309 0.000000
vt 4.555309 0.020000
vt 4.869469 0.000000
vt 4.869469 0.020000
vt 5.183628 0.000000
vt 5.183628 0.020000
vt 5.497787 0.000000
vt 5.497787 0.020000
vt 5.811946 0.000000
vt 5.811946 0.020000
vt 6.126106 0.000000
vt 6.126106 0.020000
vt 0.157080 0.000000
vt 0.157080 0.020000
vt 0.471239 0.000000
vt 0.471239 0.020000
vt 0.785398 0.000000
vt 0.785398 0.020000
vt 4.241150 0.000000
vt 5.385587 0.007500
vt 4.936789 0.007500
vt 4.487989 0.007500
vt 4.039191 0.007500
vt 3.590392 0.007500
vt 2.692794 0.007500
vt 2.243995 0.007500
vt 1.795196 0.007500
vt 1.346397 0.007500
vt 0.897598 0.007500
vt 0.448799 0.007500
vt -0.448799 0.007500
vt 0.002853 0.020927
vt 0.001500 0.020000
vt 0.003000 0.020000
vt -0.031247 -0.028754
vt -0.029636 -0.028935
vt -0.029784 -0.028284
vt -0.026163 -0.030406
vt -0.026933 -0.028935
vt -0.027349 -0.029457
vt -0.030406 -0.026163
vt -0.029636 -0.027633
vt -0.029220 -0.027112
vt -0.026784 -0.028284
vt -0.029646 -0.030957
vt -0.028618 -0.029747
vt -0.029220 -0.029457
vt -0.031247 -0.027815
vt -0.030957 -0.026922
vt -0.003879 0.000364
vt -0.027950 -0.026822
vt -0.027349 -0.027112
vt 0.002121 -0.002121
vt -0.026922 -0.030957
vt -0.030406 -0.030406
vt -0.030957 -0.029646
vt -0.028618 -0.026822
vt 0.003000 0.000000
vt 0.001351 0.000651
vt 0.001500 0.000000
vt -0.027950 -0.029747
vt -0.027815 -0.031247
vt -0.028754 -0.031247
vt 0.001351 0.019349
vt -0.001351 0.020651
vt -0.002427 0.021763
vt -0.002853 0.020927
vt -0.001351 0.019349
vt -0.001351 0.000651
vt -0.000935 0.001173
vt 0.002898 -0.000776
vt 0.001351 -0.000651
vt 0.002427 0.021763
vt 0.000935 0.021173
vt 0.001351 0.020651
vt -0.001500 0.000000
vt -0.000935 0.018827
vt 0.002598 -0.001500
vt 0.000935 -0.001173
vt -0.000927 0.022853
vt -0.000935 0.021173
vt -0.000334 0.021462
vt 0.000935 0.001173
vt 0.000935 0.018827
vt 0.000334 0.018538
vt 0.000334 -0.001462
vt -0.001763 0.022427
vt -0.000000 0.023000
vt 0.000334 0.001462
vt -0.000334 -0.001462
vt -0.000935 -0.001173
vt 0.000334 0.021462
vt 0.000927 0.022853
vt 0.001763 0.022427
vt -0.000334 0.001462
vt -0.000334 0.018538
vt -0.026933 -0.027633
vt -0.001500 0.020000
vt -0.001351 -0.000651
vt -0.003102 0.001709
vt -0.003402 0.000985
vt -0.003000 0.020000
vt -0.003000 0.002485
vt 0.001500 0.000000
vt 0.003000 0.000000
vt 0.004500 -0.010000
vt 0.006000 -0.010000
vt 0.004351 -0.010651
vt 0.000500 -0.020134
vt 0.001649 -0.010651
vt 0.002065 -0.011173
vt 0.005853 -0.009073
vt 0.004351 -0.009349
vt 0.000000 -0.010000
vt 0.001500 -0.010000
vt 0.005427 -0.008237
vt 0.003935 -0.008827
vt 0.004763 -0.007573
vt 0.005500 -0.020134
vt 0.005866 -0.020500
vt 0.000147 -0.009073
vt 0.006000 -0.021000
vt 0.000134 -0.020500
vt -0.000000 -0.021000
vt 0.002666 -0.011462
vt 0.001000 -0.020000
vt 0.000573 -0.008237
vt 0.002065 -0.008827
vt 0.001649 -0.009349
vt 0.002073 -0.007147
vt 0.001237 -0.007573
vt 0.005000 -0.020000
vt 0.003334 -0.011462
vt 0.003935 -0.011173
vt 0.003927 -0.007147
vt 0.003334 -0.008538
vt 0.002666 -0.008538
vt 0.003000 -0.007000
vt -0.004351 -0.010651
vt -0.006000 -0.010000
vt -0.004500 -0.010000
vt -0.005853 -0.009073
vt -0.000134 -0.020500
vt -0.000500 -0.020134
vt -0.001649 -0.010651
vt -0.002065 -0.011173
vt -0.005866 -0.020500
vt -0.005500 -0.020134
vt -0.002666 -0.008538
vt -0.003000 -0.007000
vt -0.002073 -0.007147
vt -0.003935 -0.008827
vt -0.003927 -0.007147
vt -0.003334 -0.008538
vt -0.002065 -0.008827
vt -0.001237 -0.007573
vt -0.000573 -0.008237
vt -0.001649 -0.009349
vt -0.003334 -0.011462
vt -0.001000 -0.020000
vt -0.005000 -0.020000
vt -0.006000 -0.021000
vt -0.002666 -0.011462
vt -0.000147 -0.009073
vt -0.001500 -0.010000
vt -0.005427 -0.008237
vt -0.004763 -0.007573
vt -0.003935 -0.011173
vt -0.004351 -0.009349
vt 0.005000 -0.005000
vt -0.000000 -0.001000
vt 0.005000 -0.001000
vt -0.000000 -0.005000
vt 1.570796 -0.007500
vt 2.094395 -0.012500
vt 2.094395 -0.007500
vt 2.617994 -0.012500
vt 2.617994 -0.007500
vt 3.141593 -0.012500
vt 3.141593 -0.007500
vt 1.570796 -0.012500
vt 5.235988 0.005000
vt 5.759586 -0.000000
vt 5.759586 0.005000
vt 6.283185 -0.000000
vt 6.283185 0.005000
vt 5.235988 -0.000000
vt 4.712389 0.005000
vt 4.712389 -0.000000
s 1
usemtl mat1.012
f 436/1/1 437/2/2 438/3/2
f 434/4/3 435/5/1 436/1/1
f 432/6/4 433/7/3 434/4/3
f 430/8/5 431/9/4 432/6/4
f 427/10/6 429/11/5 430/8/5
f 438/3/2 439/12/7 440/13/7
f 442/14/8 443/15/9 444/16/9
f 444/16/9 445/17/10 446/18/10
f 446/18/10 447/19/11 448/20/11
f 447/19/11 446/18/10 445/17/10
f 445/17/10 444/16/9 443/15/9
f 443/15/9 442/14/8 441/21/8
f 441/21/8 440/13/7 439/12/7
f 439/12/7 438/3/2 437/2/2
f 437/2/2 436/1/1 435/5/1
f 435/5/1 434/4/3 433/7/3
f 433/7/3 432/6/4 431/9/4
f 431/9/4 430/8/5 429/11/5
f 429/11/5 427/10/6 428/22/6
f 440/13/7 441/21/8 442/14/8
f 399/23/12 401/22/13 403/24/12
f 400/10/13 426/25/14 401/22/13
f 426/25/14 400/10/13 424/26/14
f 425/27/15 424/26/14 422/28/15
f 423/29/16 422/28/15 420/30/16
f 421/31/17 420/30/16 418/32/17
f 419/33/18 418/32/17 416/34/18
f 417/35/19 416/34/18 414/36/19
f 415/19/6 414/36/19 412/20/6
f 413/37/20 412/20/6 410/38/20
f 411/39/21 410/38/20 408/40/21
f 409/41/22 408/40/21 406/42/22
f 407/43/23 406/42/22 404/44/23
f 405/45/24 404/44/23 402/46/24
f 403/24/12 402/46/24 399/23/12
f 401/22/13 399/23/12 400/10/13
f 422/28/15 423/29/16 425/27/15
f 420/30/16 421/31/17 423/29/16
f 418/32/17 419/33/18 421/31/17
f 416/34/18 417/35/19 419/33/18
f 414/36/19 415/19/6 417/35/19
f 412/20/6 413/37/20 415/19/6
f 410/38/20 411/39/21 413/37/20
f 408/40/21 409/41/22 411/39/21
f 406/42/22 407/43/23 409/41/22
f 404/44/23 405/45/24 407/43/23
f 402/46/24 403/24/12 405/45/24
f 424/26/14 425/27/15 426/25/14
f 395/47/25 397/48/25 398/49/25
f 397/48/25 395/47/25 396/50/25
f 393/51/25 392/52/26 391/53/26
f 392/52/26 393/51/25 394/54/25
f 390/55/27 391/53/26 392/52/26
f 387/20/13 389/56/27 390/55/27
f 389/56/27 387/20/13 388/57/13
f 391/53/26 390/55/27 389/56/27
f 384/58/13 383/59/13 382/60/13
f 383/59/13 380/61/13 382/60/13
f 380/61/13 383/59/13 381/62/13
f 383/59/13 384/58/13 385/63/13
f 379/64/13 381/62/13 386/65/13
f 381/62/13 379/64/13 380/61/13
f 360/66/5 361/67/4 362/68/4
f 362/68/4 363/69/3 364/70/3
f 364/70/3 365/71/1 366/72/1
f 366/72/1 367/73/2 368/74/2
f 368/74/2 369/75/7 370/76/7
f 359/77/5 357/78/6 358/61/6
f 370/76/7 371/79/8 372/80/8
f 372/80/8 373/81/9 374/82/9
f 374/82/9 375/83/10 376/84/10
f 376/84/10 377/57/11 378/85/11
f 377/57/11 376/84/10 375/83/10
f 375/83/10 374/82/9 373/81/9
f 373/81/9 372/80/8 371/79/8
f 371/79/8 370/76/7 369/75/7
f 369/75/7 368/74/2 367/73/2
f 367/73/2 366/72/1 365/71/1
f 365/71/1 364/70/3 363/69/3
f 363/69/3 362/68/4 361/67/4
f 361/67/4 360/66/5 359/77/5
f 357/78/6 359/77/5 360/66/5
f 350/62/6 352/64/6 353/65/6
f 351/59/6 354/58/6 355/86/6
f 352/64/6 350/62/6 349/87/6
f 349/87/6 351/59/6 355/86/6
f 351/59/6 349/87/6 350/62/6
f 354/58/6 351/59/6 356/63/6
f 345/47/28 347/86/28 348/50/28
f 347/86/28 345/47/28 346/87/28
f 318/10/13 344/88/14 319/61/13
f 317/23/12 319/61/13 321/89/12
f 320/46/24 321/89/12 323/90/24
f 322/44/23 323/90/24 325/91/23
f 324/42/22 325/91/23 327/92/22
f 326/40/21 327/92/22 329/93/21
f 328/38/20 329/93/21 331/94/20
f 330/20/6 331/94/20 333/57/6
f 332/36/19 333/57/6 335/95/19
f 334/34/18 335/95/19 337/96/18
f 336/32/17 337/96/18 339/97/17
f 338/30/16 339/97/17 341/98/16
f 340/28/15 341/98/16 343/99/15
f 342/26/14 343/99/15 344/88/14
f 319/61/13 317/23/12 318/10/13
f 344/88/14 318/10/13 342/26/14
f 343/99/15 342/26/14 340/28/15
f 341/98/16 340/28/15 338/30/16
f 339/97/17 338/30/16 336/32/17
f 337/96/18 336/32/17 334/34/18
f 335/95/19 334/34/18 332/36/19
f 333/57/6 332/36/19 330/20/6
f 331/94/20 330/20/6 328/38/20
f 329/93/21 328/38/20 326/40/21
f 327/92/22 326/40/21 324/42/22
f 325/91/23 324/42/22 322/44/23
f 323/90/24 322/44/23 320/46/24
f 321/89/12 320/46/24 317/23/12
f 313/98/16 312/28/15 310/30/16
f 289/23/12 291/61/13 293/89/12
f 292/46/24 293/89/12 295/90/24
f 294/44/23 295/90/24 297/91/23
f 296/42/22 297/91/23 299/92/22
f 298/40/21 299/92/22 301/93/21
f 300/38/20 301/93/21 303/94/20
f 302/20/6 303/94/20 305/57/6
f 304/36/19 305/57/6 307/95/19
f 306/34/18 307/95/19 309/96/18
f 308/32/17 309/96/18 311/97/17
f 310/30/16 311/97/17 313/98/16
f 312/28/15 313/98/16 315/99/15
f 314/26/14 315/99/15 316/88/14
f 291/61/13 289/23/12 290/10/13
f 293/89/12 292/46/24 289/23/12
f 295/90/24 294/44/23 292/46/24
f 297/91/23 296/42/22 294/44/23
f 299/92/22 298/40/21 296/42/22
f 301/93/21 300/38/20 298/40/21
f 303/94/20 302/20/6 300/38/20
f 305/57/6 304/36/19 302/20/6
f 307/95/19 306/34/18 304/36/19
f 309/96/18 308/32/17 306/34/18
f 311/97/17 310/30/16 308/32/17
f 290/10/13 316/88/14 291/61/13
f 315/99/15 314/26/14 312/28/15
f 316/88/14 290/10/13 314/26/14
f 270/100/29 271/101/30 272/102/30
f 272/102/30 273/103/31 274/104/31
f 274/104/31 275/105/32 276/106/32
f 276/106/32 277/107/33 278/108/33
f 278/108/33 279/109/34 280/110/34
f 280/110/34 281/111/35 282/112/35
f 282/112/35 283/113/36 284/114/36
f 284/114/36 285/115/37 286/116/37
f 286/116/37 287/117/28 288/118/28
f 287/117/28 286/116/37 285/115/37
f 285/115/37 284/114/36 283/113/36
f 283/113/36 282/112/35 281/111/35
f 281/111/35 280/110/34 279/109/34
f 279/109/34 278/108/33 277/107/33
f 277/107/33 276/106/32 275/105/32
f 275/105/32 274/104/31 273/103/31
f 273/103/31 272/102/30 271/101/30
f 271/101/30 270/100/29 269/119/29
f 269/119/29 267/54/38 268/51/38
f 267/54/38 269/119/29 270/100/29
f 242/120/24 243/89/12 245/90/24
f 244/121/23 245/90/24 247/91/23
f 246/122/22 247/91/23 249/92/22
f 248/123/21 249/92/22 251/93/21
f 250/124/20 251/93/21 253/94/20
f 252/85/6 253/94/20 255/57/6
f 254/125/19 255/57/6 257/95/19
f 256/126/18 257/95/19 259/96/18
f 258/127/17 259/96/18 261/97/17
f 260/128/16 261/97/17 263/98/16
f 262/129/15 263/98/16 265/99/15
f 264/130/14 265/99/15 266/88/14
f 240/78/13 266/88/14 241/61/13
f 266/88/14 240/78/13 264/130/14
f 265/99/15 264/130/14 262/129/15
f 263/98/16 262/129/15 260/128/16
f 261/97/17 260/128/16 258/127/17
f 259/96/18 258/127/17 256/126/18
f 257/95/19 256/126/18 254/125/19
f 255/57/6 254/125/19 252/85/6
f 239/131/12 241/61/13 243/89/12
f 253/94/20 252/85/6 250/124/20
f 251/93/21 250/124/20 248/123/21
f 249/92/22 248/123/21 246/122/22
f 247/91/23 246/122/22 244/121/23
f 245/90/24 244/121/23 242/120/24
f 243/89/12 242/120/24 239/131/12
f 241/61/13 239/131/12 240/78/13
f 195/132/39 215/133/39 204/134/39
f 220/135/39 222/136/39 233/137/39
f 237/138/39 238/139/39 228/140/39
f 231/141/39 236/142/39 232/143/39
f 237/138/39 190/144/39 238/139/39
f 217/145/39 219/146/39 223/147/39
f 234/148/39 236/142/39 235/149/39
f 171/150/39 230/151/39 181/152/39
f 190/144/39 237/138/39 191/153/39
f 228/140/39 227/154/39 237/138/39
f 224/155/39 222/136/39 221/156/39
f 236/142/39 234/148/39 233/137/39
f 236/142/39 231/141/39 235/149/39
f 231/141/39 229/157/39 171/150/39
f 213/158/39 206/159/39 214/160/39
f 227/154/39 226/161/39 225/162/39
f 218/163/39 226/161/39 219/146/39
f 222/136/39 224/155/39 223/147/39
f 220/135/39 233/137/39 234/148/39
f 229/157/39 231/141/39 232/143/39
f 230/151/39 171/150/39 229/157/39
f 205/164/39 204/134/39 215/133/39
f 177/165/39 176/166/39 179/167/39
f 226/161/39 227/154/39 228/140/39
f 217/145/39 223/147/39 224/155/39
f 222/136/39 220/135/39 221/156/39
f 167/168/39 216/169/39 201/170/39
f 212/171/39 214/160/39 211/172/39
f 186/173/39 188/174/39 194/175/39
f 219/146/39 217/145/39 218/163/39
f 216/169/39 167/168/39 170/176/39
f 201/170/39 202/177/39 167/168/39
f 212/171/39 211/172/39 210/178/39
f 191/153/39 211/172/39 209/179/39
f 208/180/39 178/181/39 199/182/39
f 215/133/39 195/132/39 194/175/39
f 203/183/39 207/184/39 185/185/39
f 204/134/39 206/159/39 213/158/39
f 214/160/39 212/171/39 213/158/39
f 211/172/39 191/153/39 210/178/39
f 192/186/39 191/153/39 209/179/39
f 178/181/39 208/180/39 180/187/39
f 199/182/39 198/188/39 208/180/39
f 203/183/39 205/164/39 207/184/39
f 185/185/39 184/189/39 203/183/39
f 206/159/39 204/134/39 203/183/39
f 190/144/39 200/190/39 182/191/39
f 198/188/39 197/192/39 196/193/39
f 196/193/39 188/174/39 187/194/39
f 205/164/39 203/183/39 204/134/39
f 183/195/39 193/196/39 201/170/39
f 202/177/39 201/170/39 193/196/39
f 190/144/39 192/186/39 200/190/39
f 182/191/39 189/197/39 190/144/39
f 197/192/39 198/188/39 199/182/39
f 188/174/39 196/193/39 197/192/39
f 186/173/39 194/175/39 195/132/39
f 183/195/39 185/185/39 193/196/39
f 192/186/39 190/144/39 191/153/39
f 182/191/39 181/152/39 189/197/39
f 179/167/39 173/198/39 177/165/39
f 188/174/39 186/173/39 187/194/39
f 185/185/39 183/195/39 184/189/39
f 181/152/39 182/191/39 172/199/39
f 172/199/39 171/150/39 181/152/39
f 176/166/39 178/181/39 180/187/39
f 170/176/39 175/200/39 174/201/39
f 173/198/39 179/167/39 168/202/39
f 178/181/39 176/166/39 177/165/39
f 170/176/39 169/203/39 175/200/39
f 171/150/39 170/176/39 174/201/39
f 168/202/39 167/168/39 173/198/39
f 170/176/39 171/150/39 172/199/39
f 167/168/39 169/203/39 170/176/39
f 169/203/39 167/168/39 168/202/39
f 226/161/39 218/163/39 225/162/39
f 156/148/40 158/142/40 163/137/40
f 151/138/40 120/144/40 112/153/40
f 165/155/40 164/136/40 155/147/40
f 125/167/40 127/198/40 124/202/40
f 163/137/40 162/135/40 156/148/40
f 140/154/40 142/161/40 150/140/40
f 136/201/40 138/169/40 147/176/40
f 128/191/40 130/152/40 146/199/40
f 135/133/40 134/134/40 100/164/40
f 109/180/40 111/181/40 115/187/40
f 145/157/40 143/141/40 144/150/40
f 142/161/40 140/154/40 141/162/40
f 123/195/40 107/168/40 139/189/40
f 138/169/40 136/201/40 137/200/40
f 129/197/40 128/191/40 120/144/40
f 120/144/40 122/186/40 112/153/40
f 135/133/40 133/132/40 134/134/40
f 143/141/40 145/157/40 159/143/40
f 114/166/40 111/181/40 126/165/40
f 107/168/40 124/202/40 127/198/40
f 132/203/40 123/195/40 131/170/40
f 130/152/40 128/191/40 129/197/40
f 121/190/40 120/144/40 128/191/40
f 113/179/40 112/153/40 122/186/40
f 118/173/40 117/174/40 116/194/40
f 105/193/40 117/174/40 106/192/40
f 114/166/40 126/165/40 125/167/40
f 127/198/40 125/167/40 126/165/40
f 107/168/40 123/195/40 124/202/40
f 122/186/40 120/144/40 121/190/40
f 112/153/40 96/172/40 103/178/40
f 117/174/40 118/173/40 119/175/40
f 117/174/40 105/193/40 116/194/40
f 104/188/40 106/192/40 110/182/40
f 111/181/40 114/166/40 115/187/40
f 162/135/40 164/136/40 166/156/40
f 164/136/40 165/155/40 166/156/40
f 96/172/40 112/153/40 113/179/40
f 97/204/40 108/177/40 101/196/40
f 104/188/40 110/182/40 109/180/40
f 111/181/40 109/180/40 110/182/40
f 108/177/40 97/204/40 107/168/40
f 97/204/40 102/185/40 98/205/40
f 106/192/40 104/188/40 105/193/40
f 96/172/40 95/171/40 103/178/40
f 155/147/40 154/145/40 165/155/40
f 99/184/40 98/205/40 102/185/40
f 95/171/40 97/204/40 98/205/40
f 102/185/40 97/204/40 101/196/40
f 100/164/40 98/205/40 99/184/40
f 97/204/40 95/171/40 96/172/40
f 161/139/40 151/138/40 150/140/40
f 123/195/40 132/203/40 124/202/40
f 98/205/40 100/164/40 134/134/40
f 160/151/40 144/150/40 130/152/40
f 143/141/40 158/142/40 157/149/40
f 164/136/40 162/135/40 163/137/40
f 154/145/40 153/146/40 152/163/40
f 152/163/40 142/161/40 141/162/40
f 120/144/40 151/138/40 161/139/40
f 107/168/40 149/159/40 148/183/40
f 131/170/40 137/200/40 132/203/40
f 144/150/40 146/199/40 130/152/40
f 133/132/40 135/133/40 119/175/40
f 145/157/40 144/150/40 160/151/40
f 158/142/40 143/141/40 159/143/40
f 158/142/40 156/148/40 157/149/40
f 153/146/40 154/145/40 155/147/40
f 142/161/40 152/163/40 153/146/40
f 140/154/40 150/140/40 151/138/40
f 146/199/40 144/150/40 147/176/40
f 149/159/40 107/168/40 97/204/40
f 139/189/40 107/168/40 148/183/40
f 137/200/40 131/170/40 138/169/40
f 136/201/40 147/176/40 144/150/40
f 119/175/40 118/173/40 133/132/40
f 87/52/41 89/51/28 91/53/41
f 92/20/6 93/56/42 94/57/6
f 93/56/42 92/20/6 90/55/42
f 91/53/41 90/55/42 87/52/41
f 89/51/28 87/52/41 88/54/28
f 90/55/42 91/53/41 93/56/42
f 79/206/39 78/207/39 69/208/39
f 76/209/39 82/210/39 80/211/39
f 77/212/39 79/206/39 75/213/39
f 82/210/39 81/214/39 73/215/39
f 75/213/39 74/216/39 77/212/39
f 74/216/39 66/217/39 65/218/39
f 67/219/39 78/207/39 84/220/39
f 72/221/39 73/215/39 81/214/39
f 84/220/39 78/207/39 85/222/39
f 81/214/39 83/223/39 86/224/39
f 82/210/39 76/209/39 81/214/39
f 60/225/39 76/209/39 80/211/39
f 66/217/39 74/216/39 75/213/39
f 60/225/39 59/226/39 76/209/39
f 67/219/39 69/208/39 78/207/39
f 62/227/39 58/228/39 71/229/39
f 73/215/39 72/221/39 71/229/39
f 83/223/39 81/214/39 76/209/39
f 57/230/39 58/228/39 63/231/39
f 79/206/39 77/212/39 78/207/39
f 70/232/39 61/233/39 67/219/39
f 68/234/39 67/219/39 61/233/39
f 64/235/39 66/217/39 55/236/39
f 62/227/39 71/229/39 72/221/39
f 59/226/39 61/233/39 70/232/39
f 69/208/39 67/219/39 68/234/39
f 66/217/39 64/235/39 65/218/39
f 56/237/39 54/238/39 55/236/39
f 58/228/39 57/230/39 56/237/39
f 54/238/39 56/237/39 57/230/39
f 61/233/39 59/226/39 60/225/39
f 58/228/39 62/227/39 63/231/39
f 55/236/39 54/238/39 64/235/39
f 43/239/40 42/240/40 49/241/40
f 47/242/40 49/241/40 42/240/40
f 52/243/40 39/214/40 51/224/43
f 39/214/40 52/243/40 34/244/40
f 36/245/40 34/244/40 35/246/40
f 50/247/40 42/240/40 41/248/40
f 23/249/40 21/250/40 22/251/40
f 26/252/40 24/253/40 25/254/40
f 21/250/40 25/254/40 24/253/40
f 21/250/40 23/249/40 25/254/40
f 28/255/40 22/251/40 27/256/40
f 28/255/40 29/257/40 30/258/40
f 33/259/40 31/260/40 32/261/40
f 22/251/40 28/255/40 23/249/40
f 29/257/40 28/255/40 27/256/40
f 42/240/40 50/247/40 53/262/40
f 31/260/40 37/263/40 34/244/40
f 30/258/40 29/257/40 38/264/40
f 40/265/40 38/264/40 39/214/40
f 35/246/40 34/244/40 37/263/40
f 31/260/40 33/259/40 37/263/40
f 43/239/40 41/248/40 42/240/40
f 26/252/40 44/266/40 45/267/40
f 38/264/40 40/265/40 30/258/40
f 33/259/40 32/261/40 41/248/40
f 41/248/40 43/239/40 46/268/40
f 49/241/40 47/242/40 48/269/40
f 44/266/40 48/269/40 47/242/40
f 40/265/40 39/214/40 36/245/40
f 41/248/40 46/268/40 33/259/40
f 44/266/40 26/252/40 48/269/40
f 34/244/40 36/245/40 39/214/40
f 24/253/40 26/252/40 45/267/40
f 19/270/2 17/271/2 18/272/2
f 17/271/2 19/270/2 20/273/2
f 9/274/11 11/275/44 12/276/44
f 12/276/44 13/277/45 14/278/45
f 14/278/45 15/279/2 16/280/2
f 15/279/2 14/278/45 13/277/45
f 11/275/44 9/274/11 10/281/11
f 13/277/45 12/276/44 11/275/44
f 4/282/41 5/283/46 6/284/46
f 6/284/46 7/285/2 8/286/47
f 7/285/2 6/284/46 5/283/46
f 5/283/46 4/282/41 3/287/41
f 3/287/41 1/288/6 2/289/6
f 1/288/6 3/287/41 4/282/41
