# Blender 4.5.4 LTS
# www.blender.org
mtllib G_L2.mtl
o G_L2
v 0.023139 -0.030923 0.019996
v 0.022607 -0.031168 0.019996
v 0.022607 -0.031168 0.014996
v 0.023723 -0.030900 0.019996
v 0.023139 -0.030923 0.014996
v 0.024272 -0.031103 0.019996
v 0.023723 -0.030900 0.014996
v 0.024702 -0.031501 0.019996
v 0.024272 -0.031103 0.014996
v 0.024946 -0.032033 0.019996
v 0.024702 -0.031501 0.014996
v 0.024969 -0.032617 0.019996
v 0.024946 -0.032033 0.014996
v 0.024766 -0.033166 0.019996
v 0.024969 -0.032617 0.014996
v 0.024368 -0.033596 0.019996
v 0.024766 -0.033166 0.014996
v 0.023837 -0.033841 0.019996
v 0.024368 -0.033596 0.014996
v 0.023252 -0.033863 0.019996
v 0.023837 -0.033841 0.014996
v 0.022703 -0.033660 0.019996
v 0.023252 -0.033863 0.014996
v 0.022273 -0.033263 0.019996
v 0.022703 -0.033660 0.014996
v 0.022029 -0.032731 0.019996
v 0.022273 -0.033263 0.014996
v 0.022006 -0.032146 0.019996
v 0.022029 -0.032731 0.014996
v 0.022209 -0.031597 0.019996
v 0.022006 -0.032146 0.014996
v 0.022209 -0.031597 0.014996
v -0.000349 0.001455 0.019996
v -0.000881 0.001210 0.019996
v -0.000881 0.001210 0.014996
v 0.000236 0.001478 0.019996
v -0.000349 0.001455 0.014996
v 0.000785 0.001275 0.019996
v 0.000236 0.001478 0.014996
v 0.001214 0.000877 0.019996
v 0.000785 0.001275 0.014996
v 0.001459 0.000345 0.019996
v 0.001214 0.000877 0.014996
v 0.001481 -0.000239 0.019996
v 0.001459 0.000345 0.014996
v 0.001278 -0.000788 0.019996
v 0.001481 -0.000239 0.014996
v 0.000881 -0.001218 0.019996
v 0.001278 -0.000788 0.014996
v 0.000349 -0.001463 0.019996
v 0.000881 -0.001218 0.014996
v -0.000236 -0.001485 0.019996
v 0.000349 -0.001463 0.014996
v -0.000785 -0.001282 0.019996
v -0.000236 -0.001485 0.014996
v -0.001214 -0.000885 0.019996
v -0.000785 -0.001282 0.014996
v -0.001459 -0.000353 0.019996
v -0.001214 -0.000885 0.014996
v -0.001481 0.000232 0.019996
v -0.001459 -0.000353 0.014996
v -0.001278 0.000781 0.019996
v -0.001481 0.000232 0.014996
v -0.001278 0.000781 0.014996
v 0.021059 -0.034143 0.014996
v 0.021059 -0.034143 0.019996
v -0.002428 -0.001765 0.019996
v -0.002428 -0.001765 0.014996
v 0.021059 -0.034143 0.019996
v 0.021059 -0.034143 0.014996
v 0.021598 -0.034712 0.014996
v 0.021598 -0.034712 0.019996
v 0.022265 -0.035121 0.014996
v 0.022265 -0.035121 0.019996
v 0.023016 -0.035344 0.014996
v 0.023016 -0.035344 0.019996
v 0.023799 -0.035366 0.014996
v 0.023799 -0.035366 0.019996
v 0.024561 -0.035183 0.014996
v 0.024561 -0.035183 0.019996
v 0.025249 -0.034810 0.014996
v 0.025249 -0.034810 0.019996
v 0.025818 -0.034271 0.014996
v 0.025818 -0.034271 0.019996
v 0.026227 -0.033604 0.014996
v 0.026227 -0.033604 0.019996
v 0.026450 -0.032853 0.014996
v 0.026450 -0.032853 0.019996
v 0.026471 -0.032070 0.014996
v 0.026471 -0.032070 0.019996
v 0.026289 -0.031309 0.014996
v 0.026289 -0.031309 0.019996
v 0.025916 -0.030620 0.014996
v 0.025916 -0.030620 0.019996
v 0.025916 -0.030620 0.019996
v 0.025916 -0.030620 0.014996
v 0.002428 0.001758 0.014996
v 0.002428 0.001758 0.019996
v 0.002428 0.001758 0.019996
v 0.002428 0.001758 0.014996
v 0.001890 0.002326 0.014996
v 0.001890 0.002326 0.019996
v 0.001222 0.002736 0.014996
v 0.001222 0.002736 0.019996
v 0.000472 0.002959 0.014996
v 0.000472 0.002959 0.019996
v -0.000311 0.002980 0.014996
v -0.000311 0.002980 0.019996
v -0.001073 0.002798 0.014996
v -0.001073 0.002798 0.019996
v -0.001762 0.002425 0.014996
v -0.001762 0.002425 0.019996
v -0.002330 0.001886 0.014996
v -0.002330 0.001886 0.019996
v -0.002740 0.001218 0.014996
v -0.002740 0.001218 0.019996
v -0.002963 0.000468 0.014996
v -0.002963 0.000468 0.019996
v -0.002984 -0.000315 0.014996
v -0.002984 -0.000315 0.019996
v -0.002801 -0.001077 0.014996
v -0.002801 -0.001077 0.019996
v -0.002428 -0.001765 0.014996
v -0.002428 -0.001765 0.019996
v -0.002330 0.001886 0.019996
v -0.001278 0.000781 0.019996
v -0.000881 0.001210 0.019996
v -0.001762 0.002425 0.019996
v -0.002740 0.001218 0.019996
v -0.002963 0.000468 0.019996
v -0.001481 0.000232 0.019996
v -0.002984 -0.000315 0.019996
v -0.001459 -0.000353 0.019996
v 0.022209 -0.031597 0.019996
v 0.022607 -0.031168 0.019996
v 0.000881 -0.001218 0.019996
v 0.021598 -0.034712 0.019996
v 0.022703 -0.033660 0.019996
v 0.022273 -0.033263 0.019996
v 0.023799 -0.035366 0.019996
v 0.023837 -0.033841 0.019996
v 0.023252 -0.033863 0.019996
v 0.025818 -0.034271 0.019996
v 0.024766 -0.033166 0.019996
v 0.024368 -0.033596 0.019996
v -0.002801 -0.001077 0.019996
v -0.002428 -0.001765 0.019996
v -0.001214 -0.000885 0.019996
v 0.000349 -0.001463 0.019996
v 0.022006 -0.032146 0.019996
v 0.021059 -0.034143 0.019996
v 0.022029 -0.032731 0.019996
v 0.022265 -0.035121 0.019996
v 0.023016 -0.035344 0.019996
v 0.024561 -0.035183 0.019996
v 0.025249 -0.034810 0.019996
v 0.026227 -0.033604 0.019996
v 0.026450 -0.032853 0.019996
v 0.024969 -0.032617 0.019996
v 0.002428 0.001758 0.019996
v 0.001459 0.000345 0.019996
v 0.001481 -0.000239 0.019996
v 0.001890 0.002326 0.019996
v 0.000785 0.001275 0.019996
v 0.001214 0.000877 0.019996
v -0.000785 -0.001282 0.019996
v -0.000236 -0.001485 0.019996
v 0.026289 -0.031309 0.019996
v 0.025916 -0.030620 0.019996
v 0.024702 -0.031501 0.019996
v -0.000311 0.002980 0.019996
v -0.000349 0.001455 0.019996
v 0.000236 0.001478 0.019996
v 0.026471 -0.032070 0.019996
v 0.024946 -0.032033 0.019996
v 0.023723 -0.030900 0.019996
v 0.023139 -0.030923 0.019996
v 0.001278 -0.000788 0.019996
v 0.001222 0.002736 0.019996
v 0.000472 0.002959 0.019996
v -0.001073 0.002798 0.019996
v 0.024272 -0.031103 0.019996
v -0.002428 -0.001765 0.014996
v -0.001214 -0.000885 0.014996
v 0.022607 -0.031168 0.014996
v -0.002801 -0.001077 0.014996
v -0.001459 -0.000353 0.014996
v 0.022209 -0.031597 0.014996
v 0.023723 -0.030900 0.014996
v 0.023139 -0.030923 0.014996
v -0.002984 -0.000315 0.014996
v -0.002963 0.000468 0.014996
v -0.001481 0.000232 0.014996
v -0.002740 0.001218 0.014996
v -0.001278 0.000781 0.014996
v -0.002330 0.001886 0.014996
v -0.001762 0.002425 0.014996
v -0.000881 0.001210 0.014996
v -0.000311 0.002980 0.014996
v 0.000472 0.002959 0.014996
v 0.000236 0.001478 0.014996
v -0.001073 0.002798 0.014996
v -0.000349 0.001455 0.014996
v 0.026289 -0.031309 0.014996
v 0.024946 -0.032033 0.014996
v 0.024702 -0.031501 0.014996
v 0.001222 0.002736 0.014996
v 0.000785 0.001275 0.014996
v 0.001890 0.002326 0.014996
v 0.002428 0.001758 0.014996
v 0.001214 0.000877 0.014996
v 0.025916 -0.030620 0.014996
v 0.000881 -0.001218 0.014996
v 0.021598 -0.034712 0.014996
v 0.021059 -0.034143 0.014996
v 0.022273 -0.033263 0.014996
v 0.001481 -0.000239 0.014996
v 0.026471 -0.032070 0.014996
v 0.023799 -0.035366 0.014996
v 0.023016 -0.035344 0.014996
v 0.023252 -0.033863 0.014996
v 0.022265 -0.035121 0.014996
v 0.022703 -0.033660 0.014996
v 0.022006 -0.032146 0.014996
v 0.001459 0.000345 0.014996
v 0.001278 -0.000788 0.014996
v 0.026450 -0.032853 0.014996
v 0.024969 -0.032617 0.014996
v 0.026227 -0.033604 0.014996
v 0.024766 -0.033166 0.014996
v 0.024561 -0.035183 0.014996
v 0.023837 -0.033841 0.014996
v 0.024368 -0.033596 0.014996
v 0.022029 -0.032731 0.014996
v 0.025818 -0.034271 0.014996
v 0.025249 -0.034810 0.014996
v -0.000236 -0.001485 0.014996
v 0.000349 -0.001463 0.014996
v 0.024272 -0.031103 0.014996
v -0.000785 -0.001282 0.014996
v 0.023139 -0.030923 -0.015004
v 0.022607 -0.031168 -0.015004
v 0.022607 -0.031168 -0.020004
v 0.023723 -0.030900 -0.015004
v 0.023139 -0.030923 -0.020004
v 0.024272 -0.031103 -0.015004
v 0.023723 -0.030900 -0.020004
v 0.024702 -0.031501 -0.015004
v 0.024272 -0.031103 -0.020004
v 0.024946 -0.032033 -0.015004
v 0.024702 -0.031501 -0.020004
v 0.024969 -0.032617 -0.015004
v 0.024946 -0.032033 -0.020004
v 0.024766 -0.033166 -0.015004
v 0.024969 -0.032617 -0.020004
v 0.024368 -0.033596 -0.015004
v 0.024766 -0.033166 -0.020004
v 0.023837 -0.033841 -0.015004
v 0.024368 -0.033596 -0.020004
v 0.023252 -0.033863 -0.015004
v 0.023837 -0.033841 -0.020004
v 0.022703 -0.033660 -0.015004
v 0.023252 -0.033863 -0.020004
v 0.022273 -0.033263 -0.015004
v 0.022703 -0.033660 -0.020004
v 0.022029 -0.032731 -0.015004
v 0.022273 -0.033263 -0.020004
v 0.022006 -0.032146 -0.015004
v 0.022029 -0.032731 -0.020004
v 0.022209 -0.031597 -0.015004
v 0.022006 -0.032146 -0.020004
v 0.022209 -0.031597 -0.020004
v -0.000349 0.001455 -0.015004
v -0.000881 0.001210 -0.015004
v -0.000881 0.001210 -0.020004
v 0.000236 0.001478 -0.015004
v -0.000349 0.001455 -0.020004
v 0.000785 0.001275 -0.015004
v 0.000236 0.001478 -0.020004
v 0.001214 0.000877 -0.015004
v 0.000785 0.001275 -0.020004
v 0.001459 0.000345 -0.015004
v 0.001214 0.000877 -0.020004
v 0.001481 -0.000239 -0.015004
v 0.001459 0.000345 -0.020004
v 0.001278 -0.000788 -0.015004
v 0.001481 -0.000239 -0.020004
v 0.000881 -0.001218 -0.015004
v 0.001278 -0.000788 -0.020004
v 0.000349 -0.001463 -0.015004
v 0.000881 -0.001218 -0.020004
v -0.000236 -0.001485 -0.015004
v 0.000349 -0.001463 -0.020004
v -0.000785 -0.001282 -0.015004
v -0.000236 -0.001485 -0.020004
v -0.001214 -0.000885 -0.015004
v -0.000785 -0.001282 -0.020004
v -0.001459 -0.000353 -0.015004
v -0.001214 -0.000885 -0.020004
v -0.001481 0.000232 -0.015004
v -0.001459 -0.000353 -0.020004
v -0.001278 0.000781 -0.015004
v -0.001481 0.000232 -0.020004
v -0.001278 0.000781 -0.020004
v 0.021059 -0.034143 -0.020004
v 0.021059 -0.034143 -0.015004
v -0.002428 -0.001765 -0.015004
v -0.002428 -0.001765 -0.020004
v 0.021059 -0.034143 -0.015004
v 0.021059 -0.034143 -0.020004
v 0.021598 -0.034712 -0.020004
v 0.021598 -0.034712 -0.015004
v 0.022265 -0.035121 -0.020004
v 0.022265 -0.035121 -0.015004
v 0.023016 -0.035344 -0.020004
v 0.023016 -0.035344 -0.015004
v 0.023799 -0.035366 -0.020004
v 0.023799 -0.035366 -0.015004
v 0.024561 -0.035183 -0.020004
v 0.024561 -0.035183 -0.015004
v 0.025249 -0.034810 -0.020004
v 0.025249 -0.034810 -0.015004
v 0.025818 -0.034271 -0.020004
v 0.025818 -0.034271 -0.015004
v 0.026227 -0.033604 -0.020004
v 0.026227 -0.033604 -0.015004
v 0.026450 -0.032853 -0.020004
v 0.026450 -0.032853 -0.015004
v 0.026471 -0.032070 -0.020004
v 0.026471 -0.032070 -0.015004
v 0.026289 -0.031309 -0.020004
v 0.026289 -0.031309 -0.015004
v 0.025916 -0.030620 -0.020004
v 0.025916 -0.030620 -0.015004
v 0.025916 -0.030620 -0.015004
v 0.025916 -0.030620 -0.020004
v 0.002428 0.001758 -0.020004
v 0.002428 0.001758 -0.015004
v 0.002428 0.001758 -0.015004
v 0.002428 0.001758 -0.020004
v 0.001890 0.002326 -0.020004
v 0.001890 0.002326 -0.015004
v 0.001222 0.002736 -0.020004
v 0.001222 0.002736 -0.015004
v 0.000472 0.002959 -0.020004
v 0.000472 0.002959 -0.015004
v -0.000311 0.002980 -0.020004
v -0.000311 0.002980 -0.015004
v -0.001073 0.002798 -0.020004
v -0.001073 0.002798 -0.015004
v -0.001762 0.002425 -0.020004
v -0.001762 0.002425 -0.015004
v -0.002330 0.001886 -0.020004
v -0.002330 0.001886 -0.015004
v -0.002740 0.001218 -0.020004
v -0.002740 0.001218 -0.015004
v -0.002963 0.000468 -0.020004
v -0.002963 0.000468 -0.015004
v -0.002984 -0.000315 -0.020004
v -0.002984 -0.000315 -0.015004
v -0.002801 -0.001077 -0.020004
v -0.002801 -0.001077 -0.015004
v -0.002428 -0.001765 -0.020004
v -0.002428 -0.001765 -0.015004
v -0.002330 0.001886 -0.015004
v -0.001278 0.000781 -0.015004
v -0.000881 0.001210 -0.015004
v -0.001762 0.002425 -0.015004
v -0.002740 0.001218 -0.015004
v -0.002963 0.000468 -0.015004
v -0.001481 0.000232 -0.015004
v -0.002984 -0.000315 -0.015004
v -0.001459 -0.000353 -0.015004
v 0.022209 -0.031597 -0.015004
v 0.022607 -0.031168 -0.015004
v 0.000881 -0.001218 -0.015004
v 0.021598 -0.034712 -0.015004
v 0.022703 -0.033660 -0.015004
v 0.022273 -0.033263 -0.015004
v 0.023799 -0.035366 -0.015004
v 0.023837 -0.033841 -0.015004
v 0.023252 -0.033863 -0.015004
v 0.025818 -0.034271 -0.015004
v 0.024766 -0.033166 -0.015004
v 0.024368 -0.033596 -0.015004
v -0.002801 -0.001077 -0.015004
v -0.002428 -0.001765 -0.015004
v -0.001214 -0.000885 -0.015004
v 0.000349 -0.001463 -0.015004
v 0.022006 -0.032146 -0.015004
v 0.021059 -0.034143 -0.015004
v 0.022029 -0.032731 -0.015004
v 0.022265 -0.035121 -0.015004
v 0.023016 -0.035344 -0.015004
v 0.024561 -0.035183 -0.015004
v 0.025249 -0.034810 -0.015004
v 0.026227 -0.033604 -0.015004
v 0.026450 -0.032853 -0.015004
v 0.024969 -0.032617 -0.015004
v 0.002428 0.001758 -0.015004
v 0.001459 0.000345 -0.015004
v 0.001481 -0.000239 -0.015004
v 0.001890 0.002326 -0.015004
v 0.000785 0.001275 -0.015004
v 0.001214 0.000877 -0.015004
v -0.000785 -0.001282 -0.015004
v -0.000236 -0.001485 -0.015004
v 0.026289 -0.031309 -0.015004
v 0.025916 -0.030620 -0.015004
v 0.024702 -0.031501 -0.015004
v -0.000311 0.002980 -0.015004
v -0.000349 0.001455 -0.015004
v 0.000236 0.001478 -0.015004
v 0.026471 -0.032070 -0.015004
v 0.024946 -0.032033 -0.015004
v 0.023723 -0.030900 -0.015004
v 0.023139 -0.030923 -0.015004
v 0.001278 -0.000788 -0.015004
v 0.001222 0.002736 -0.015004
v 0.000472 0.002959 -0.015004
v -0.001073 0.002798 -0.015004
v 0.024272 -0.031103 -0.015004
v -0.002428 -0.001765 -0.020004
v -0.001214 -0.000885 -0.020004
v 0.022607 -0.031168 -0.020004
v -0.002801 -0.001077 -0.020004
v -0.001459 -0.000353 -0.020004
v 0.022209 -0.031597 -0.020004
v 0.023723 -0.030900 -0.020004
v 0.023139 -0.030923 -0.020004
v -0.002984 -0.000315 -0.020004
v -0.002963 0.000468 -0.020004
v -0.001481 0.000232 -0.020004
v -0.002740 0.001218 -0.020004
v -0.001278 0.000781 -0.020004
v -0.002330 0.001886 -0.020004
v -0.001762 0.002425 -0.020004
v -0.000881 0.001210 -0.020004
v -0.000311 0.002980 -0.020004
v 0.000472 0.002959 -0.020004
v 0.000236 0.001478 -0.020004
v -0.001073 0.002798 -0.020004
v -0.000349 0.001455 -0.020004
v 0.026289 -0.031309 -0.020004
v 0.024946 -0.032033 -0.020004
v 0.024702 -0.031501 -0.020004
v 0.001222 0.002736 -0.020004
v 0.000785 0.001275 -0.020004
v 0.001890 0.002326 -0.020004
v 0.002428 0.001758 -0.020004
v 0.001214 0.000877 -0.020004
v 0.025916 -0.030620 -0.020004
v 0.000881 -0.001218 -0.020004
v 0.021598 -0.034712 -0.020004
v 0.021059 -0.034143 -0.020004
v 0.022273 -0.033263 -0.020004
v 0.001481 -0.000239 -0.020004
v 0.026471 -0.032070 -0.020004
v 0.023799 -0.035366 -0.020004
v 0.023016 -0.035344 -0.020004
v 0.023252 -0.033863 -0.020004
v 0.022265 -0.035121 -0.020004
v 0.022703 -0.033660 -0.020004
v 0.022006 -0.032146 -0.020004
v 0.001459 0.000345 -0.020004
v 0.001278 -0.000788 -0.020004
v 0.026450 -0.032853 -0.020004
v 0.024969 -0.032617 -0.020004
v 0.026227 -0.033604 -0.020004
v 0.024766 -0.033166 -0.020004
v 0.024561 -0.035183 -0.020004
v 0.023837 -0.033841 -0.020004
v 0.024368 -0.033596 -0.020004
v 0.022029 -0.032731 -0.020004
v 0.025818 -0.034271 -0.020004
v 0.025249 -0.034810 -0.020004
v -0.000236 -0.001485 -0.020004
v 0.000349 -0.001463 -0.020004
v 0.024272 -0.031103 -0.020004
v -0.000785 -0.001282 -0.020004
vn -0.0000 -0.0000 -1.0000
vn -0.0000 -0.0000 1.0000
vn -0.0003 -0.0000 1.0000
vn 0.0003 -0.0000 1.0000
vn 0.6299 0.7767 -0.0000
vn 0.8094 0.5872 -0.0000
vn 0.4074 0.9132 -0.0000
vn 0.1572 0.9876 -0.0000
vn -0.1038 0.9946 -0.0000
vn -0.3577 0.9338 -0.0000
vn -0.5872 0.8095 -0.0000
vn -0.7767 0.6299 -0.0000
vn -0.9132 0.4074 -0.0000
vn -0.9876 0.1572 -0.0000
vn -0.9946 -0.1038 -0.0000
vn -0.9338 -0.3577 -0.0000
vn -0.8095 -0.5872 -0.0000
vn -0.6299 -0.7767 -0.0000
vn -0.8094 -0.5872 -0.0000
vn -0.4074 -0.9132 -0.0000
vn -0.1572 -0.9876 -0.0000
vn 0.1038 -0.9946 -0.0000
vn 0.3577 -0.9338 -0.0000
vn 0.5872 -0.8095 -0.0000
vn 0.7767 -0.6299 -0.0000
vn 0.9132 -0.4074 -0.0000
vn 0.9876 -0.1572 -0.0000
vn 0.9946 0.1038 -0.0000
vn 0.9338 0.3577 -0.0000
vn 0.8095 0.5872 -0.0000
vn 0.2327 -0.9725 -0.0000
vn 0.5872 -0.8094 -0.0000
vn -0.5231 -0.8523 -0.0000
vn -0.9725 -0.2327 -0.0000
vn -0.8523 0.5231 -0.0000
vn -0.5872 0.8094 -0.0000
vn -0.2327 0.9725 -0.0000
vn 0.5231 0.8523 -0.0000
vn 0.9725 0.2327 -0.0000
vn 0.8523 -0.5231 -0.0000
vt 0.042898 0.000776
vt 0.041500 0.000000
vt 0.043000 0.000000
vt 0.040000 -0.001500
vt 0.001386 0.000574
vt 0.001500 0.000000
vt 0.000000 0.003000
vt 0.038614 0.000574
vt 0.038939 0.001061
vt 0.000000 0.001500
vt 0.039426 -0.001386
vt 0.038939 -0.001061
vt 0.000574 0.001386
vt 0.001061 0.001061
vt 0.041386 -0.000574
vt 0.042598 -0.001500
vt 0.042898 -0.000776
vt 0.041500 0.002598
vt 0.041061 0.001061
vt 0.042121 0.002121
vt 0.040000 -0.003000
vt 0.001386 -0.000574
vt 0.001061 -0.001061
vt 0.040000 0.003000
vt 0.039426 0.001386
vt 0.040000 0.001500
vt 0.042598 0.001500
vt 0.041386 0.000574
vt 0.041061 -0.001061
vt 0.042121 -0.002121
vt 0.041500 -0.002598
vt 0.040574 -0.001386
vt 0.000000 -0.003000
vt 0.000574 -0.001386
vt 0.000000 -0.001500
vt 0.040776 0.002898
vt 0.040574 0.001386
vt -0.000776 -0.002898
vt -0.000574 -0.001386
vt 0.040776 -0.002898
vt -0.001500 -0.002598
vt -0.001061 -0.001061
vt -0.002121 -0.002121
vt -0.002898 -0.000776
vt -0.001500 0.000000
vt -0.003000 -0.000000
vt -0.002598 -0.001500
vt -0.001386 -0.000574
vt -0.002898 0.000776
vt -0.001386 0.000574
vt -0.002598 0.001500
vt -0.001061 0.001061
vt -0.002121 0.002121
vt -0.001500 0.002598
vt -0.000574 0.001386
vt -0.000776 0.002898
vt 0.038614 -0.000574
vt 0.038500 0.000000
vt 0.001500 0.000000
vt 0.041500 0.000000
vt 4.974188 -0.000000
vt 4.712389 0.005000
vt 4.712389 -0.000000
vt 5.235988 -0.000000
vt 4.974188 0.005000
vt 5.497787 -0.000000
vt 5.235988 0.005000
vt 5.759586 -0.000000
vt 5.497787 0.005000
vt 6.021386 -0.000000
vt 5.759586 0.005000
vt 6.283185 -0.000000
vt 6.021386 0.005000
vt 0.261799 -0.000000
vt 6.283185 0.005000
vt 0.523599 -0.000000
vt 0.261799 0.005000
vt 0.785398 -0.000000
vt 0.523599 0.005000
vt 1.047198 -0.000000
vt 0.785398 0.005000
vt 1.308997 -0.000000
vt 1.047198 0.005000
vt 1.570796 -0.000000
vt 1.308997 0.005000
vt 1.570796 0.005000
vt -0.005000 0.040000
vt 0.000000 0.000000
vt -0.005000 0.000000
vt 0.000000 0.040000
vt 1.832596 0.000000
vt 2.094395 0.000000
vt 1.832596 0.005000
vt 2.356194 0.000000
vt 2.094395 0.005000
vt 2.617994 0.000000
vt 2.356194 0.005000
vt 2.879793 0.000000
vt 2.617994 0.005000
vt 3.141593 0.000000
vt 2.879793 0.005000
vt 3.403392 0.000000
vt 3.141593 0.005000
vt 3.665191 0.000000
vt 3.403392 0.005000
vt 3.926991 0.000000
vt 3.665191 0.005000
vt 4.188790 0.000000
vt 3.926991 0.005000
vt 4.450590 0.000000
vt 4.188790 0.005000
vt 4.450590 0.005000
vt 0.005000 0.000000
vt 0.005000 0.040000
vt -0.392699 0.005000
vt -0.392699 -0.000000
vt 5.105088 0.005000
vt 5.105088 -0.000000
vt 4.319690 0.005000
vt 4.319690 -0.000000
vt 3.534292 0.005000
vt 3.534292 -0.000000
vt 2.748893 0.005000
vt 2.748893 -0.000000
vt 1.963495 0.005000
vt 1.963495 -0.000000
vt 1.178097 0.005000
vt 1.178097 -0.000000
vt 0.392699 0.005000
vt 0.392699 -0.000000
vt 0.000000 0.005000
s 1
usemtl mat1.013
f 231/1/1 233/2/1 236/3/1
f 206/4/1 238/5/1 213/6/1
f 183/7/1 188/8/1 224/9/1
f 184/10/1 239/11/1 189/12/1
f 239/11/1 240/13/1 206/4/1
f 237/14/1 206/4/1 240/13/1
f 230/15/1 229/16/1 235/17/1
f 222/18/1 221/19/1 220/20/1
f 240/13/1 239/11/1 184/10/1
f 238/5/1 206/4/1 237/14/1
f 235/17/1 233/2/1 230/15/1
f 212/21/1 226/22/1 217/23/1
f 215/24/1 234/25/1 216/26/1
f 219/27/1 221/19/1 232/28/1
f 233/2/1 235/17/1 236/3/1
f 229/16/1 228/29/1 227/30/1
f 218/31/1 228/29/1 205/32/1
f 210/33/1 225/34/1 211/35/1
f 215/24/1 224/9/1 234/25/1
f 214/36/1 216/26/1 223/37/1
f 219/27/1 232/28/1 231/1/1
f 233/2/1 231/1/1 232/28/1
f 228/29/1 229/16/1 230/15/1
f 228/29/1 218/31/1 227/30/1
f 212/21/1 213/6/1 226/22/1
f 210/33/1 217/23/1 225/34/1
f 209/38/1 211/35/1 208/39/1
f 224/9/1 215/24/1 183/7/1
f 214/36/1 223/37/1 222/18/1
f 221/19/1 222/18/1 223/37/1
f 221/19/1 219/27/1 220/20/1
f 205/32/1 204/40/1 218/31/1
f 217/23/1 210/33/1 212/21/1
f 209/38/1 208/39/1 207/41/1
f 207/41/1 201/42/1 200/43/1
f 216/26/1 214/36/1 215/24/1
f 204/40/1 206/4/1 212/21/1
f 213/6/1 212/21/1 206/4/1
f 211/35/1 209/38/1 210/33/1
f 201/42/1 207/41/1 208/39/1
f 202/44/1 198/45/1 197/46/1
f 206/4/1 204/40/1 205/32/1
f 199/47/1 201/42/1 203/48/1
f 196/49/1 198/45/1 195/50/1
f 199/47/1 203/48/1 202/44/1
f 198/45/1 202/44/1 203/48/1
f 196/49/1 195/50/1 194/51/1
f 194/51/1 193/52/1 192/53/1
f 201/42/1 199/47/1 200/43/1
f 198/45/1 196/49/1 197/46/1
f 193/52/1 194/51/1 195/50/1
f 191/54/1 193/52/1 187/55/1
f 191/54/1 187/55/1 186/56/1
f 184/10/1 190/57/1 185/58/1
f 193/52/1 191/54/1 192/53/1
f 190/57/1 184/10/1 189/12/1
f 183/7/1 185/58/1 188/8/1
f 186/56/1 184/10/1 183/7/1
f 184/10/1 186/56/1 187/55/1
f 185/58/1 183/7/1 184/10/1
f 126/50/2 125/49/2 129/51/2
f 178/22/2 177/57/2 176/12/2
f 160/33/2 162/23/2 176/12/2
f 174/31/2 159/29/2 158/30/2
f 172/48/2 171/47/2 181/44/2
f 178/22/2 176/12/2 162/23/2
f 169/21/2 182/11/2 170/4/2
f 151/24/2 150/9/2 147/7/2
f 181/44/2 127/45/2 172/48/2
f 179/41/2 173/42/2 164/39/2
f 177/57/2 136/59/2 135/58/2
f 169/21/2 176/12/2 182/11/2
f 168/40/2 170/4/2 175/32/2
f 141/28/2 140/27/2 155/1/2
f 147/7/2 167/14/2 166/13/2
f 127/45/2 181/44/2 128/46/2
f 171/47/2 173/42/2 180/43/2
f 173/42/2 179/41/2 180/43/2
f 164/39/2 163/38/2 179/41/2
f 136/59/2 177/57/2 178/22/2
f 176/12/2 169/21/2 160/33/2
f 168/40/2 175/32/2 174/31/2
f 159/29/2 174/31/2 175/32/2
f 144/15/2 143/17/2 157/16/2
f 138/37/2 137/36/2 153/18/2
f 150/9/2 149/5/2 167/14/2
f 146/56/2 148/10/2 133/55/2
f 173/42/2 171/47/2 172/48/2
f 163/38/2 165/35/2 160/33/2
f 161/34/3 160/33/2 165/35/2
f 170/4/2 168/40/2 169/21/2
f 157/16/2 159/29/2 144/15/2
f 155/1/2 145/60/2 141/28/2
f 153/18/2 142/19/2 138/37/2
f 152/25/4 151/24/2 139/26/2
f 134/8/2 136/59/2 149/5/2
f 167/14/2 147/7/2 150/9/2
f 148/10/2 147/7/2 166/13/2
f 133/55/2 132/54/2 146/56/2
f 165/35/2 163/38/2 164/39/2
f 162/23/2 160/33/2 161/34/3
f 159/29/2 157/16/2 158/30/2
f 143/17/2 145/60/2 156/3/2
f 145/60/2 155/1/2 156/3/2
f 140/27/2 142/19/2 154/20/2
f 142/19/2 153/18/2 154/20/2
f 137/36/2 139/26/2 151/24/2
f 150/9/2 151/24/2 152/25/4
f 134/8/2 149/5/2 150/9/2
f 148/10/2 146/56/2 147/7/2
f 132/54/2 131/52/2 130/53/2
f 129/51/2 131/52/2 126/50/2
f 145/60/2 143/17/2 144/15/2
f 142/19/2 140/27/2 141/28/2
f 139/26/2 137/36/2 138/37/2
f 136/59/2 134/8/2 135/58/2
f 127/45/2 125/49/2 126/50/2
f 125/49/2 127/45/2 128/46/2
f 131/52/2 129/51/2 130/53/2
f 131/52/2 132/54/2 133/55/2
f 101/61/5 99/62/6 100/63/6
f 103/64/7 102/65/5 101/61/5
f 105/66/8 104/67/7 103/64/7
f 107/68/9 106/69/8 105/66/8
f 109/70/10 108/71/9 107/68/9
f 111/72/11 110/73/10 109/70/10
f 113/74/12 112/75/11 111/72/11
f 115/76/13 114/77/12 113/74/12
f 117/78/14 116/79/13 115/76/13
f 119/80/15 118/81/14 117/78/14
f 121/82/16 120/83/15 119/80/15
f 123/84/17 122/85/16 121/82/16
f 122/85/16 123/84/17 124/86/17
f 120/83/15 121/82/16 122/85/16
f 118/81/14 119/80/15 120/83/15
f 116/79/13 117/78/14 118/81/14
f 114/77/12 115/76/13 116/79/13
f 112/75/11 113/74/12 114/77/12
f 110/73/10 111/72/11 112/75/11
f 108/71/9 109/70/10 110/73/10
f 106/69/8 107/68/9 108/71/9
f 104/67/7 105/66/8 106/69/8
f 102/65/5 103/64/7 104/67/7
f 99/62/6 101/61/5 102/65/5
f 95/87/6 97/88/6 98/89/6
f 97/88/6 95/87/6 96/90/6
f 71/91/18 69/86/19 70/84/19
f 73/92/20 72/93/18 71/91/18
f 75/94/21 74/95/20 73/92/20
f 77/96/22 76/97/21 75/94/21
f 79/98/23 78/99/22 77/96/22
f 81/100/24 80/101/23 79/98/23
f 83/102/25 82/103/24 81/100/24
f 85/104/26 84/105/25 83/102/25
f 87/106/27 86/107/26 85/104/26
f 89/108/28 88/109/27 87/106/27
f 91/110/29 90/111/28 89/108/28
f 93/63/30 92/112/29 91/110/29
f 92/112/29 93/63/30 94/62/30
f 90/111/28 91/110/29 92/112/29
f 88/109/27 89/108/28 90/111/28
f 86/107/26 87/106/27 88/109/27
f 84/105/25 85/104/26 86/107/26
f 82/103/24 83/102/25 84/105/25
f 80/101/23 81/100/24 82/103/24
f 78/99/22 79/98/23 80/101/23
f 76/97/21 77/96/22 78/99/22
f 74/95/20 75/94/21 76/97/21
f 72/93/18 73/92/20 74/95/20
f 69/86/19 71/91/18 72/93/18
f 65/90/19 67/113/19 68/88/19
f 67/113/19 65/90/19 66/114/19
f 33/115/31 35/88/32 37/116/31
f 36/69/21 37/116/31 39/66/21
f 38/117/33 39/66/21 41/118/33
f 40/62/17 41/118/33 43/63/17
f 42/119/34 43/63/17 45/120/34
f 44/109/14 45/120/34 47/106/14
f 46/121/35 47/106/14 49/122/35
f 48/103/36 49/122/35 51/100/11
f 50/123/37 51/100/11 53/124/37
f 52/97/8 53/124/37 55/94/8
f 54/125/38 55/94/8 57/126/38
f 56/86/30 57/126/38 59/84/30
f 58/127/39 59/84/30 61/128/39
f 60/81/27 61/128/39 63/78/27
f 62/129/40 63/78/27 64/130/40
f 34/131/32 64/130/40 35/88/32
f 64/130/40 34/131/32 62/129/40
f 63/78/27 62/129/40 60/81/27
f 61/128/39 60/81/27 58/127/39
f 59/84/30 58/127/39 56/86/30
f 57/126/38 56/86/30 54/125/38
f 55/94/8 54/125/38 52/97/8
f 53/124/37 52/97/8 50/123/37
f 51/100/11 50/123/37 48/103/36
f 49/122/35 48/103/36 46/121/35
f 47/106/14 46/121/35 44/109/14
f 45/120/34 44/109/14 42/119/34
f 43/63/17 42/119/34 40/62/17
f 41/118/33 40/62/17 38/117/33
f 39/66/21 38/117/33 36/69/21
f 37/116/31 36/69/21 33/115/31
f 35/88/32 33/115/31 34/131/32
f 1/115/31 3/88/24 5/116/31
f 4/69/21 5/116/31 7/66/21
f 6/117/33 7/66/21 9/118/33
f 8/62/17 9/118/33 11/63/17
f 10/119/34 11/63/17 13/120/34
f 12/109/14 13/120/34 15/106/14
f 14/121/35 15/106/14 17/122/35
f 16/103/36 17/122/35 19/100/36
f 18/123/37 19/100/36 21/124/37
f 20/97/8 21/124/37 23/94/8
f 22/125/38 23/94/8 25/126/38
f 24/86/6 25/126/38 27/84/30
f 26/127/39 27/84/30 29/128/39
f 28/81/27 29/128/39 31/78/27
f 30/129/40 31/78/27 32/130/40
f 2/131/24 32/130/40 3/88/24
f 32/130/40 2/131/24 30/129/40
f 31/78/27 30/129/40 28/81/27
f 29/128/39 28/81/27 26/127/39
f 27/84/30 26/127/39 24/86/6
f 25/126/38 24/86/6 22/125/38
f 23/94/8 22/125/38 20/97/8
f 21/124/37 20/97/8 18/123/37
f 19/100/36 18/123/37 16/103/36
f 17/122/35 16/103/36 14/121/35
f 15/106/14 14/121/35 12/109/14
f 13/120/34 12/109/14 10/119/34
f 11/63/17 10/119/34 8/62/17
f 9/118/33 8/62/17 6/117/33
f 7/66/21 6/117/33 4/69/21
f 5/116/31 4/69/21 1/115/31
f 3/88/24 1/115/31 2/131/24
f 471/1/1 473/2/1 476/3/1
f 446/4/1 478/5/1 453/6/1
f 423/7/1 428/8/1 464/9/1
f 424/10/1 479/11/1 429/12/1
f 479/11/1 480/13/1 446/4/1
f 477/14/1 446/4/1 480/13/1
f 470/15/1 469/16/1 475/17/1
f 462/18/1 461/19/1 460/20/1
f 480/13/1 479/11/1 424/10/1
f 478/5/1 446/4/1 477/14/1
f 475/17/1 473/2/1 470/15/1
f 452/21/1 466/22/1 457/23/1
f 455/24/1 474/25/1 456/26/1
f 459/27/1 461/19/1 472/28/1
f 473/2/1 475/17/1 476/3/1
f 469/16/1 468/29/1 467/30/1
f 458/31/1 468/29/1 445/32/1
f 450/33/1 465/34/1 451/35/1
f 455/24/1 464/9/1 474/25/1
f 454/36/1 456/26/1 463/37/1
f 459/27/1 472/28/1 471/1/1
f 473/2/1 471/1/1 472/28/1
f 468/29/1 469/16/1 470/15/1
f 468/29/1 458/31/1 467/30/1
f 452/21/1 453/6/1 466/22/1
f 450/33/1 457/23/1 465/34/1
f 449/38/1 451/35/1 448/39/1
f 464/9/1 455/24/1 423/7/1
f 454/36/1 463/37/1 462/18/1
f 461/19/1 462/18/1 463/37/1
f 461/19/1 459/27/1 460/20/1
f 445/32/1 444/40/1 458/31/1
f 457/23/1 450/33/1 452/21/1
f 449/38/1 448/39/1 447/41/1
f 447/41/1 441/42/1 440/43/1
f 456/26/1 454/36/1 455/24/1
f 444/40/1 446/4/1 452/21/1
f 453/6/1 452/21/1 446/4/1
f 451/35/1 449/38/1 450/33/1
f 441/42/1 447/41/1 448/39/1
f 442/44/1 438/45/1 437/46/1
f 446/4/1 444/40/1 445/32/1
f 439/47/1 441/42/1 443/48/1
f 436/49/1 438/45/1 435/50/1
f 439/47/1 443/48/1 442/44/1
f 438/45/1 442/44/1 443/48/1
f 436/49/1 435/50/1 434/51/1
f 434/51/1 433/52/1 432/53/1
f 441/42/1 439/47/1 440/43/1
f 438/45/1 436/49/1 437/46/1
f 433/52/1 434/51/1 435/50/1
f 431/54/1 433/52/1 427/55/1
f 431/54/1 427/55/1 426/56/1
f 424/10/1 430/57/1 425/58/1
f 433/52/1 431/54/1 432/53/1
f 430/57/1 424/10/1 429/12/1
f 423/7/1 425/58/1 428/8/1
f 426/56/1 424/10/1 423/7/1
f 424/10/1 426/56/1 427/55/1
f 425/58/1 423/7/1 424/10/1
f 366/50/2 365/49/2 369/51/2
f 418/22/2 417/57/2 416/12/2
f 400/33/2 402/23/2 416/12/2
f 414/31/2 399/29/2 398/30/2
f 412/48/2 411/47/2 421/44/2
f 418/22/2 416/12/2 402/23/2
f 409/21/2 422/11/2 410/4/2
f 391/24/2 390/9/2 387/7/2
f 421/44/2 367/45/2 412/48/2
f 419/41/2 413/42/2 404/39/2
f 417/57/2 376/59/2 375/58/2
f 409/21/2 416/12/2 422/11/2
f 408/40/2 410/4/2 415/32/2
f 381/28/2 380/27/2 395/1/2
f 387/7/2 407/14/2 406/13/2
f 367/45/2 421/44/2 368/46/2
f 411/47/2 413/42/2 420/43/2
f 413/42/2 419/41/2 420/43/2
f 404/39/2 403/38/2 419/41/2
f 376/59/2 417/57/2 418/22/2
f 416/12/2 409/21/2 400/33/2
f 408/40/2 415/32/2 414/31/2
f 399/29/2 414/31/2 415/32/2
f 384/15/2 383/17/2 397/16/2
f 378/37/2 377/36/2 393/18/2
f 390/9/2 389/5/2 407/14/2
f 386/56/2 388/10/2 373/55/2
f 413/42/2 411/47/2 412/48/2
f 403/38/2 405/35/2 400/33/2
f 401/34/2 400/33/2 405/35/2
f 410/4/2 408/40/2 409/21/2
f 397/16/2 399/29/2 384/15/2
f 395/1/2 385/60/2 381/28/2
f 393/18/2 382/19/2 378/37/2
f 392/25/2 391/24/2 379/26/2
f 374/8/2 376/59/2 389/5/2
f 407/14/2 387/7/2 390/9/2
f 388/10/2 387/7/2 406/13/2
f 373/55/2 372/54/2 386/56/2
f 405/35/2 403/38/2 404/39/2
f 402/23/2 400/33/2 401/34/2
f 399/29/2 397/16/2 398/30/2
f 383/17/2 385/60/2 396/3/2
f 385/60/2 395/1/2 396/3/2
f 380/27/2 382/19/2 394/20/2
f 382/19/2 393/18/2 394/20/2
f 377/36/2 379/26/2 391/24/2
f 390/9/2 391/24/2 392/25/2
f 374/8/2 389/5/2 390/9/2
f 388/10/2 386/56/2 387/7/2
f 372/54/2 371/52/2 370/53/2
f 369/51/2 371/52/2 366/50/2
f 385/60/2 383/17/2 384/15/2
f 382/19/2 380/27/2 381/28/2
f 379/26/2 377/36/2 378/37/2
f 376/59/2 374/8/2 375/58/2
f 367/45/2 365/49/2 366/50/2
f 365/49/2 367/45/2 368/46/2
f 371/52/2 369/51/2 370/53/2
f 371/52/2 372/54/2 373/55/2
f 341/61/5 339/62/6 340/63/6
f 343/64/7 342/65/5 341/61/5
f 345/66/8 344/67/7 343/64/7
f 347/68/9 346/69/8 345/66/8
f 349/70/10 348/71/9 347/68/9
f 351/72/11 350/73/10 349/70/10
f 353/74/12 352/75/11 351/72/11
f 355/76/13 354/77/12 353/74/12
f 357/78/14 356/79/13 355/76/13
f 359/80/15 358/81/14 357/78/14
f 361/82/16 360/83/15 359/80/15
f 363/84/17 362/85/16 361/82/16
f 362/85/16 363/84/17 364/86/17
f 360/83/15 361/82/16 362/85/16
f 358/81/14 359/80/15 360/83/15
f 356/79/13 357/78/14 358/81/14
f 354/77/12 355/76/13 356/79/13
f 352/75/11 353/74/12 354/77/12
f 350/73/10 351/72/11 352/75/11
f 348/71/9 349/70/10 350/73/10
f 346/69/8 347/68/9 348/71/9
f 344/67/7 345/66/8 346/69/8
f 342/65/5 343/64/7 344/67/7
f 339/62/6 341/61/5 342/65/5
f 335/87/6 337/88/6 338/89/6
f 337/88/6 335/87/6 336/90/6
f 311/91/18 309/86/19 310/84/19
f 313/92/20 312/93/18 311/91/18
f 315/94/21 314/95/20 313/92/20
f 317/96/22 316/97/21 315/94/21
f 319/98/23 318/99/22 317/96/22
f 321/100/24 320/101/23 319/98/23
f 323/102/25 322/103/24 321/100/24
f 325/104/26 324/105/25 323/102/25
f 327/106/27 326/107/26 325/104/26
f 329/108/28 328/109/27 327/106/27
f 331/110/29 330/111/28 329/108/28
f 333/63/30 332/112/29 331/110/29
f 332/112/29 333/63/30 334/62/30
f 330/111/28 331/110/29 332/112/29
f 328/109/27 329/108/28 330/111/28
f 326/107/26 327/106/27 328/109/27
f 324/105/25 325/104/26 326/107/26
f 322/103/24 323/102/25 324/105/25
f 320/101/23 321/100/24 322/103/24
f 318/99/22 319/98/23 320/101/23
f 316/97/21 317/96/22 318/99/22
f 314/95/20 315/94/21 316/97/21
f 312/93/18 313/92/20 314/95/20
f 309/86/19 311/91/18 312/93/18
f 305/90/19 307/113/19 308/88/19
f 307/113/19 305/90/19 306/114/19
f 273/115/31 275/88/32 277/116/31
f 276/69/21 277/116/31 279/66/21
f 278/117/33 279/66/21 281/118/33
f 280/62/17 281/118/33 283/63/17
f 282/119/34 283/63/17 285/120/34
f 284/109/14 285/120/34 287/106/14
f 286/121/35 287/106/14 289/122/35
f 288/103/36 289/122/35 291/100/36
f 290/123/37 291/100/36 293/124/37
f 292/97/8 293/124/37 295/94/8
f 294/125/38 295/94/8 297/126/38
f 296/86/30 297/126/38 299/84/30
f 298/127/39 299/84/30 301/128/39
f 300/81/27 301/128/39 303/78/27
f 302/129/40 303/78/27 304/130/40
f 274/131/32 304/130/40 275/88/32
f 304/130/40 274/131/32 302/129/40
f 303/78/27 302/129/40 300/81/27
f 301/128/39 300/81/27 298/127/39
f 299/84/30 298/127/39 296/86/30
f 297/126/38 296/86/30 294/125/38
f 295/94/8 294/125/38 292/97/8
f 293/124/37 292/97/8 290/123/37
f 291/100/36 290/123/37 288/103/36
f 289/122/35 288/103/36 286/121/35
f 287/106/14 286/121/35 284/109/14
f 285/120/34 284/109/14 282/119/34
f 283/63/17 282/119/34 280/62/17
f 281/118/33 280/62/17 278/117/33
f 279/66/21 278/117/33 276/69/21
f 277/116/31 276/69/21 273/115/31
f 275/88/32 273/115/31 274/131/32
f 241/115/31 243/88/24 245/116/31
f 244/69/21 245/116/31 247/66/21
f 246/117/33 247/66/21 249/118/33
f 248/62/17 249/118/33 251/63/17
f 250/119/34 251/63/17 253/120/34
f 252/109/14 253/120/34 255/106/14
f 254/121/35 255/106/14 257/122/35
f 256/103/36 257/122/35 259/100/36
f 258/123/37 259/100/36 261/124/37
f 260/97/8 261/124/37 263/94/8
f 262/125/38 263/94/8 265/126/38
f 264/86/6 265/126/38 267/84/30
f 266/127/39 267/84/30 269/128/39
f 268/81/27 269/128/39 271/78/27
f 270/129/40 271/78/27 272/130/40
f 242/131/24 272/130/40 243/88/24
f 272/130/40 242/131/24 270/129/40
f 271/78/27 270/129/40 268/81/27
f 269/128/39 268/81/27 266/127/39
f 267/84/30 266/127/39 264/86/6
f 265/126/38 264/86/6 262/125/38
f 263/94/8 262/125/38 260/97/8
f 261/124/37 260/97/8 258/123/37
f 259/100/36 258/123/37 256/103/36
f 257/122/35 256/103/36 254/121/35
f 255/106/14 254/121/35 252/109/14
f 253/120/34 252/109/14 250/119/34
f 251/63/17 250/119/34 248/62/17
f 249/118/33 248/62/17 246/117/33
f 247/66/21 246/117/33 244/69/21
f 245/116/31 244/69/21 241/115/31
f 243/88/24 241/115/31 242/131/24
