# Blender 4.5.4 LTS
# www.blender.org
mtllib G_R1.mtl
o G_R1
v 0.009360 -0.001552 0.002496
v 0.009360 -0.001552 -0.002504
v 0.009832 -0.001341 -0.002504
v 0.009832 -0.001341 0.002496
v 0.010136 -0.000922 -0.002504
v 0.010136 -0.000922 0.002496
v 0.010190 -0.000407 -0.002504
v 0.010190 -0.000407 0.002496
v 0.008417 0.004373 -0.002504
v 0.008417 0.004373 0.002496
v 0.008932 0.004320 0.002496
v 0.008932 0.004320 -0.002504
v 0.009351 0.004016 0.002496
v 0.009351 0.004016 -0.002504
v 0.009561 0.003543 0.002496
v 0.009561 0.003543 -0.002504
v 0.009561 0.003543 -0.002504
v 0.009561 0.003543 0.002496
v 0.010190 -0.000407 0.002496
v 0.010190 -0.000407 -0.002504
v 0.022714 0.003611 -0.002504
v 0.022424 0.004503 -0.002504
v 0.021143 0.003699 -0.002504
v 0.022715 0.002672 -0.002504
v 0.021248 0.003040 -0.002504
v 0.021057 0.002400 -0.002504
v 0.021871 0.005262 -0.002504
v 0.020763 0.004247 -0.002504
v 0.021112 0.005814 -0.002504
v 0.020182 0.004576 -0.002504
v 0.009561 0.003543 -0.002504
v 0.010190 -0.000407 -0.002504
v 0.018360 0.002580 -0.002504
v 0.009351 0.004016 -0.002504
v 0.018446 0.003879 -0.002504
v 0.018896 0.004372 -0.002504
v 0.018255 0.003239 -0.002504
v 0.020219 0.006103 -0.002504
v 0.019280 0.006102 -0.002504
v 0.019516 0.004621 -0.002504
v 0.010136 -0.000922 -0.002504
v 0.020223 0.000177 -0.002504
v 0.019321 0.001703 -0.002504
v 0.021874 0.001020 -0.002504
v 0.022426 0.001779 -0.002504
v 0.018740 0.002032 -0.002504
v 0.021115 0.000467 -0.002504
v 0.020607 0.001907 -0.002504
v 0.019987 0.001658 -0.002504
v 0.009832 -0.001341 -0.002504
v 0.008417 0.004373 -0.002504
v 0.008932 0.004320 -0.002504
v 0.009360 -0.001552 -0.002504
v 0.022714 0.003611 0.002496
v 0.021248 0.003040 0.002496
v 0.021143 0.003699 0.002496
v 0.022424 0.004503 0.002496
v 0.020763 0.004247 0.002496
v 0.009561 0.003543 0.002496
v 0.018255 0.003239 0.002496
v 0.018360 0.002580 0.002496
v 0.021112 0.005814 0.002496
v 0.021871 0.005262 0.002496
v 0.022715 0.002672 0.002496
v 0.022426 0.001779 0.002496
v 0.021057 0.002400 0.002496
v 0.010136 -0.000922 0.002496
v 0.018740 0.002032 0.002496
v 0.019321 0.001703 0.002496
v 0.010190 -0.000407 0.002496
v 0.020182 0.004576 0.002496
v 0.020219 0.006103 0.002496
v 0.019516 0.004621 0.002496
v 0.021874 0.001020 0.002496
v 0.020607 0.001907 0.002496
v 0.009351 0.004016 0.002496
v 0.021115 0.000467 0.002496
v 0.020223 0.000177 0.002496
v 0.019987 0.001658 0.002496
v 0.018446 0.003879 0.002496
v 0.019280 0.006102 0.002496
v 0.018896 0.004372 0.002496
v 0.008932 0.004320 0.002496
v 0.009832 -0.001341 0.002496
v 0.009360 -0.001552 0.002496
v 0.008417 0.004373 0.002496
v 0.001508 -0.003209 0.009996
v 0.000969 -0.003777 0.009996
v 0.000969 -0.003777 -0.010004
v 0.002175 -0.002799 0.009996
v 0.001508 -0.003209 -0.010004
v 0.002926 -0.002576 0.009996
v 0.002175 -0.002799 -0.010004
v 0.002926 -0.002576 -0.010004
v -0.001222 0.002736 0.009996
v -0.000855 0.001229 0.009996
v -0.000236 0.001478 0.009996
v -0.000471 0.002959 0.009996
v 0.018446 0.003879 0.009996
v 0.018896 0.004372 0.009996
v 0.018360 0.002580 0.009996
v 0.018255 0.003239 0.009996
v -0.001890 0.002326 0.009996
v 0.022714 0.003611 0.009996
v 0.022424 0.004503 0.009996
v 0.021143 0.003699 0.009996
v 0.019321 0.001703 0.009996
v 0.018740 0.002032 0.009996
v 0.022715 0.002672 0.009996
v 0.021248 0.003040 0.009996
v 0.021057 0.002400 0.009996
v -0.002428 0.001758 0.009996
v -0.001305 0.000736 0.009996
v 0.021874 0.001020 0.009996
v 0.022426 0.001779 0.009996
v 0.021871 0.005262 0.009996
v 0.020763 0.004247 0.009996
v 0.021112 0.005814 0.009996
v 0.020182 0.004576 0.009996
v -0.023723 -0.030900 0.009996
v -0.001392 -0.000563 0.009996
v -0.001497 0.000096 0.009996
v 0.001497 -0.000104 0.009996
v 0.020223 0.000177 0.009996
v 0.021115 0.000467 0.009996
v 0.020607 0.001907 0.009996
v 0.019987 0.001658 0.009996
v -0.001011 -0.001112 0.009996
v -0.023057 -0.030945 0.009996
v -0.022476 -0.031274 0.009996
v 0.001305 -0.000743 0.009996
v 0.002926 -0.002576 0.009996
v 0.020219 0.006103 0.009996
v 0.019280 0.006102 0.009996
v 0.019516 0.004621 0.009996
v 0.001508 -0.003209 0.009996
v 0.002175 -0.002799 0.009996
v 0.000855 -0.001236 0.009996
v 0.001392 0.000556 0.009996
v -0.026341 -0.031457 0.009996
v -0.026488 -0.032384 0.009996
v -0.024984 -0.032282 0.009996
v -0.021059 -0.034143 0.009996
v 0.000969 -0.003777 0.009996
v -0.021991 -0.032482 0.009996
v -0.000430 -0.001441 0.009996
v 0.000236 -0.001485 0.009996
v 0.001011 0.001104 0.009996
v 0.000430 0.001433 0.009996
v -0.024793 -0.031642 0.009996
v -0.025916 -0.030620 0.009996
v -0.026340 -0.033311 0.009996
v -0.024879 -0.032941 0.009996
v -0.025913 -0.034147 0.009996
v -0.024499 -0.033490 0.009996
v -0.022558 -0.035234 0.009996
v -0.021722 -0.034807 0.009996
v -0.022632 -0.033614 0.009996
v -0.022182 -0.033121 0.009996
v -0.022096 -0.031822 0.009996
v -0.024343 -0.031149 0.009996
v -0.023485 -0.035382 0.009996
v -0.023252 -0.033863 0.009996
v -0.023918 -0.033819 0.009996
v -0.025249 -0.034810 0.009996
v -0.024412 -0.035236 0.009996
v 0.019321 0.001703 -0.010004
v 0.020223 0.000177 -0.010004
v 0.002926 -0.002576 -0.010004
v 0.000236 -0.001485 -0.010004
v 0.000969 -0.003777 -0.010004
v -0.000430 -0.001441 -0.010004
v 0.019987 0.001658 -0.010004
v 0.001508 -0.003209 -0.010004
v 0.002175 -0.002799 -0.010004
v 0.021874 0.001020 -0.010004
v 0.020607 0.001907 -0.010004
v 0.021057 0.002400 -0.010004
v 0.021115 0.000467 -0.010004
v 0.022426 0.001779 -0.010004
v -0.022476 -0.031274 -0.010004
v -0.001011 -0.001112 -0.010004
v 0.001497 -0.000104 -0.010004
v 0.001392 0.000556 -0.010004
v 0.018255 0.003239 -0.010004
v 0.021112 0.005814 -0.010004
v 0.021871 0.005262 -0.010004
v 0.020763 0.004247 -0.010004
v -0.023057 -0.030945 -0.010004
v -0.023723 -0.030900 -0.010004
v -0.002428 0.001758 -0.010004
v -0.001497 0.000096 -0.010004
v 0.018360 0.002580 -0.010004
v 0.020182 0.004576 -0.010004
v 0.020219 0.006103 -0.010004
v 0.022424 0.004503 -0.010004
v 0.021143 0.003699 -0.010004
v 0.022714 0.003611 -0.010004
v 0.021248 0.003040 -0.010004
v -0.001392 -0.000563 -0.010004
v 0.001305 -0.000743 -0.010004
v 0.018740 0.002032 -0.010004
v 0.001011 0.001104 -0.010004
v 0.019280 0.006102 -0.010004
v 0.018896 0.004372 -0.010004
v 0.000430 0.001433 -0.010004
v 0.018446 0.003879 -0.010004
v 0.022715 0.002672 -0.010004
v -0.001305 0.000736 -0.010004
v -0.001890 0.002326 -0.010004
v -0.000855 0.001229 -0.010004
v -0.001222 0.002736 -0.010004
v -0.000471 0.002959 -0.010004
v -0.000236 0.001478 -0.010004
v 0.019516 0.004621 -0.010004
v 0.000855 -0.001236 -0.010004
v -0.025913 -0.034147 -0.010004
v -0.026340 -0.033311 -0.010004
v -0.024879 -0.032941 -0.010004
v -0.023485 -0.035382 -0.010004
v -0.024412 -0.035236 -0.010004
v -0.023918 -0.033819 -0.010004
v -0.024499 -0.033490 -0.010004
v -0.025249 -0.034810 -0.010004
v -0.026488 -0.032384 -0.010004
v -0.024984 -0.032282 -0.010004
v -0.026341 -0.031457 -0.010004
v -0.024793 -0.031642 -0.010004
v -0.021991 -0.032482 -0.010004
v -0.022096 -0.031822 -0.010004
v -0.021059 -0.034143 -0.010004
v -0.022182 -0.033121 -0.010004
v -0.023252 -0.033863 -0.010004
v -0.022558 -0.035234 -0.010004
v -0.021722 -0.034807 -0.010004
v -0.022632 -0.033614 -0.010004
v -0.025916 -0.030620 -0.010004
v -0.024343 -0.031149 -0.010004
v 0.019321 0.001703 -0.002504
v 0.019987 0.001658 -0.002504
v 0.019987 0.001658 -0.010004
v 0.018740 0.002032 -0.002504
v 0.019321 0.001703 -0.010004
v 0.018360 0.002580 -0.002504
v 0.018740 0.002032 -0.010004
v 0.018255 0.003239 -0.002504
v 0.018360 0.002580 -0.010004
v 0.018446 0.003879 -0.002504
v 0.018255 0.003239 -0.010004
v 0.018896 0.004372 -0.002504
v 0.018446 0.003879 -0.010004
v 0.019516 0.004621 -0.002504
v 0.018896 0.004372 -0.010004
v 0.020182 0.004576 -0.002504
v 0.019516 0.004621 -0.010004
v 0.020763 0.004247 -0.002504
v 0.020182 0.004576 -0.010004
v 0.021143 0.003699 -0.002504
v 0.020763 0.004247 -0.010004
v 0.021248 0.003040 -0.002504
v 0.021143 0.003699 -0.010004
v 0.021057 0.002400 -0.002504
v 0.021248 0.003040 -0.010004
v 0.020607 0.001907 -0.002504
v 0.021057 0.002400 -0.010004
v 0.020607 0.001907 -0.010004
v -0.025916 -0.030620 0.009996
v -0.025916 -0.030620 -0.010004
v -0.026341 -0.031457 -0.010004
v -0.026341 -0.031457 0.009996
v -0.026488 -0.032384 -0.010004
v -0.026488 -0.032384 0.009996
v -0.026340 -0.033311 -0.010004
v -0.026340 -0.033311 0.009996
v -0.025913 -0.034147 -0.010004
v -0.025913 -0.034147 0.009996
v -0.025249 -0.034810 -0.010004
v -0.025249 -0.034810 0.009996
v -0.024412 -0.035236 -0.010004
v -0.024412 -0.035236 0.009996
v -0.023485 -0.035382 -0.010004
v -0.023485 -0.035382 0.009996
v -0.022558 -0.035234 -0.010004
v -0.022558 -0.035234 0.009996
v -0.021722 -0.034807 -0.010004
v -0.021722 -0.034807 0.009996
v -0.021059 -0.034143 -0.010004
v -0.021059 -0.034143 0.009996
v -0.023918 -0.033819 0.009996
v -0.023252 -0.033863 0.009996
v -0.023252 -0.033863 -0.010004
v -0.024499 -0.033490 0.009996
v -0.023918 -0.033819 -0.010004
v -0.024879 -0.032941 0.009996
v -0.024499 -0.033490 -0.010004
v -0.024984 -0.032282 0.009996
v -0.024879 -0.032941 -0.010004
v -0.024793 -0.031642 0.009996
v -0.024984 -0.032282 -0.010004
v -0.024343 -0.031149 0.009996
v -0.024793 -0.031642 -0.010004
v -0.023723 -0.030900 0.009996
v -0.024343 -0.031149 -0.010004
v -0.023057 -0.030945 0.009996
v -0.023723 -0.030900 -0.010004
v -0.022476 -0.031274 0.009996
v -0.023057 -0.030945 -0.010004
v -0.022096 -0.031822 0.009996
v -0.022476 -0.031274 -0.010004
v -0.021991 -0.032482 0.009996
v -0.022096 -0.031822 -0.010004
v -0.022182 -0.033121 0.009996
v -0.021991 -0.032482 -0.010004
v -0.022632 -0.033614 0.009996
v -0.022182 -0.033121 -0.010004
v -0.022632 -0.033614 -0.010004
v -0.000430 -0.001441 0.009996
v 0.000236 -0.001485 0.009996
v 0.000236 -0.001485 -0.010004
v -0.001011 -0.001112 0.009996
v -0.000430 -0.001441 -0.010004
v -0.001392 -0.000563 0.009996
v -0.001011 -0.001112 -0.010004
v -0.001497 0.000096 0.009996
v -0.001392 -0.000563 -0.010004
v -0.001305 0.000736 0.009996
v -0.001497 0.000096 -0.010004
v -0.000855 0.001229 0.009996
v -0.001305 0.000736 -0.010004
v -0.000236 0.001478 0.009996
v -0.000855 0.001229 -0.010004
v 0.000430 0.001433 0.009996
v -0.000236 0.001478 -0.010004
v 0.001011 0.001104 0.009996
v 0.000430 0.001433 -0.010004
v 0.001392 0.000556 0.009996
v 0.001011 0.001104 -0.010004
v 0.001497 -0.000104 0.009996
v 0.001392 0.000556 -0.010004
v 0.001305 -0.000743 0.009996
v 0.001497 -0.000104 -0.010004
v 0.000855 -0.001236 0.009996
v 0.001305 -0.000743 -0.010004
v 0.000855 -0.001236 -0.010004
v -0.021059 -0.034143 -0.010004
v 0.000969 -0.003777 -0.010004
v 0.000969 -0.003777 0.009996
v -0.021059 -0.034143 0.009996
v 0.002926 -0.002576 -0.010004
v 0.009360 -0.001552 -0.002504
v 0.009360 -0.001552 0.002496
v 0.020223 0.000177 -0.010004
v 0.020223 0.000177 -0.002504
v 0.020223 0.000177 0.009996
v 0.002926 -0.002576 0.009996
v 0.020223 0.000177 0.002496
v 0.020223 0.000177 -0.002504
v 0.020223 0.000177 -0.010004
v 0.021115 0.000467 -0.010004
v 0.021115 0.000467 -0.002504
v 0.021874 0.001020 -0.010004
v 0.021874 0.001020 -0.002504
v 0.022426 0.001779 -0.010004
v 0.022426 0.001779 -0.002504
v 0.022715 0.002672 -0.010004
v 0.022715 0.002672 -0.002504
v 0.022714 0.003611 -0.010004
v 0.022714 0.003611 -0.002504
v 0.022424 0.004503 -0.010004
v 0.022424 0.004503 -0.002504
v 0.021871 0.005262 -0.010004
v 0.021871 0.005262 -0.002504
v 0.021112 0.005814 -0.010004
v 0.021112 0.005814 -0.002504
v 0.020219 0.006103 -0.010004
v 0.020219 0.006103 -0.002504
v 0.019280 0.006102 -0.010004
v 0.019280 0.006102 -0.002504
v 0.019280 0.006102 -0.010004
v -0.000471 0.002959 -0.010004
v 0.008417 0.004373 -0.002504
v -0.000471 0.002959 0.009996
v 0.008417 0.004373 0.002496
v 0.019280 0.006102 0.009996
v 0.019280 0.006102 0.002496
v 0.019280 0.006102 -0.002504
v -0.000471 0.002959 0.009996
v -0.000471 0.002959 -0.010004
v -0.001222 0.002736 -0.010004
v -0.001222 0.002736 0.009996
v -0.001890 0.002326 -0.010004
v -0.001890 0.002326 0.009996
v -0.002428 0.001758 -0.010004
v -0.002428 0.001758 0.009996
v -0.025916 -0.030620 -0.010004
v -0.025916 -0.030620 0.009996
v -0.002428 0.001758 0.009996
v -0.002428 0.001758 -0.010004
v 0.019321 0.001703 0.009996
v 0.019987 0.001658 0.009996
v 0.019987 0.001658 0.002496
v 0.018740 0.002032 0.009996
v 0.019321 0.001703 0.002496
v 0.018360 0.002580 0.009996
v 0.018740 0.002032 0.002496
v 0.018255 0.003239 0.009996
v 0.018360 0.002580 0.002496
v 0.018446 0.003879 0.009996
v 0.018255 0.003239 0.002496
v 0.018896 0.004372 0.009996
v 0.018446 0.003879 0.002496
v 0.019516 0.004621 0.009996
v 0.018896 0.004372 0.002496
v 0.020182 0.004576 0.009996
v 0.019516 0.004621 0.002496
v 0.020763 0.004247 0.009996
v 0.020182 0.004576 0.002496
v 0.021143 0.003699 0.009996
v 0.020763 0.004247 0.002496
v 0.021248 0.003040 0.009996
v 0.021143 0.003699 0.002496
v 0.021057 0.002400 0.009996
v 0.021248 0.003040 0.002496
v 0.020607 0.001907 0.009996
v 0.021057 0.002400 0.002496
v 0.020607 0.001907 0.002496
v 0.020223 0.000177 0.009996
v 0.020223 0.000177 0.002496
v 0.021115 0.000467 0.002496
v 0.021115 0.000467 0.009996
v 0.021874 0.001020 0.002496
v 0.021874 0.001020 0.009996
v 0.022426 0.001779 0.002496
v 0.022426 0.001779 0.009996
v 0.022715 0.002672 0.002496
v 0.022715 0.002672 0.009996
v 0.022714 0.003611 0.002496
v 0.022714 0.003611 0.009996
v 0.022424 0.004503 0.002496
v 0.022424 0.004503 0.009996
v 0.021871 0.005262 0.002496
v 0.021871 0.005262 0.009996
v 0.021112 0.005814 0.002496
v 0.021112 0.005814 0.009996
v 0.020219 0.006103 0.002496
v 0.020219 0.006103 0.009996
v 0.019280 0.006102 0.002496
v 0.019280 0.006102 0.009996
vn 0.9878 -0.1557 -0.0000
vn 0.9876 0.1572 -0.0000
vn 0.8913 -0.4533 -0.0000
vn 0.7076 -0.7066 -0.0000
vn 0.4546 -0.8907 -0.0000
vn 0.1572 -0.9876 -0.0000
vn 0.8907 0.4546 -0.0000
vn 0.7066 0.7076 -0.0000
vn 0.4533 0.8913 -0.0000
vn 0.1557 0.9878 -0.0000
vn -0.1571 0.9876 -0.0000
vn 0.2869 0.9580 -0.0000
vn -0.1572 0.9876 -0.0000
vn -0.5701 0.8216 -0.0000
vn -0.8701 0.4929 -0.0000
vn -0.9978 0.0665 -0.0000
vn -0.9278 -0.3730 -0.0000
vn -0.6741 -0.7386 -0.0000
vn -0.2869 -0.9580 -0.0000
vn 0.5701 -0.8216 -0.0000
vn 0.8701 -0.4929 -0.0000
vn 0.9978 -0.0665 -0.0000
vn 0.9278 0.3730 -0.0000
vn 0.6741 0.7386 -0.0000
vn -0.8094 0.5872 -0.0000
vn -0.6299 0.7767 -0.0000
vn -0.4074 0.9132 -0.0000
vn 0.8094 -0.5872 -0.0000
vn -0.9513 0.3083 -0.0000
vn -1.0000 -0.0007 -0.0000
vn -0.9508 -0.3097 -0.0000
vn -0.8086 -0.5884 -0.0000
vn -0.5872 -0.8094 -0.0000
vn -0.5872 -0.8095 -0.0000
vn -0.3083 -0.9513 -0.0000
vn 0.0007 -1.0000 -0.0000
vn 0.3097 -0.9508 -0.0000
vn 0.5884 -0.8086 -0.0000
vn -0.8095 0.5871 -0.0000
vn -0.8095 0.5872 -0.0000
vn -0.0000 -0.0000 -1.0000
vn -0.0000 -0.0000 1.0000
vn 0.6299 -0.7767 -0.0000
vn 0.4074 -0.9132 -0.0000
vn -0.0003 -0.0000 1.0000
vn 0.3577 0.9338 -0.0000
vn 0.7767 0.6299 -0.0000
vn -0.1571 0.9876 0.0001
vn 0.9338 -0.3577 -0.0000
vn 0.9876 0.1571 -0.0000
vt 1.256637 0.020000
vt 1.570796 0.012500
vt 1.570796 0.020000
vt 0.942478 0.020000
vt 1.256637 0.012500
vt 0.628319 0.020000
vt 0.942478 0.012500
vt 0.314159 0.020000
vt 0.628319 0.012500
vt 0.000000 0.020000
vt 0.314159 0.012500
vt 1.884956 0.012500
vt 1.884956 0.020000
vt 2.199115 0.020000
vt 2.513274 0.012500
vt 2.513274 0.020000
vt 2.827433 0.012500
vt 2.827433 0.020000
vt 3.141593 0.012500
vt 3.141593 0.020000
vt 2.199115 0.012500
vt 0.000000 0.012500
vt -0.448799 0.020000
vt -0.448799 0.012500
vt 0.448799 0.012500
vt 0.448799 0.020000
vt 0.897598 0.012500
vt 0.897598 0.020000
vt 1.346397 0.012500
vt 1.346397 0.020000
vt 1.795196 0.012500
vt 1.795196 0.020000
vt 2.243995 0.012500
vt 2.243995 0.020000
vt 2.692794 0.012500
vt 2.692794 0.020000
vt 3.590392 0.012500
vt 3.590392 0.020000
vt 4.039191 0.012500
vt 4.039191 0.020000
vt 4.487989 0.012500
vt 4.487989 0.020000
vt 4.936789 0.012500
vt 4.936789 0.020000
vt 5.385587 0.012500
vt 5.385587 0.020000
vt -0.040000 0.000000
vt 0.000000 -0.020000
vt 0.000000 0.000000
vt -0.040000 -0.020000
vt 3.926991 0.000000
vt 3.665191 0.020000
vt 3.665191 0.000000
vt 3.926991 0.020000
vt 3.403392 0.020000
vt 3.403392 0.000000
vt 3.141593 0.000000
vt -0.020000 -0.020000
vt -0.009000 -0.012500
vt -0.000000 -0.020000
vt -0.000000 0.000000
vt -0.009000 -0.007500
vt -0.020000 -0.012500
vt -0.020000 0.000000
vt -0.020000 -0.007500
vt 0.314159 0.007500
vt 0.628319 -0.000000
vt 0.628319 0.007500
vt 0.942478 -0.000000
vt 0.942478 0.007500
vt 1.256637 -0.000000
vt 1.256637 0.007500
vt 1.570796 -0.000000
vt 1.570796 0.007500
vt 1.884956 -0.000000
vt 1.884956 0.007500
vt 0.314159 -0.000000
vt 0.000000 0.007500
vt 2.199115 -0.000000
vt 2.199115 0.007500
vt 2.513274 -0.000000
vt 2.513274 0.007500
vt 2.827433 -0.000000
vt 2.827433 0.007500
vt 3.141593 0.007500
vt -0.002485 -0.020000
vt -0.002485 0.000000
vt 0.448799 -0.000000
vt -0.448799 -0.000000
vt 5.385587 -0.000000
vt 4.936789 -0.000000
vt 4.487989 -0.000000
vt 4.039191 -0.000000
vt 3.590392 -0.000000
vt 2.692794 -0.000000
vt 2.243995 -0.000000
vt 1.795196 -0.000000
vt 1.346397 -0.000000
vt 0.897598 -0.000000
vt 4.241150 0.020000
vt 4.555309 0.000000
vt 4.555309 0.020000
vt 4.869469 0.000000
vt 4.869469 0.020000
vt 5.183628 0.000000
vt 5.183628 0.020000
vt 5.497787 0.000000
vt 5.497787 0.020000
vt 5.811946 0.000000
vt 5.811946 0.020000
vt 6.126106 0.000000
vt 6.126106 0.020000
vt 0.157080 0.000000
vt 0.157080 0.020000
vt 0.471239 0.000000
vt 0.471239 0.020000
vt 0.785398 0.000000
vt 0.785398 0.020000
vt 4.241150 0.000000
vt 5.385587 0.007500
vt 4.936789 0.007500
vt 4.487989 0.007500
vt 4.039191 0.007500
vt 3.590392 0.007500
vt 2.692794 0.007500
vt 2.243995 0.007500
vt 1.795196 0.007500
vt 1.346397 0.007500
vt 0.897598 0.007500
vt 0.448799 0.007500
vt -0.448799 0.007500
vt 0.002853 0.020927
vt 0.001500 0.020000
vt 0.003000 0.020000
vt -0.031247 -0.028754
vt -0.029636 -0.028935
vt -0.029784 -0.028284
vt -0.026163 -0.030406
vt -0.026933 -0.028935
vt -0.027349 -0.029457
vt -0.030406 -0.026163
vt -0.029636 -0.027633
vt -0.029220 -0.027112
vt -0.026784 -0.028284
vt -0.029646 -0.030957
vt -0.028618 -0.029747
vt -0.029220 -0.029457
vt -0.031247 -0.027815
vt -0.030957 -0.026922
vt -0.003879 0.000364
vt -0.027950 -0.026822
vt -0.027349 -0.027112
vt 0.002121 -0.002121
vt -0.026922 -0.030957
vt -0.030406 -0.030406
vt -0.030957 -0.029646
vt -0.028618 -0.026822
vt 0.003000 0.000000
vt 0.001351 0.000651
vt 0.001500 0.000000
vt -0.027950 -0.029747
vt -0.027815 -0.031247
vt -0.028754 -0.031247
vt 0.001351 0.019349
vt -0.001351 0.020651
vt -0.002427 0.021763
vt -0.002853 0.020927
vt -0.001351 0.019349
vt -0.001351 0.000651
vt -0.000935 0.001173
vt 0.002898 -0.000776
vt 0.001351 -0.000651
vt 0.002427 0.021763
vt 0.000935 0.021173
vt 0.001351 0.020651
vt -0.001500 0.000000
vt -0.000935 0.018827
vt 0.002598 -0.001500
vt 0.000935 -0.001173
vt -0.000927 0.022853
vt -0.000935 0.021173
vt -0.000334 0.021462
vt 0.000935 0.001173
vt 0.000935 0.018827
vt 0.000334 0.018538
vt 0.000334 -0.001462
vt -0.001763 0.022427
vt -0.000000 0.023000
vt 0.000334 0.001462
vt -0.000334 -0.001462
vt -0.000935 -0.001173
vt 0.000334 0.021462
vt 0.000927 0.022853
vt 0.001763 0.022427
vt -0.000334 0.001462
vt -0.000334 0.018538
vt -0.026933 -0.027633
vt -0.001500 0.020000
vt -0.001351 -0.000651
vt -0.003102 0.001709
vt -0.003402 0.000985
vt -0.003000 0.020000
vt -0.003000 0.002485
vt 0.001500 0.000000
vt 0.003000 0.000000
vt 0.004500 -0.010000
vt 0.006000 -0.010000
vt 0.004351 -0.010651
vt 0.000500 -0.020134
vt 0.001649 -0.010651
vt 0.002065 -0.011173
vt 0.005853 -0.009073
vt 0.004351 -0.009349
vt 0.000000 -0.010000
vt 0.001500 -0.010000
vt 0.005427 -0.008237
vt 0.003935 -0.008827
vt 0.004763 -0.007573
vt 0.005500 -0.020134
vt 0.005866 -0.020500
vt 0.000147 -0.009073
vt 0.006000 -0.021000
vt 0.000134 -0.020500
vt -0.000000 -0.021000
vt 0.002666 -0.011462
vt 0.001000 -0.020000
vt 0.000573 -0.008237
vt 0.002065 -0.008827
vt 0.001649 -0.009349
vt 0.002073 -0.007147
vt 0.001237 -0.007573
vt 0.005000 -0.020000
vt 0.003334 -0.011462
vt 0.003935 -0.011173
vt 0.003927 -0.007147
vt 0.003334 -0.008538
vt 0.002666 -0.008538
vt 0.003000 -0.007000
vt -0.004351 -0.010651
vt -0.006000 -0.010000
vt -0.004500 -0.010000
vt -0.005853 -0.009073
vt -0.000134 -0.020500
vt -0.000500 -0.020134
vt -0.001649 -0.010651
vt -0.002065 -0.011173
vt -0.005866 -0.020500
vt -0.005500 -0.020134
vt -0.002666 -0.008538
vt -0.003000 -0.007000
vt -0.002073 -0.007147
vt -0.003935 -0.008827
vt -0.003927 -0.007147
vt -0.003334 -0.008538
vt -0.002065 -0.008827
vt -0.001237 -0.007573
vt -0.000573 -0.008237
vt -0.001649 -0.009349
vt -0.003334 -0.011462
vt -0.001000 -0.020000
vt -0.005000 -0.020000
vt -0.006000 -0.021000
vt -0.002666 -0.011462
vt -0.000147 -0.009073
vt -0.001500 -0.010000
vt -0.005427 -0.008237
vt -0.004763 -0.007573
vt -0.003935 -0.011173
vt -0.004351 -0.009349
vt 0.005000 -0.005000
vt -0.000000 -0.001000
vt 0.005000 -0.001000
vt -0.000000 -0.005000
vt 1.570796 -0.007500
vt 2.094395 -0.012500
vt 2.094395 -0.007500
vt 2.617994 -0.012500
vt 2.617994 -0.007500
vt 3.141593 -0.012500
vt 3.141593 -0.007500
vt 1.570796 -0.012500
vt 5.235988 0.005000
vt 5.759586 -0.000000
vt 5.759586 0.005000
vt 6.283185 -0.000000
vt 6.283185 0.005000
vt 5.235988 -0.000000
vt 4.712389 0.005000
vt 4.712389 -0.000000
s 1
usemtl mat1.014
f 436/1/1 437/2/2 438/3/2
f 434/4/3 435/5/1 436/1/1
f 432/6/4 433/7/3 434/4/3
f 430/8/5 431/9/4 432/6/4
f 427/10/6 429/11/5 430/8/5
f 438/3/2 439/12/7 440/13/7
f 442/14/8 443/15/9 444/16/9
f 444/16/9 445/17/10 446/18/10
f 446/18/10 447/19/11 448/20/11
f 447/19/11 446/18/10 445/17/10
f 445/17/10 444/16/9 443/15/9
f 443/15/9 442/14/8 441/21/8
f 441/21/8 440/13/7 439/12/7
f 439/12/7 438/3/2 437/2/2
f 437/2/2 436/1/1 435/5/1
f 435/5/1 434/4/3 433/7/3
f 433/7/3 432/6/4 431/9/4
f 431/9/4 430/8/5 429/11/5
f 429/11/5 427/10/6 428/22/6
f 440/13/7 441/21/8 442/14/8
f 399/23/12 401/22/13 403/24/12
f 400/10/13 426/25/14 401/22/13
f 426/25/14 400/10/13 424/26/14
f 425/27/15 424/26/14 422/28/15
f 423/29/16 422/28/15 420/30/16
f 421/31/17 420/30/16 418/32/17
f 419/33/18 418/32/17 416/34/18
f 417/35/19 416/34/18 414/36/19
f 415/19/6 414/36/19 412/20/6
f 413/37/20 412/20/6 410/38/20
f 411/39/21 410/38/20 408/40/21
f 409/41/22 408/40/21 406/42/22
f 407/43/23 406/42/22 404/44/23
f 405/45/24 404/44/23 402/46/24
f 403/24/12 402/46/24 399/23/12
f 401/22/13 399/23/12 400/10/13
f 422/28/15 423/29/16 425/27/15
f 420/30/16 421/31/17 423/29/16
f 418/32/17 419/33/18 421/31/17
f 416/34/18 417/35/19 419/33/18
f 414/36/19 415/19/6 417/35/19
f 412/20/6 413/37/20 415/19/6
f 410/38/20 411/39/21 413/37/20
f 408/40/21 409/41/22 411/39/21
f 406/42/22 407/43/23 409/41/22
f 404/44/23 405/45/24 407/43/23
f 402/46/24 403/24/12 405/45/24
f 424/26/14 425/27/15 426/25/14
f 395/47/25 397/48/25 398/49/25
f 397/48/25 395/47/25 396/50/25
f 393/51/25 392/52/26 391/53/26
f 392/52/26 393/51/25 394/54/25
f 390/55/27 391/53/26 392/52/26
f 387/20/13 389/56/27 390/55/27
f 389/56/27 387/20/13 388/57/13
f 391/53/26 390/55/27 389/56/27
f 384/58/13 383/59/13 382/60/13
f 383/59/13 380/61/13 382/60/13
f 380/61/13 383/59/13 381/62/13
f 383/59/13 384/58/13 385/63/13
f 379/64/13 381/62/13 386/65/13
f 381/62/13 379/64/13 380/61/13
f 360/66/5 361/67/4 362/68/4
f 362/68/4 363/69/3 364/70/3
f 364/70/3 365/71/1 366/72/1
f 366/72/1 367/73/2 368/74/2
f 368/74/2 369/75/7 370/76/7
f 359/77/5 357/78/6 358/61/6
f 370/76/7 371/79/8 372/80/8
f 372/80/8 373/81/9 374/82/9
f 374/82/9 375/83/10 376/84/10
f 376/84/10 377/57/11 378/85/11
f 377/57/11 376/84/10 375/83/10
f 375/83/10 374/82/9 373/81/9
f 373/81/9 372/80/8 371/79/8
f 371/79/8 370/76/7 369/75/7
f 369/75/7 368/74/2 367/73/2
f 367/73/2 366/72/1 365/71/1
f 365/71/1 364/70/3 363/69/3
f 363/69/3 362/68/4 361/67/4
f 361/67/4 360/66/5 359/77/5
f 357/78/6 359/77/5 360/66/5
f 350/62/6 352/64/6 353/65/6
f 351/59/6 354/58/6 355/86/6
f 352/64/6 350/62/6 349/87/6
f 349/87/6 351/59/6 355/86/6
f 351/59/6 349/87/6 350/62/6
f 354/58/6 351/59/6 356/63/6
f 345/47/28 347/86/28 348/50/28
f 347/86/28 345/47/28 346/87/28
f 318/10/13 344/88/14 319/61/13
f 317/23/12 319/61/13 321/89/12
f 320/46/24 321/89/12 323/90/24
f 322/44/23 323/90/24 325/91/23
f 324/42/22 325/91/23 327/92/22
f 326/40/21 327/92/22 329/93/21
f 328/38/20 329/93/21 331/94/20
f 330/20/6 331/94/20 333/57/6
f 332/36/19 333/57/6 335/95/19
f 334/34/18 335/95/19 337/96/18
f 336/32/17 337/96/18 339/97/17
f 338/30/16 339/97/17 341/98/16
f 340/28/15 341/98/16 343/99/15
f 342/26/14 343/99/15 344/88/14
f 319/61/13 317/23/12 318/10/13
f 344/88/14 318/10/13 342/26/14
f 343/99/15 342/26/14 340/28/15
f 341/98/16 340/28/15 338/30/16
f 339/97/17 338/30/16 336/32/17
f 337/96/18 336/32/17 334/34/18
f 335/95/19 334/34/18 332/36/19
f 333/57/6 332/36/19 330/20/6
f 331/94/20 330/20/6 328/38/20
f 329/93/21 328/38/20 326/40/21
f 327/92/22 326/40/21 324/42/22
f 325/91/23 324/42/22 322/44/23
f 323/90/24 322/44/23 320/46/24
f 321/89/12 320/46/24 317/23/12
f 313/98/16 312/28/15 310/30/16
f 289/23/12 291/61/13 293/89/12
f 292/46/24 293/89/12 295/90/24
f 294/44/23 295/90/24 297/91/23
f 296/42/22 297/91/23 299/92/22
f 298/40/21 299/92/22 301/93/21
f 300/38/20 301/93/21 303/94/20
f 302/20/6 303/94/20 305/57/6
f 304/36/19 305/57/6 307/95/19
f 306/34/18 307/95/19 309/96/18
f 308/32/17 309/96/18 311/97/17
f 310/30/16 311/97/17 313/98/16
f 312/28/15 313/98/16 315/99/15
f 314/26/14 315/99/15 316/88/14
f 291/61/13 289/23/12 290/10/13
f 293/89/12 292/46/24 289/23/12
f 295/90/24 294/44/23 292/46/24
f 297/91/23 296/42/22 294/44/23
f 299/92/22 298/40/21 296/42/22
f 301/93/21 300/38/20 298/40/21
f 303/94/20 302/20/6 300/38/20
f 305/57/6 304/36/19 302/20/6
f 307/95/19 306/34/18 304/36/19
f 309/96/18 308/32/17 306/34/18
f 311/97/17 310/30/16 308/32/17
f 290/10/13 316/88/14 291/61/13
f 315/99/15 314/26/14 312/28/15
f 316/88/14 290/10/13 314/26/14
f 270/100/29 271/101/30 272/102/30
f 272/102/30 273/103/31 274/104/31
f 274/104/31 275/105/32 276/106/32
f 276/106/32 277/107/33 278/108/34
f 278/108/34 279/109/35 280/110/35
f 280/110/35 281/111/36 282/112/36
f 282/112/36 283/113/37 284/114/37
f 284/114/37 285/115/38 286/116/38
f 286/116/38 287/117/28 288/118/28
f 287/117/28 286/116/38 285/115/38
f 285/115/38 284/114/37 283/113/37
f 283/113/37 282/112/36 281/111/36
f 281/111/36 280/110/35 279/109/35
f 279/109/35 278/108/34 277/107/33
f 277/107/33 276/106/32 275/105/32
f 275/105/32 274/104/31 273/103/31
f 273/103/31 272/102/30 271/101/30
f 271/101/30 270/100/29 269/119/29
f 269/119/29 267/54/39 268/51/40
f 267/54/39 269/119/29 270/100/29
f 242/120/24 243/89/12 245/90/24
f 244/121/23 245/90/24 247/91/23
f 246/122/22 247/91/23 249/92/22
f 248/123/21 249/92/22 251/93/21
f 250/124/20 251/93/21 253/94/20
f 252/85/6 253/94/20 255/57/6
f 254/125/19 255/57/6 257/95/19
f 256/126/18 257/95/19 259/96/18
f 258/127/17 259/96/18 261/97/17
f 260/128/16 261/97/17 263/98/16
f 262/129/15 263/98/16 265/99/15
f 264/130/14 265/99/15 266/88/14
f 240/78/13 266/88/14 241/61/13
f 266/88/14 240/78/13 264/130/14
f 265/99/15 264/130/14 262/129/15
f 263/98/16 262/129/15 260/128/16
f 261/97/17 260/128/16 258/127/17
f 259/96/18 258/127/17 256/126/18
f 257/95/19 256/126/18 254/125/19
f 255/57/6 254/125/19 252/85/6
f 239/131/12 241/61/13 243/89/12
f 253/94/20 252/85/6 250/124/20
f 251/93/21 250/124/20 248/123/21
f 249/92/22 248/123/21 246/122/22
f 247/91/23 246/122/22 244/121/23
f 245/90/24 244/121/23 242/120/24
f 243/89/12 242/120/24 239/131/12
f 241/61/13 239/131/12 240/78/13
f 195/132/41 215/133/41 204/134/41
f 220/135/41 222/136/41 233/137/41
f 237/138/41 238/139/41 228/140/41
f 231/141/41 236/142/41 232/143/41
f 237/138/41 190/144/41 238/139/41
f 217/145/41 219/146/41 223/147/41
f 234/148/41 236/142/41 235/149/41
f 171/150/41 230/151/41 181/152/41
f 190/144/41 237/138/41 191/153/41
f 228/140/41 227/154/41 237/138/41
f 224/155/41 222/136/41 221/156/41
f 236/142/41 234/148/41 233/137/41
f 236/142/41 231/141/41 235/149/41
f 231/141/41 229/157/41 171/150/41
f 213/158/41 206/159/41 214/160/41
f 227/154/41 226/161/41 225/162/41
f 218/163/41 226/161/41 219/146/41
f 222/136/41 224/155/41 223/147/41
f 220/135/41 233/137/41 234/148/41
f 229/157/41 231/141/41 232/143/41
f 230/151/41 171/150/41 229/157/41
f 205/164/41 204/134/41 215/133/41
f 177/165/41 176/166/41 179/167/41
f 226/161/41 227/154/41 228/140/41
f 217/145/41 223/147/41 224/155/41
f 222/136/41 220/135/41 221/156/41
f 167/168/41 216/169/41 201/170/41
f 212/171/41 214/160/41 211/172/41
f 186/173/41 188/174/41 194/175/41
f 219/146/41 217/145/41 218/163/41
f 216/169/41 167/168/41 170/176/41
f 201/170/41 202/177/41 167/168/41
f 212/171/41 211/172/41 210/178/41
f 191/153/41 211/172/41 209/179/41
f 208/180/41 178/181/41 199/182/41
f 215/133/41 195/132/41 194/175/41
f 203/183/41 207/184/41 185/185/41
f 204/134/41 206/159/41 213/158/41
f 214/160/41 212/171/41 213/158/41
f 211/172/41 191/153/41 210/178/41
f 192/186/41 191/153/41 209/179/41
f 178/181/41 208/180/41 180/187/41
f 199/182/41 198/188/41 208/180/41
f 203/183/41 205/164/41 207/184/41
f 185/185/41 184/189/41 203/183/41
f 206/159/41 204/134/41 203/183/41
f 190/144/41 200/190/41 182/191/41
f 198/188/41 197/192/41 196/193/41
f 196/193/41 188/174/41 187/194/41
f 205/164/41 203/183/41 204/134/41
f 183/195/41 193/196/41 201/170/41
f 202/177/41 201/170/41 193/196/41
f 190/144/41 192/186/41 200/190/41
f 182/191/41 189/197/41 190/144/41
f 197/192/41 198/188/41 199/182/41
f 188/174/41 196/193/41 197/192/41
f 186/173/41 194/175/41 195/132/41
f 183/195/41 185/185/41 193/196/41
f 192/186/41 190/144/41 191/153/41
f 182/191/41 181/152/41 189/197/41
f 179/167/41 173/198/41 177/165/41
f 188/174/41 186/173/41 187/194/41
f 185/185/41 183/195/41 184/189/41
f 181/152/41 182/191/41 172/199/41
f 172/199/41 171/150/41 181/152/41
f 176/166/41 178/181/41 180/187/41
f 170/176/41 175/200/41 174/201/41
f 173/198/41 179/167/41 168/202/41
f 178/181/41 176/166/41 177/165/41
f 170/176/41 169/203/41 175/200/41
f 171/150/41 170/176/41 174/201/41
f 168/202/41 167/168/41 173/198/41
f 170/176/41 171/150/41 172/199/41
f 167/168/41 169/203/41 170/176/41
f 169/203/41 167/168/41 168/202/41
f 226/161/41 218/163/41 225/162/41
f 156/148/42 158/142/42 163/137/42
f 151/138/42 120/144/42 112/153/42
f 165/155/42 164/136/42 155/147/42
f 125/167/42 127/198/42 124/202/42
f 163/137/42 162/135/42 156/148/42
f 140/154/42 142/161/42 150/140/42
f 136/201/42 138/169/42 147/176/42
f 128/191/42 130/152/42 146/199/42
f 135/133/42 134/134/42 100/164/42
f 109/180/42 111/181/42 115/187/42
f 145/157/42 143/141/42 144/150/42
f 142/161/42 140/154/42 141/162/42
f 123/195/42 107/168/42 139/189/42
f 138/169/42 136/201/42 137/200/42
f 129/197/42 128/191/42 120/144/42
f 120/144/42 122/186/42 112/153/42
f 135/133/42 133/132/42 134/134/42
f 143/141/42 145/157/42 159/143/42
f 114/166/42 111/181/42 126/165/42
f 107/168/42 124/202/42 127/198/42
f 132/203/42 123/195/42 131/170/42
f 130/152/42 128/191/42 129/197/42
f 121/190/42 120/144/42 128/191/42
f 113/179/42 112/153/42 122/186/42
f 118/173/42 117/174/42 116/194/42
f 105/193/42 117/174/42 106/192/42
f 114/166/42 126/165/42 125/167/42
f 127/198/42 125/167/42 126/165/42
f 107/168/42 123/195/42 124/202/42
f 122/186/42 120/144/42 121/190/42
f 112/153/42 96/172/42 103/178/42
f 117/174/42 118/173/42 119/175/42
f 117/174/42 105/193/42 116/194/42
f 104/188/42 106/192/42 110/182/42
f 111/181/42 114/166/42 115/187/42
f 162/135/42 164/136/42 166/156/42
f 164/136/42 165/155/42 166/156/42
f 96/172/42 112/153/42 113/179/42
f 97/204/42 108/177/42 101/196/42
f 104/188/42 110/182/42 109/180/42
f 111/181/42 109/180/42 110/182/42
f 108/177/42 97/204/42 107/168/42
f 97/204/42 102/185/42 98/205/42
f 106/192/42 104/188/42 105/193/42
f 96/172/42 95/171/42 103/178/42
f 155/147/42 154/145/42 165/155/42
f 99/184/42 98/205/42 102/185/42
f 95/171/42 97/204/42 98/205/42
f 102/185/42 97/204/42 101/196/42
f 100/164/42 98/205/42 99/184/42
f 97/204/42 95/171/42 96/172/42
f 161/139/42 151/138/42 150/140/42
f 123/195/42 132/203/42 124/202/42
f 98/205/42 100/164/42 134/134/42
f 160/151/42 144/150/42 130/152/42
f 143/141/42 158/142/42 157/149/42
f 164/136/42 162/135/42 163/137/42
f 154/145/42 153/146/42 152/163/42
f 152/163/42 142/161/42 141/162/42
f 120/144/42 151/138/42 161/139/42
f 107/168/42 149/159/42 148/183/42
f 131/170/42 137/200/42 132/203/42
f 144/150/42 146/199/42 130/152/42
f 133/132/42 135/133/42 119/175/42
f 145/157/42 144/150/42 160/151/42
f 158/142/42 143/141/42 159/143/42
f 158/142/42 156/148/42 157/149/42
f 153/146/42 154/145/42 155/147/42
f 142/161/42 152/163/42 153/146/42
f 140/154/42 150/140/42 151/138/42
f 146/199/42 144/150/42 147/176/42
f 149/159/42 107/168/42 97/204/42
f 139/189/42 107/168/42 148/183/42
f 137/200/42 131/170/42 138/169/42
f 136/201/42 147/176/42 144/150/42
f 119/175/42 118/173/42 133/132/42
f 87/52/43 89/51/28 91/53/43
f 92/20/6 93/56/44 94/57/6
f 93/56/44 92/20/6 90/55/44
f 91/53/43 90/55/44 87/52/43
f 89/51/28 87/52/43 88/54/28
f 90/55/44 91/53/43 93/56/44
f 79/206/41 78/207/41 69/208/41
f 76/209/41 82/210/41 80/211/41
f 77/212/41 79/206/41 75/213/41
f 82/210/41 81/214/41 73/215/41
f 75/213/41 74/216/41 77/212/41
f 74/216/41 66/217/41 65/218/41
f 67/219/41 78/207/41 84/220/41
f 72/221/41 73/215/41 81/214/41
f 84/220/41 78/207/41 85/222/41
f 81/214/41 83/223/41 86/224/41
f 82/210/41 76/209/41 81/214/41
f 60/225/41 76/209/41 80/211/41
f 66/217/41 74/216/41 75/213/41
f 60/225/41 59/226/41 76/209/41
f 67/219/41 69/208/41 78/207/41
f 62/227/41 58/228/41 71/229/41
f 73/215/41 72/221/41 71/229/41
f 83/223/41 81/214/41 76/209/41
f 57/230/41 58/228/41 63/231/41
f 79/206/41 77/212/41 78/207/41
f 70/232/41 61/233/41 67/219/41
f 68/234/41 67/219/41 61/233/41
f 64/235/41 66/217/41 55/236/41
f 62/227/41 71/229/41 72/221/41
f 59/226/41 61/233/41 70/232/41
f 69/208/41 67/219/41 68/234/41
f 66/217/41 64/235/41 65/218/41
f 56/237/41 54/238/41 55/236/41
f 58/228/41 57/230/41 56/237/41
f 54/238/41 56/237/41 57/230/41
f 61/233/41 59/226/41 60/225/41
f 58/228/41 62/227/41 63/231/41
f 55/236/41 54/238/41 64/235/41
f 43/239/42 42/240/42 49/241/42
f 47/242/42 49/241/42 42/240/42
f 52/243/42 39/214/42 51/224/45
f 39/214/42 52/243/42 34/244/42
f 36/245/42 34/244/42 35/246/42
f 50/247/42 42/240/42 41/248/42
f 23/249/42 21/250/42 22/251/42
f 26/252/42 24/253/42 25/254/42
f 21/250/42 25/254/42 24/253/42
f 21/250/42 23/249/42 25/254/42
f 28/255/42 22/251/42 27/256/42
f 28/255/42 29/257/42 30/258/42
f 33/259/42 31/260/42 32/261/42
f 22/251/42 28/255/42 23/249/42
f 29/257/42 28/255/42 27/256/42
f 42/240/42 50/247/42 53/262/42
f 31/260/42 37/263/42 34/244/42
f 30/258/42 29/257/42 38/264/42
f 40/265/42 38/264/42 39/214/42
f 35/246/42 34/244/42 37/263/42
f 31/260/42 33/259/42 37/263/42
f 43/239/42 41/248/42 42/240/42
f 26/252/42 44/266/42 45/267/42
f 38/264/42 40/265/42 30/258/42
f 33/259/42 32/261/42 41/248/42
f 41/248/42 43/239/42 46/268/42
f 49/241/42 47/242/42 48/269/42
f 44/266/42 48/269/42 47/242/42
f 40/265/42 39/214/42 36/245/42
f 41/248/42 46/268/42 33/259/42
f 44/266/42 26/252/42 48/269/42
f 34/244/42 36/245/42 39/214/42
f 24/253/42 26/252/42 45/267/42
f 19/270/2 17/271/2 18/272/2
f 17/271/2 19/270/2 20/273/2
f 9/274/11 11/275/46 12/276/46
f 12/276/46 13/277/47 14/278/47
f 14/278/47 15/279/2 16/280/2
f 15/279/2 14/278/47 13/277/47
f 11/275/46 9/274/11 10/281/48
f 13/277/47 12/276/46 11/275/46
f 4/282/43 5/283/49 6/284/49
f 6/284/49 7/285/2 8/286/50
f 7/285/2 6/284/49 5/283/49
f 5/283/49 4/282/43 3/287/43
f 3/287/43 1/288/6 2/289/6
f 1/288/6 3/287/43 4/282/43
