# Blender 4.5.4 LTS
# www.blender.org
mtllib G_R2.mtl
o G_R2
v -0.001278 -0.000788 0.019996
v -0.000881 -0.001218 0.019996
v -0.000881 -0.001218 0.014996
v -0.001481 -0.000239 0.019996
v -0.001278 -0.000788 0.014996
v -0.001459 0.000345 0.019996
v -0.001481 -0.000239 0.014996
v -0.001214 0.000877 0.019996
v -0.001459 0.000345 0.014996
v -0.000785 0.001275 0.019996
v -0.001214 0.000877 0.014996
v -0.000236 0.001478 0.019996
v -0.000785 0.001275 0.014996
v 0.000349 0.001455 0.019996
v -0.000236 0.001478 0.014996
v 0.000881 0.001210 0.019996
v 0.000349 0.001455 0.014996
v 0.001278 0.000781 0.019996
v 0.000881 0.001210 0.014996
v 0.001481 0.000232 0.019996
v 0.001278 0.000781 0.014996
v 0.001459 -0.000353 0.019996
v 0.001481 0.000232 0.014996
v 0.001214 -0.000885 0.019996
v 0.001459 -0.000353 0.014996
v 0.000785 -0.001282 0.019996
v 0.001214 -0.000885 0.014996
v 0.000236 -0.001485 0.019996
v 0.000785 -0.001282 0.014996
v -0.000349 -0.001463 0.019996
v 0.000236 -0.001485 0.014996
v -0.000349 -0.001463 0.014996
v -0.024766 -0.033166 0.019996
v -0.024368 -0.033596 0.019996
v -0.024368 -0.033596 0.014996
v -0.024969 -0.032617 0.019996
v -0.024766 -0.033166 0.014996
v -0.024946 -0.032033 0.019996
v -0.024969 -0.032617 0.014996
v -0.024702 -0.031501 0.019996
v -0.024946 -0.032033 0.014996
v -0.024272 -0.031103 0.019996
v -0.024702 -0.031501 0.014996
v -0.023723 -0.030900 0.019996
v -0.024272 -0.031103 0.014996
v -0.023138 -0.030923 0.019996
v -0.023723 -0.030900 0.014996
v -0.022607 -0.031168 0.019996
v -0.023138 -0.030923 0.014996
v -0.022209 -0.031597 0.019996
v -0.022607 -0.031168 0.014996
v -0.022006 -0.032146 0.019996
v -0.022209 -0.031597 0.014996
v -0.022029 -0.032731 0.019996
v -0.022006 -0.032146 0.014996
v -0.022273 -0.033263 0.019996
v -0.022029 -0.032731 0.014996
v -0.022703 -0.033660 0.019996
v -0.022273 -0.033263 0.014996
v -0.023252 -0.033863 0.019996
v -0.022703 -0.033660 0.014996
v -0.023837 -0.033841 0.019996
v -0.023252 -0.033863 0.014996
v -0.023837 -0.033841 0.014996
v 0.002428 -0.001765 0.014996
v 0.002428 -0.001765 0.019996
v -0.021059 -0.034143 0.019996
v -0.021059 -0.034143 0.014996
v 0.002428 -0.001765 0.019996
v 0.002428 -0.001765 0.014996
v 0.002802 -0.001077 0.014996
v 0.002802 -0.001077 0.019996
v 0.002984 -0.000315 0.014996
v 0.002984 -0.000315 0.019996
v 0.002963 0.000468 0.014996
v 0.002963 0.000468 0.019996
v 0.002740 0.001218 0.014996
v 0.002740 0.001218 0.019996
v 0.002330 0.001886 0.014996
v 0.002330 0.001886 0.019996
v 0.001762 0.002425 0.014996
v 0.001762 0.002425 0.019996
v 0.001073 0.002798 0.014996
v 0.001073 0.002798 0.019996
v 0.000311 0.002980 0.014996
v 0.000311 0.002980 0.019996
v -0.000471 0.002959 0.014996
v -0.000471 0.002959 0.019996
v -0.001222 0.002736 0.014996
v -0.001222 0.002736 0.019996
v -0.001890 0.002326 0.014996
v -0.001890 0.002326 0.019996
v -0.002428 0.001758 0.014996
v -0.002428 0.001758 0.019996
v -0.002428 0.001758 0.019996
v -0.002428 0.001758 0.014996
v -0.025916 -0.030620 0.014996
v -0.025916 -0.030620 0.019996
v -0.025916 -0.030620 0.019996
v -0.025916 -0.030620 0.014996
v -0.026289 -0.031309 0.014996
v -0.026289 -0.031309 0.019996
v -0.026471 -0.032070 0.014996
v -0.026471 -0.032070 0.019996
v -0.026450 -0.032853 0.014996
v -0.026450 -0.032853 0.019996
v -0.026227 -0.033604 0.014996
v -0.026227 -0.033604 0.019996
v -0.025818 -0.034271 0.014996
v -0.025818 -0.034271 0.019996
v -0.025249 -0.034810 0.014996
v -0.025249 -0.034810 0.019996
v -0.024561 -0.035183 0.014996
v -0.024561 -0.035183 0.019996
v -0.023799 -0.035366 0.014996
v -0.023799 -0.035366 0.019996
v -0.023016 -0.035344 0.014996
v -0.023016 -0.035344 0.019996
v -0.022265 -0.035121 0.014996
v -0.022265 -0.035121 0.019996
v -0.021598 -0.034712 0.014996
v -0.021598 -0.034712 0.019996
v -0.021059 -0.034143 0.014996
v -0.021059 -0.034143 0.019996
v -0.024561 -0.035183 0.019996
v -0.023837 -0.033841 0.019996
v -0.024368 -0.033596 0.019996
v -0.025249 -0.034810 0.019996
v -0.023799 -0.035366 0.019996
v -0.023016 -0.035344 0.019996
v -0.023252 -0.033863 0.019996
v -0.022265 -0.035121 0.019996
v -0.022703 -0.033660 0.019996
v -0.000349 -0.001463 0.019996
v -0.000881 -0.001218 0.019996
v -0.022607 -0.031168 0.019996
v 0.002802 -0.001077 0.019996
v 0.001459 -0.000353 0.019996
v 0.001214 -0.000885 0.019996
v 0.002740 0.001218 0.019996
v 0.001278 0.000781 0.019996
v 0.001481 0.000232 0.019996
v 0.001073 0.002798 0.019996
v 0.000349 0.001455 0.019996
v 0.000881 0.001210 0.019996
v -0.021598 -0.034712 0.019996
v -0.021059 -0.034143 0.019996
v -0.022273 -0.033263 0.019996
v -0.022209 -0.031597 0.019996
v 0.000236 -0.001485 0.019996
v 0.002428 -0.001765 0.019996
v 0.000785 -0.001282 0.019996
v 0.002984 -0.000315 0.019996
v 0.002963 0.000468 0.019996
v 0.002330 0.001886 0.019996
v 0.001762 0.002425 0.019996
v 0.000311 0.002980 0.019996
v -0.000471 0.002959 0.019996
v -0.000236 0.001478 0.019996
v -0.025916 -0.030620 0.019996
v -0.024272 -0.031103 0.019996
v -0.023723 -0.030900 0.019996
v -0.026289 -0.031309 0.019996
v -0.024946 -0.032033 0.019996
v -0.024702 -0.031501 0.019996
v -0.022029 -0.032731 0.019996
v -0.022006 -0.032146 0.019996
v -0.001890 0.002326 0.019996
v -0.002428 0.001758 0.019996
v -0.001214 0.000877 0.019996
v -0.026227 -0.033604 0.019996
v -0.024766 -0.033166 0.019996
v -0.024969 -0.032617 0.019996
v -0.001222 0.002736 0.019996
v -0.000785 0.001275 0.019996
v -0.001481 -0.000239 0.019996
v -0.001278 -0.000788 0.019996
v -0.023138 -0.030923 0.019996
v -0.026471 -0.032070 0.019996
v -0.026450 -0.032853 0.019996
v -0.025818 -0.034271 0.019996
v -0.001459 0.000345 0.019996
v -0.021059 -0.034143 0.014996
v -0.022273 -0.033263 0.014996
v -0.000881 -0.001218 0.014996
v -0.021598 -0.034712 0.014996
v -0.022703 -0.033660 0.014996
v -0.000349 -0.001463 0.014996
v -0.001481 -0.000239 0.014996
v -0.001278 -0.000788 0.014996
v -0.022265 -0.035121 0.014996
v -0.023016 -0.035344 0.014996
v -0.023252 -0.033863 0.014996
v -0.023799 -0.035366 0.014996
v -0.023837 -0.033841 0.014996
v -0.024561 -0.035183 0.014996
v -0.025249 -0.034810 0.014996
v -0.024368 -0.033596 0.014996
v -0.026227 -0.033604 0.014996
v -0.026450 -0.032853 0.014996
v -0.024969 -0.032617 0.014996
v -0.025818 -0.034271 0.014996
v -0.024766 -0.033166 0.014996
v -0.001890 0.002326 0.014996
v -0.000785 0.001275 0.014996
v -0.001214 0.000877 0.014996
v -0.026471 -0.032070 0.014996
v -0.024946 -0.032033 0.014996
v -0.026289 -0.031309 0.014996
v -0.025916 -0.030620 0.014996
v -0.024702 -0.031501 0.014996
v -0.002428 0.001758 0.014996
v -0.022607 -0.031168 0.014996
v 0.002802 -0.001077 0.014996
v 0.002428 -0.001765 0.014996
v 0.001214 -0.000885 0.014996
v -0.023723 -0.030900 0.014996
v -0.001222 0.002736 0.014996
v 0.002740 0.001218 0.014996
v 0.002963 0.000468 0.014996
v 0.001481 0.000232 0.014996
v 0.002984 -0.000315 0.014996
v 0.001459 -0.000353 0.014996
v 0.000236 -0.001485 0.014996
v -0.024272 -0.031103 0.014996
v -0.023138 -0.030923 0.014996
v -0.000471 0.002959 0.014996
v -0.000236 0.001478 0.014996
v 0.000311 0.002980 0.014996
v 0.000349 0.001455 0.014996
v 0.002330 0.001886 0.014996
v 0.001278 0.000781 0.014996
v 0.000881 0.001210 0.014996
v 0.000785 -0.001282 0.014996
v 0.001073 0.002798 0.014996
v 0.001762 0.002425 0.014996
v -0.022006 -0.032146 0.014996
v -0.022209 -0.031597 0.014996
v -0.001459 0.000345 0.014996
v -0.022029 -0.032731 0.014996
v -0.001278 -0.000788 -0.015004
v -0.000881 -0.001218 -0.015004
v -0.000881 -0.001218 -0.020004
v -0.001481 -0.000239 -0.015004
v -0.001278 -0.000788 -0.020004
v -0.001459 0.000345 -0.015004
v -0.001481 -0.000239 -0.020004
v -0.001214 0.000877 -0.015004
v -0.001459 0.000345 -0.020004
v -0.000785 0.001275 -0.015004
v -0.001214 0.000877 -0.020004
v -0.000236 0.001478 -0.015004
v -0.000785 0.001275 -0.020004
v 0.000349 0.001455 -0.015004
v -0.000236 0.001478 -0.020004
v 0.000881 0.001210 -0.015004
v 0.000349 0.001455 -0.020004
v 0.001278 0.000781 -0.015004
v 0.000881 0.001210 -0.020004
v 0.001481 0.000232 -0.015004
v 0.001278 0.000781 -0.020004
v 0.001459 -0.000353 -0.015004
v 0.001481 0.000232 -0.020004
v 0.001214 -0.000885 -0.015004
v 0.001459 -0.000353 -0.020004
v 0.000785 -0.001282 -0.015004
v 0.001214 -0.000885 -0.020004
v 0.000236 -0.001485 -0.015004
v 0.000785 -0.001282 -0.020004
v -0.000349 -0.001463 -0.015004
v 0.000236 -0.001485 -0.020004
v -0.000349 -0.001463 -0.020004
v -0.024766 -0.033166 -0.015004
v -0.024368 -0.033596 -0.015004
v -0.024368 -0.033596 -0.020004
v -0.024969 -0.032617 -0.015004
v -0.024766 -0.033166 -0.020004
v -0.024946 -0.032033 -0.015004
v -0.024969 -0.032617 -0.020004
v -0.024702 -0.031501 -0.015004
v -0.024946 -0.032033 -0.020004
v -0.024272 -0.031103 -0.015004
v -0.024702 -0.031501 -0.020004
v -0.023723 -0.030900 -0.015004
v -0.024272 -0.031103 -0.020004
v -0.023138 -0.030923 -0.015004
v -0.023723 -0.030900 -0.020004
v -0.022607 -0.031168 -0.015004
v -0.023138 -0.030923 -0.020004
v -0.022209 -0.031597 -0.015004
v -0.022607 -0.031168 -0.020004
v -0.022006 -0.032146 -0.015004
v -0.022209 -0.031597 -0.020004
v -0.022029 -0.032731 -0.015004
v -0.022006 -0.032146 -0.020004
v -0.022273 -0.033263 -0.015004
v -0.022029 -0.032731 -0.020004
v -0.022703 -0.033660 -0.015004
v -0.022273 -0.033263 -0.020004
v -0.023252 -0.033863 -0.015004
v -0.022703 -0.033660 -0.020004
v -0.023837 -0.033841 -0.015004
v -0.023252 -0.033863 -0.020004
v -0.023837 -0.033841 -0.020004
v 0.002428 -0.001765 -0.020004
v 0.002428 -0.001765 -0.015004
v -0.021059 -0.034143 -0.015004
v -0.021059 -0.034143 -0.020004
v 0.002428 -0.001765 -0.015004
v 0.002428 -0.001765 -0.020004
v 0.002802 -0.001077 -0.020004
v 0.002802 -0.001077 -0.015004
v 0.002984 -0.000315 -0.020004
v 0.002984 -0.000315 -0.015004
v 0.002963 0.000468 -0.020004
v 0.002963 0.000468 -0.015004
v 0.002740 0.001218 -0.020004
v 0.002740 0.001218 -0.015004
v 0.002330 0.001886 -0.020004
v 0.002330 0.001886 -0.015004
v 0.001762 0.002425 -0.020004
v 0.001762 0.002425 -0.015004
v 0.001073 0.002798 -0.020004
v 0.001073 0.002798 -0.015004
v 0.000311 0.002980 -0.020004
v 0.000311 0.002980 -0.015004
v -0.000471 0.002959 -0.020004
v -0.000471 0.002959 -0.015004
v -0.001222 0.002736 -0.020004
v -0.001222 0.002736 -0.015004
v -0.001890 0.002326 -0.020004
v -0.001890 0.002326 -0.015004
v -0.002428 0.001758 -0.020004
v -0.002428 0.001758 -0.015004
v -0.002428 0.001758 -0.015004
v -0.002428 0.001758 -0.020004
v -0.025916 -0.030620 -0.020004
v -0.025916 -0.030620 -0.015004
v -0.025916 -0.030620 -0.015004
v -0.025916 -0.030620 -0.020004
v -0.026289 -0.031309 -0.020004
v -0.026289 -0.031309 -0.015004
v -0.026471 -0.032070 -0.020004
v -0.026471 -0.032070 -0.015004
v -0.026450 -0.032853 -0.020004
v -0.026450 -0.032853 -0.015004
v -0.026227 -0.033604 -0.020004
v -0.026227 -0.033604 -0.015004
v -0.025818 -0.034271 -0.020004
v -0.025818 -0.034271 -0.015004
v -0.025249 -0.034810 -0.020004
v -0.025249 -0.034810 -0.015004
v -0.024561 -0.035183 -0.020004
v -0.024561 -0.035183 -0.015004
v -0.023799 -0.035366 -0.020004
v -0.023799 -0.035366 -0.015004
v -0.023016 -0.035344 -0.020004
v -0.023016 -0.035344 -0.015004
v -0.022265 -0.035121 -0.020004
v -0.022265 -0.035121 -0.015004
v -0.021598 -0.034712 -0.020004
v -0.021598 -0.034712 -0.015004
v -0.021059 -0.034143 -0.020004
v -0.021059 -0.034143 -0.015004
v -0.024561 -0.035183 -0.015004
v -0.023837 -0.033841 -0.015004
v -0.024368 -0.033596 -0.015004
v -0.025249 -0.034810 -0.015004
v -0.023799 -0.035366 -0.015004
v -0.023016 -0.035344 -0.015004
v -0.023252 -0.033863 -0.015004
v -0.022265 -0.035121 -0.015004
v -0.022703 -0.033660 -0.015004
v -0.000349 -0.001463 -0.015004
v -0.000881 -0.001218 -0.015004
v -0.022607 -0.031168 -0.015004
v 0.002802 -0.001077 -0.015004
v 0.001459 -0.000353 -0.015004
v 0.001214 -0.000885 -0.015004
v 0.002740 0.001218 -0.015004
v 0.001278 0.000781 -0.015004
v 0.001481 0.000232 -0.015004
v 0.001073 0.002798 -0.015004
v 0.000349 0.001455 -0.015004
v 0.000881 0.001210 -0.015004
v -0.021598 -0.034712 -0.015004
v -0.021059 -0.034143 -0.015004
v -0.022273 -0.033263 -0.015004
v -0.022209 -0.031597 -0.015004
v 0.000236 -0.001485 -0.015004
v 0.002428 -0.001765 -0.015004
v 0.000785 -0.001282 -0.015004
v 0.002984 -0.000315 -0.015004
v 0.002963 0.000468 -0.015004
v 0.002330 0.001886 -0.015004
v 0.001762 0.002425 -0.015004
v 0.000311 0.002980 -0.015004
v -0.000471 0.002959 -0.015004
v -0.000236 0.001478 -0.015004
v -0.025916 -0.030620 -0.015004
v -0.024272 -0.031103 -0.015004
v -0.023723 -0.030900 -0.015004
v -0.026289 -0.031309 -0.015004
v -0.024946 -0.032033 -0.015004
v -0.024702 -0.031501 -0.015004
v -0.022029 -0.032731 -0.015004
v -0.022006 -0.032146 -0.015004
v -0.001890 0.002326 -0.015004
v -0.002428 0.001758 -0.015004
v -0.001214 0.000877 -0.015004
v -0.026227 -0.033604 -0.015004
v -0.024766 -0.033166 -0.015004
v -0.024969 -0.032617 -0.015004
v -0.001222 0.002736 -0.015004
v -0.000785 0.001275 -0.015004
v -0.001481 -0.000239 -0.015004
v -0.001278 -0.000788 -0.015004
v -0.023138 -0.030923 -0.015004
v -0.026471 -0.032070 -0.015004
v -0.026450 -0.032853 -0.015004
v -0.025818 -0.034271 -0.015004
v -0.001459 0.000345 -0.015004
v -0.021059 -0.034143 -0.020004
v -0.022273 -0.033263 -0.020004
v -0.000881 -0.001218 -0.020004
v -0.021598 -0.034712 -0.020004
v -0.022703 -0.033660 -0.020004
v -0.000349 -0.001463 -0.020004
v -0.001481 -0.000239 -0.020004
v -0.001278 -0.000788 -0.020004
v -0.022265 -0.035121 -0.020004
v -0.023016 -0.035344 -0.020004
v -0.023252 -0.033863 -0.020004
v -0.023799 -0.035366 -0.020004
v -0.023837 -0.033841 -0.020004
v -0.024561 -0.035183 -0.020004
v -0.025249 -0.034810 -0.020004
v -0.024368 -0.033596 -0.020004
v -0.026227 -0.033604 -0.020004
v -0.026450 -0.032853 -0.020004
v -0.024969 -0.032617 -0.020004
v -0.025818 -0.034271 -0.020004
v -0.024766 -0.033166 -0.020004
v -0.001890 0.002326 -0.020004
v -0.000785 0.001275 -0.020004
v -0.001214 0.000877 -0.020004
v -0.026471 -0.032070 -0.020004
v -0.024946 -0.032033 -0.020004
v -0.026289 -0.031309 -0.020004
v -0.025916 -0.030620 -0.020004
v -0.024702 -0.031501 -0.020004
v -0.002428 0.001758 -0.020004
v -0.022607 -0.031168 -0.020004
v 0.002802 -0.001077 -0.020004
v 0.002428 -0.001765 -0.020004
v 0.001214 -0.000885 -0.020004
v -0.023723 -0.030900 -0.020004
v -0.001222 0.002736 -0.020004
v 0.002740 0.001218 -0.020004
v 0.002963 0.000468 -0.020004
v 0.001481 0.000232 -0.020004
v 0.002984 -0.000315 -0.020004
v 0.001459 -0.000353 -0.020004
v 0.000236 -0.001485 -0.020004
v -0.024272 -0.031103 -0.020004
v -0.023138 -0.030923 -0.020004
v -0.000471 0.002959 -0.020004
v -0.000236 0.001478 -0.020004
v 0.000311 0.002980 -0.020004
v 0.000349 0.001455 -0.020004
v 0.002330 0.001886 -0.020004
v 0.001278 0.000781 -0.020004
v 0.000881 0.001210 -0.020004
v 0.000785 -0.001282 -0.020004
v 0.001073 0.002798 -0.020004
v 0.001762 0.002425 -0.020004
v -0.022006 -0.032146 -0.020004
v -0.022209 -0.031597 -0.020004
v -0.001459 0.000345 -0.020004
v -0.022029 -0.032731 -0.020004
vn -0.0000 -0.0000 -1.0000
vn -0.0000 -0.0000 1.0000
vn -0.9338 0.3577 -0.0000
vn -0.8095 0.5872 -0.0000
vn -0.9946 0.1038 -0.0000
vn -0.9876 -0.1572 -0.0000
vn -0.9132 -0.4074 -0.0000
vn -0.7767 -0.6299 -0.0000
vn -0.5872 -0.8095 -0.0000
vn -0.3577 -0.9338 -0.0000
vn -0.1038 -0.9946 -0.0000
vn 0.1572 -0.9876 -0.0000
vn 0.4074 -0.9132 -0.0000
vn 0.6299 -0.7767 -0.0000
vn 0.8094 -0.5872 -0.0000
vn -0.8094 0.5872 -0.0000
vn 0.9338 -0.3577 -0.0000
vn 0.8095 -0.5872 -0.0000
vn 0.9946 -0.1038 -0.0000
vn 0.9876 0.1572 -0.0000
vn 0.9132 0.4074 -0.0000
vn 0.7767 0.6299 -0.0000
vn 0.5872 0.8095 -0.0000
vn 0.3577 0.9338 -0.0000
vn 0.5872 0.8094 -0.0000
vn 0.1038 0.9946 -0.0000
vn -0.1572 0.9876 -0.0000
vn -0.4074 0.9132 -0.0000
vn -0.6299 0.7767 -0.0000
vn 0.8523 0.5231 -0.0000
vn 0.9725 -0.2327 -0.0000
vn 0.5231 -0.8523 -0.0000
vn -0.2327 -0.9725 -0.0000
vn -0.8523 -0.5231 -0.0000
vn -0.9725 0.2327 -0.0000
vn -0.5231 0.8523 -0.0000
vn 0.2327 0.9725 -0.0000
vn -0.5872 -0.8094 -0.0000
vt 0.042898 0.000776
vt 0.041500 0.000000
vt 0.043000 0.000000
vt 0.040000 -0.001500
vt 0.001386 0.000574
vt 0.001500 0.000000
vt 0.000000 0.003000
vt 0.038614 0.000574
vt 0.038939 0.001061
vt 0.000000 0.001500
vt 0.039426 -0.001386
vt 0.038939 -0.001061
vt 0.000574 0.001386
vt 0.001061 0.001061
vt 0.041386 -0.000574
vt 0.042598 -0.001500
vt 0.042898 -0.000776
vt 0.041500 0.002598
vt 0.041061 0.001061
vt 0.042121 0.002121
vt 0.040000 -0.003000
vt 0.001386 -0.000574
vt 0.001061 -0.001061
vt 0.040000 0.003000
vt 0.039426 0.001386
vt 0.040000 0.001500
vt 0.042598 0.001500
vt 0.041386 0.000574
vt 0.041061 -0.001061
vt 0.042121 -0.002121
vt 0.041500 -0.002598
vt 0.040574 -0.001386
vt 0.000000 -0.003000
vt 0.000574 -0.001386
vt 0.000000 -0.001500
vt 0.040776 0.002898
vt 0.040574 0.001386
vt -0.000776 -0.002898
vt -0.000574 -0.001386
vt 0.040776 -0.002898
vt -0.001500 -0.002598
vt -0.001061 -0.001061
vt -0.002121 -0.002121
vt -0.002898 -0.000776
vt -0.001500 0.000000
vt -0.003000 -0.000000
vt -0.002598 -0.001500
vt -0.001386 -0.000574
vt -0.002898 0.000776
vt -0.001386 0.000574
vt -0.002598 0.001500
vt -0.001061 0.001061
vt -0.002121 0.002121
vt -0.001500 0.002598
vt -0.000574 0.001386
vt -0.000776 0.002898
vt 0.038614 -0.000574
vt 0.038500 0.000000
vt 0.001500 0.000000
vt 0.041500 0.000000
vt 4.974188 -0.000000
vt 4.712389 0.005000
vt 4.712389 -0.000000
vt 5.235988 -0.000000
vt 4.974188 0.005000
vt 5.497787 -0.000000
vt 5.235988 0.005000
vt 5.759586 -0.000000
vt 5.497787 0.005000
vt 6.021386 -0.000000
vt 5.759586 0.005000
vt 6.283185 -0.000000
vt 6.021386 0.005000
vt 0.261799 -0.000000
vt 6.283185 0.005000
vt 0.523599 -0.000000
vt 0.261799 0.005000
vt 0.785398 -0.000000
vt 0.523599 0.005000
vt 1.047198 -0.000000
vt 0.785398 0.005000
vt 1.308997 -0.000000
vt 1.047198 0.005000
vt 1.570796 -0.000000
vt 1.308997 0.005000
vt 1.570796 0.005000
vt -0.005000 0.040000
vt 0.000000 0.000000
vt -0.005000 0.000000
vt 0.000000 0.040000
vt 1.832596 0.000000
vt 2.094395 0.000000
vt 1.832596 0.005000
vt 2.356194 0.000000
vt 2.094395 0.005000
vt 2.617994 0.000000
vt 2.356194 0.005000
vt 2.879793 0.000000
vt 2.617994 0.005000
vt 3.141593 0.000000
vt 2.879793 0.005000
vt 3.403392 0.000000
vt 3.141593 0.005000
vt 3.665191 0.000000
vt 3.403392 0.005000
vt 3.926991 0.000000
vt 3.665191 0.005000
vt 4.188790 0.000000
vt 3.926991 0.005000
vt 4.450590 0.000000
vt 4.188790 0.005000
vt 4.450590 0.005000
vt 0.005000 0.000000
vt 0.005000 0.040000
vt -0.392699 0.005000
vt -0.392699 -0.000000
vt 5.105088 0.005000
vt 5.105088 -0.000000
vt 4.319690 0.005000
vt 4.319690 -0.000000
vt 3.534292 0.005000
vt 3.534292 -0.000000
vt 2.748893 0.005000
vt 2.748893 -0.000000
vt 1.963495 0.005000
vt 1.963495 -0.000000
vt 1.178097 0.005000
vt 1.178097 -0.000000
vt 0.392699 0.005000
vt 0.392699 -0.000000
vt 0.000000 0.005000
s 1
usemtl mat1.015
f 231/1/1 233/2/1 236/3/1
f 206/4/1 238/5/1 213/6/1
f 183/7/1 188/8/1 224/9/1
f 184/10/1 239/11/1 189/12/1
f 239/11/1 240/13/1 206/4/1
f 237/14/1 206/4/1 240/13/1
f 230/15/1 229/16/1 235/17/1
f 222/18/1 221/19/1 220/20/1
f 240/13/1 239/11/1 184/10/1
f 238/5/1 206/4/1 237/14/1
f 235/17/1 233/2/1 230/15/1
f 212/21/1 226/22/1 217/23/1
f 215/24/1 234/25/1 216/26/1
f 219/27/1 221/19/1 232/28/1
f 233/2/1 235/17/1 236/3/1
f 229/16/1 228/29/1 227/30/1
f 218/31/1 228/29/1 205/32/1
f 210/33/1 225/34/1 211/35/1
f 215/24/1 224/9/1 234/25/1
f 214/36/1 216/26/1 223/37/1
f 219/27/1 232/28/1 231/1/1
f 233/2/1 231/1/1 232/28/1
f 228/29/1 229/16/1 230/15/1
f 228/29/1 218/31/1 227/30/1
f 212/21/1 213/6/1 226/22/1
f 210/33/1 217/23/1 225/34/1
f 209/38/1 211/35/1 208/39/1
f 224/9/1 215/24/1 183/7/1
f 214/36/1 223/37/1 222/18/1
f 221/19/1 222/18/1 223/37/1
f 221/19/1 219/27/1 220/20/1
f 205/32/1 204/40/1 218/31/1
f 217/23/1 210/33/1 212/21/1
f 209/38/1 208/39/1 207/41/1
f 207/41/1 201/42/1 200/43/1
f 216/26/1 214/36/1 215/24/1
f 204/40/1 206/4/1 212/21/1
f 213/6/1 212/21/1 206/4/1
f 211/35/1 209/38/1 210/33/1
f 201/42/1 207/41/1 208/39/1
f 202/44/1 198/45/1 197/46/1
f 206/4/1 204/40/1 205/32/1
f 199/47/1 201/42/1 203/48/1
f 196/49/1 198/45/1 195/50/1
f 199/47/1 203/48/1 202/44/1
f 198/45/1 202/44/1 203/48/1
f 196/49/1 195/50/1 194/51/1
f 194/51/1 193/52/1 192/53/1
f 201/42/1 199/47/1 200/43/1
f 198/45/1 196/49/1 197/46/1
f 193/52/1 194/51/1 195/50/1
f 191/54/1 193/52/1 187/55/1
f 191/54/1 187/55/1 186/56/1
f 184/10/1 190/57/1 185/58/1
f 193/52/1 191/54/1 192/53/1
f 190/57/1 184/10/1 189/12/1
f 183/7/1 185/58/1 188/8/1
f 186/56/1 184/10/1 183/7/1
f 184/10/1 186/56/1 187/55/1
f 185/58/1 183/7/1 184/10/1
f 126/50/2 125/49/2 129/51/2
f 178/22/2 177/57/2 176/12/2
f 160/33/2 162/23/2 176/12/2
f 174/31/2 159/29/2 158/30/2
f 172/48/2 171/47/2 181/44/2
f 178/22/2 176/12/2 162/23/2
f 169/21/2 182/11/2 170/4/2
f 151/24/2 150/9/2 147/7/2
f 181/44/2 127/45/2 172/48/2
f 179/41/2 173/42/2 164/39/2
f 177/57/2 136/59/2 135/58/2
f 169/21/2 176/12/2 182/11/2
f 168/40/2 170/4/2 175/32/2
f 141/28/2 140/27/2 155/1/2
f 147/7/2 167/14/2 166/13/2
f 127/45/2 181/44/2 128/46/2
f 171/47/2 173/42/2 180/43/2
f 173/42/2 179/41/2 180/43/2
f 164/39/2 163/38/2 179/41/2
f 136/59/2 177/57/2 178/22/2
f 176/12/2 169/21/2 160/33/2
f 168/40/2 175/32/2 174/31/2
f 159/29/2 174/31/2 175/32/2
f 144/15/2 143/17/2 157/16/2
f 138/37/2 137/36/2 153/18/2
f 150/9/2 149/5/2 167/14/2
f 146/56/2 148/10/2 133/55/2
f 173/42/2 171/47/2 172/48/2
f 163/38/2 165/35/2 160/33/2
f 161/34/2 160/33/2 165/35/2
f 170/4/2 168/40/2 169/21/2
f 157/16/2 159/29/2 144/15/2
f 155/1/2 145/60/2 141/28/2
f 153/18/2 142/19/2 138/37/2
f 152/25/2 151/24/2 139/26/2
f 134/8/2 136/59/2 149/5/2
f 167/14/2 147/7/2 150/9/2
f 148/10/2 147/7/2 166/13/2
f 133/55/2 132/54/2 146/56/2
f 165/35/2 163/38/2 164/39/2
f 162/23/2 160/33/2 161/34/2
f 159/29/2 157/16/2 158/30/2
f 143/17/2 145/60/2 156/3/2
f 145/60/2 155/1/2 156/3/2
f 140/27/2 142/19/2 154/20/2
f 142/19/2 153/18/2 154/20/2
f 137/36/2 139/26/2 151/24/2
f 150/9/2 151/24/2 152/25/2
f 134/8/2 149/5/2 150/9/2
f 148/10/2 146/56/2 147/7/2
f 132/54/2 131/52/2 130/53/2
f 129/51/2 131/52/2 126/50/2
f 145/60/2 143/17/2 144/15/2
f 142/19/2 140/27/2 141/28/2
f 139/26/2 137/36/2 138/37/2
f 136/59/2 134/8/2 135/58/2
f 127/45/2 125/49/2 126/50/2
f 125/49/2 127/45/2 128/46/2
f 131/52/2 129/51/2 130/53/2
f 131/52/2 132/54/2 133/55/2
f 101/61/3 99/62/4 100/63/4
f 103/64/5 102/65/3 101/61/3
f 105/66/6 104/67/5 103/64/5
f 107/68/7 106/69/6 105/66/6
f 109/70/8 108/71/7 107/68/7
f 111/72/9 110/73/8 109/70/8
f 113/74/10 112/75/9 111/72/9
f 115/76/11 114/77/10 113/74/10
f 117/78/12 116/79/11 115/76/11
f 119/80/13 118/81/12 117/78/12
f 121/82/14 120/83/13 119/80/13
f 123/84/15 122/85/14 121/82/14
f 122/85/14 123/84/15 124/86/15
f 120/83/13 121/82/14 122/85/14
f 118/81/12 119/80/13 120/83/13
f 116/79/11 117/78/12 118/81/12
f 114/77/10 115/76/11 116/79/11
f 112/75/9 113/74/10 114/77/10
f 110/73/8 111/72/9 112/75/9
f 108/71/7 109/70/8 110/73/8
f 106/69/6 107/68/7 108/71/7
f 104/67/5 105/66/6 106/69/6
f 102/65/3 103/64/5 104/67/5
f 99/62/4 101/61/3 102/65/3
f 95/87/16 97/88/16 98/89/16
f 97/88/16 95/87/16 96/90/16
f 71/91/17 69/86/18 70/84/18
f 73/92/19 72/93/17 71/91/17
f 75/94/20 74/95/19 73/92/19
f 77/96/21 76/97/20 75/94/20
f 79/98/22 78/99/21 77/96/21
f 81/100/23 80/101/22 79/98/22
f 83/102/24 82/103/25 81/100/23
f 85/104/26 84/105/24 83/102/24
f 87/106/27 86/107/26 85/104/26
f 89/108/28 88/109/27 87/106/27
f 91/110/29 90/111/28 89/108/28
f 93/63/16 92/112/29 91/110/29
f 92/112/29 93/63/16 94/62/16
f 90/111/28 91/110/29 92/112/29
f 88/109/27 89/108/28 90/111/28
f 86/107/26 87/106/27 88/109/27
f 84/105/24 85/104/26 86/107/26
f 82/103/25 83/102/24 84/105/24
f 80/101/22 81/100/23 82/103/25
f 78/99/21 79/98/22 80/101/22
f 76/97/20 77/96/21 78/99/21
f 74/95/19 75/94/20 76/97/20
f 72/93/17 73/92/19 74/95/19
f 69/86/18 71/91/17 72/93/17
f 65/90/15 67/113/15 68/88/15
f 67/113/15 65/90/15 66/114/15
f 33/115/30 35/88/25 37/116/30
f 36/69/20 37/116/30 39/66/20
f 38/117/31 39/66/20 41/118/31
f 40/62/15 41/118/31 43/63/15
f 42/119/32 43/63/15 45/120/32
f 44/109/12 45/120/32 47/106/12
f 46/121/33 47/106/12 49/122/33
f 48/103/9 49/122/33 51/100/9
f 50/123/34 51/100/9 53/124/34
f 52/97/6 53/124/34 55/94/6
f 54/125/35 55/94/6 57/126/35
f 56/86/4 57/126/35 59/84/16
f 58/127/36 59/84/16 61/128/36
f 60/81/27 61/128/36 63/78/27
f 62/129/37 63/78/27 64/130/37
f 34/131/25 64/130/37 35/88/25
f 64/130/37 34/131/25 62/129/37
f 63/78/27 62/129/37 60/81/27
f 61/128/36 60/81/27 58/127/36
f 59/84/16 58/127/36 56/86/4
f 57/126/35 56/86/4 54/125/35
f 55/94/6 54/125/35 52/97/6
f 53/124/34 52/97/6 50/123/34
f 51/100/9 50/123/34 48/103/9
f 49/122/33 48/103/9 46/121/33
f 47/106/12 46/121/33 44/109/12
f 45/120/32 44/109/12 42/119/32
f 43/63/15 42/119/32 40/62/15
f 41/118/31 40/62/15 38/117/31
f 39/66/20 38/117/31 36/69/20
f 37/116/30 36/69/20 33/115/30
f 35/88/25 33/115/30 34/131/25
f 1/115/30 3/88/25 5/116/30
f 4/69/20 5/116/30 7/66/20
f 6/117/31 7/66/20 9/118/31
f 8/62/15 9/118/31 11/63/15
f 10/119/32 11/63/15 13/120/32
f 12/109/12 13/120/32 15/106/12
f 14/121/33 15/106/12 17/122/33
f 16/103/38 17/122/33 19/100/38
f 18/123/34 19/100/38 21/124/34
f 20/97/6 21/124/34 23/94/6
f 22/125/35 23/94/6 25/126/35
f 24/86/16 25/126/35 27/84/16
f 26/127/36 27/84/16 29/128/36
f 28/81/27 29/128/36 31/78/27
f 30/129/37 31/78/27 32/130/37
f 2/131/25 32/130/37 3/88/25
f 32/130/37 2/131/25 30/129/37
f 31/78/27 30/129/37 28/81/27
f 29/128/36 28/81/27 26/127/36
f 27/84/16 26/127/36 24/86/16
f 25/126/35 24/86/16 22/125/35
f 23/94/6 22/125/35 20/97/6
f 21/124/34 20/97/6 18/123/34
f 19/100/38 18/123/34 16/103/38
f 17/122/33 16/103/38 14/121/33
f 15/106/12 14/121/33 12/109/12
f 13/120/32 12/109/12 10/119/32
f 11/63/15 10/119/32 8/62/15
f 9/118/31 8/62/15 6/117/31
f 7/66/20 6/117/31 4/69/20
f 5/116/30 4/69/20 1/115/30
f 3/88/25 1/115/30 2/131/25
f 471/1/1 473/2/1 476/3/1
f 446/4/1 478/5/1 453/6/1
f 423/7/1 428/8/1 464/9/1
f 424/10/1 479/11/1 429/12/1
f 479/11/1 480/13/1 446/4/1
f 477/14/1 446/4/1 480/13/1
f 470/15/1 469/16/1 475/17/1
f 462/18/1 461/19/1 460/20/1
f 480/13/1 479/11/1 424/10/1
f 478/5/1 446/4/1 477/14/1
f 475/17/1 473/2/1 470/15/1
f 452/21/1 466/22/1 457/23/1
f 455/24/1 474/25/1 456/26/1
f 459/27/1 461/19/1 472/28/1
f 473/2/1 475/17/1 476/3/1
f 469/16/1 468/29/1 467/30/1
f 458/31/1 468/29/1 445/32/1
f 450/33/1 465/34/1 451/35/1
f 455/24/1 464/9/1 474/25/1
f 454/36/1 456/26/1 463/37/1
f 459/27/1 472/28/1 471/1/1
f 473/2/1 471/1/1 472/28/1
f 468/29/1 469/16/1 470/15/1
f 468/29/1 458/31/1 467/30/1
f 452/21/1 453/6/1 466/22/1
f 450/33/1 457/23/1 465/34/1
f 449/38/1 451/35/1 448/39/1
f 464/9/1 455/24/1 423/7/1
f 454/36/1 463/37/1 462/18/1
f 461/19/1 462/18/1 463/37/1
f 461/19/1 459/27/1 460/20/1
f 445/32/1 444/40/1 458/31/1
f 457/23/1 450/33/1 452/21/1
f 449/38/1 448/39/1 447/41/1
f 447/41/1 441/42/1 440/43/1
f 456/26/1 454/36/1 455/24/1
f 444/40/1 446/4/1 452/21/1
f 453/6/1 452/21/1 446/4/1
f 451/35/1 449/38/1 450/33/1
f 441/42/1 447/41/1 448/39/1
f 442/44/1 438/45/1 437/46/1
f 446/4/1 444/40/1 445/32/1
f 439/47/1 441/42/1 443/48/1
f 436/49/1 438/45/1 435/50/1
f 439/47/1 443/48/1 442/44/1
f 438/45/1 442/44/1 443/48/1
f 436/49/1 435/50/1 434/51/1
f 434/51/1 433/52/1 432/53/1
f 441/42/1 439/47/1 440/43/1
f 438/45/1 436/49/1 437/46/1
f 433/52/1 434/51/1 435/50/1
f 431/54/1 433/52/1 427/55/1
f 431/54/1 427/55/1 426/56/1
f 424/10/1 430/57/1 425/58/1
f 433/52/1 431/54/1 432/53/1
f 430/57/1 424/10/1 429/12/1
f 423/7/1 425/58/1 428/8/1
f 426/56/1 424/10/1 423/7/1
f 424/10/1 426/56/1 427/55/1
f 425/58/1 423/7/1 424/10/1
f 366/50/2 365/49/2 369/51/2
f 418/22/2 417/57/2 416/12/2
f 400/33/2 402/23/2 416/12/2
f 414/31/2 399/29/2 398/30/2
f 412/48/2 411/47/2 421/44/2
f 418/22/2 416/12/2 402/23/2
f 409/21/2 422/11/2 410/4/2
f 391/24/2 390/9/2 387/7/2
f 421/44/2 367/45/2 412/48/2
f 419/41/2 413/42/2 404/39/2
f 417/57/2 376/59/2 375/58/2
f 409/21/2 416/12/2 422/11/2
f 408/40/2 410/4/2 415/32/2
f 381/28/2 380/27/2 395/1/2
f 387/7/2 407/14/2 406/13/2
f 367/45/2 421/44/2 368/46/2
f 411/47/2 413/42/2 420/43/2
f 413/42/2 419/41/2 420/43/2
f 404/39/2 403/38/2 419/41/2
f 376/59/2 417/57/2 418/22/2
f 416/12/2 409/21/2 400/33/2
f 408/40/2 415/32/2 414/31/2
f 399/29/2 414/31/2 415/32/2
f 384/15/2 383/17/2 397/16/2
f 378/37/2 377/36/2 393/18/2
f 390/9/2 389/5/2 407/14/2
f 386/56/2 388/10/2 373/55/2
f 413/42/2 411/47/2 412/48/2
f 403/38/2 405/35/2 400/33/2
f 401/34/2 400/33/2 405/35/2
f 410/4/2 408/40/2 409/21/2
f 397/16/2 399/29/2 384/15/2
f 395/1/2 385/60/2 381/28/2
f 393/18/2 382/19/2 378/37/2
f 392/25/2 391/24/2 379/26/2
f 374/8/2 376/59/2 389/5/2
f 407/14/2 387/7/2 390/9/2
f 388/10/2 387/7/2 406/13/2
f 373/55/2 372/54/2 386/56/2
f 405/35/2 403/38/2 404/39/2
f 402/23/2 400/33/2 401/34/2
f 399/29/2 397/16/2 398/30/2
f 383/17/2 385/60/2 396/3/2
f 385/60/2 395/1/2 396/3/2
f 380/27/2 382/19/2 394/20/2
f 382/19/2 393/18/2 394/20/2
f 377/36/2 379/26/2 391/24/2
f 390/9/2 391/24/2 392/25/2
f 374/8/2 389/5/2 390/9/2
f 388/10/2 386/56/2 387/7/2
f 372/54/2 371/52/2 370/53/2
f 369/51/2 371/52/2 366/50/2
f 385/60/2 383/17/2 384/15/2
f 382/19/2 380/27/2 381/28/2
f 379/26/2 377/36/2 378/37/2
f 376/59/2 374/8/2 375/58/2
f 367/45/2 365/49/2 366/50/2
f 365/49/2 367/45/2 368/46/2
f 371/52/2 369/51/2 370/53/2
f 371/52/2 372/54/2 373/55/2
f 341/61/3 339/62/4 340/63/4
f 343/64/5 342/65/3 341/61/3
f 345/66/6 344/67/5 343/64/5
f 347/68/7 346/69/6 345/66/6
f 349/70/8 348/71/7 347/68/7
f 351/72/9 350/73/8 349/70/8
f 353/74/10 352/75/9 351/72/9
f 355/76/11 354/77/10 353/74/10
f 357/78/12 356/79/11 355/76/11
f 359/80/13 358/81/12 357/78/12
f 361/82/14 360/83/13 359/80/13
f 363/84/15 362/85/14 361/82/14
f 362/85/14 363/84/15 364/86/15
f 360/83/13 361/82/14 362/85/14
f 358/81/12 359/80/13 360/83/13
f 356/79/11 357/78/12 358/81/12
f 354/77/10 355/76/11 356/79/11
f 352/75/9 353/74/10 354/77/10
f 350/73/8 351/72/9 352/75/9
f 348/71/7 349/70/8 350/73/8
f 346/69/6 347/68/7 348/71/7
f 344/67/5 345/66/6 346/69/6
f 342/65/3 343/64/5 344/67/5
f 339/62/4 341/61/3 342/65/3
f 335/87/16 337/88/16 338/89/16
f 337/88/16 335/87/16 336/90/16
f 311/91/17 309/86/18 310/84/18
f 313/92/19 312/93/17 311/91/17
f 315/94/20 314/95/19 313/92/19
f 317/96/21 316/97/20 315/94/20
f 319/98/22 318/99/21 317/96/21
f 321/100/23 320/101/22 319/98/22
f 323/102/24 322/103/25 321/100/23
f 325/104/26 324/105/24 323/102/24
f 327/106/27 326/107/26 325/104/26
f 329/108/28 328/109/27 327/106/27
f 331/110/29 330/111/28 329/108/28
f 333/63/16 332/112/29 331/110/29
f 332/112/29 333/63/16 334/62/16
f 330/111/28 331/110/29 332/112/29
f 328/109/27 329/108/28 330/111/28
f 326/107/26 327/106/27 328/109/27
f 324/105/24 325/104/26 326/107/26
f 322/103/25 323/102/24 324/105/24
f 320/101/22 321/100/23 322/103/25
f 318/99/21 319/98/22 320/101/22
f 316/97/20 317/96/21 318/99/21
f 314/95/19 315/94/20 316/97/20
f 312/93/17 313/92/19 314/95/19
f 309/86/18 311/91/17 312/93/17
f 305/90/15 307/113/15 308/88/15
f 307/113/15 305/90/15 306/114/15
f 273/115/30 275/88/25 277/116/30
f 276/69/20 277/116/30 279/66/20
f 278/117/31 279/66/20 281/118/31
f 280/62/15 281/118/31 283/63/15
f 282/119/32 283/63/15 285/120/32
f 284/109/12 285/120/32 287/106/12
f 286/121/33 287/106/12 289/122/33
f 288/103/9 289/122/33 291/100/9
f 290/123/34 291/100/9 293/124/34
f 292/97/6 293/124/34 295/94/6
f 294/125/35 295/94/6 297/126/35
f 296/86/4 297/126/35 299/84/16
f 298/127/36 299/84/16 301/128/36
f 300/81/27 301/128/36 303/78/27
f 302/129/37 303/78/27 304/130/37
f 274/131/25 304/130/37 275/88/25
f 304/130/37 274/131/25 302/129/37
f 303/78/27 302/129/37 300/81/27
f 301/128/36 300/81/27 298/127/36
f 299/84/16 298/127/36 296/86/4
f 297/126/35 296/86/4 294/125/35
f 295/94/6 294/125/35 292/97/6
f 293/124/34 292/97/6 290/123/34
f 291/100/9 290/123/34 288/103/9
f 289/122/33 288/103/9 286/121/33
f 287/106/12 286/121/33 284/109/12
f 285/120/32 284/109/12 282/119/32
f 283/63/15 282/119/32 280/62/15
f 281/118/31 280/62/15 278/117/31
f 279/66/20 278/117/31 276/69/20
f 277/116/30 276/69/20 273/115/30
f 275/88/25 273/115/30 274/131/25
f 241/115/30 243/88/25 245/116/30
f 244/69/20 245/116/30 247/66/20
f 246/117/31 247/66/20 249/118/31
f 248/62/15 249/118/31 251/63/15
f 250/119/32 251/63/15 253/120/32
f 252/109/12 253/120/32 255/106/12
f 254/121/33 255/106/12 257/122/33
f 256/103/38 257/122/33 259/100/38
f 258/123/34 259/100/38 261/124/34
f 260/97/6 261/124/34 263/94/6
f 262/125/35 263/94/6 265/126/35
f 264/86/16 265/126/35 267/84/16
f 266/127/36 267/84/16 269/128/36
f 268/81/27 269/128/36 271/78/27
f 270/129/37 271/78/27 272/130/37
f 242/131/25 272/130/37 243/88/25
f 272/130/37 242/131/25 270/129/37
f 271/78/27 270/129/37 268/81/27
f 269/128/36 268/81/27 266/127/36
f 267/84/16 266/127/36 264/86/16
f 265/126/35 264/86/16 262/125/35
f 263/94/6 262/125/35 260/97/6
f 261/124/34 260/97/6 258/123/34
f 259/100/38 258/123/34 256/103/38
f 257/122/33 256/103/38 254/121/33
f 255/106/12 254/121/33 252/109/12
f 253/120/32 252/109/12 250/119/32
f 251/63/15 250/119/32 248/62/15
f 249/118/31 248/62/15 246/117/31
f 247/66/20 246/117/31 244/69/20
f 245/116/30 244/69/20 241/115/30
f 243/88/25 241/115/30 242/131/25
