# Blender 4.5.4 LTS
# www.blender.org
mtllib LP.mtl
o LP
v -0.005260 -0.008508 0.009996
v -0.006689 -0.007437 0.009996
v -0.001125 -0.000996 0.009996
v -0.001949 -0.009810 0.009996
v -0.000534 -0.001404 0.009996
v 0.000178 -0.001491 0.009996
v -0.008869 -0.004626 0.009996
v -0.001459 -0.000361 0.009996
v -0.001459 0.000357 0.009996
v -0.001502 -0.000002 0.009996
v -0.000173 -0.010000 0.009996
v -0.003663 -0.009308 0.009996
v -0.002124 0.002120 0.009996
v -0.001125 0.000993 0.009996
v -0.000349 0.002978 0.009996
v 0.000178 0.001487 0.009996
v -0.000534 0.001401 0.009996
v 0.002326 0.001890 0.009996
v 0.001326 0.000695 0.009996
v 0.000850 0.001233 0.009996
v -0.007905 -0.006129 0.009996
v -0.001309 0.002699 0.009996
v 0.001575 0.002550 0.009996
v 0.002818 0.001021 0.009996
v 0.002997 0.000037 0.009996
v 0.001498 -0.000002 0.009996
v 0.002844 -0.000950 0.009996
v 0.000850 -0.001236 0.009996
v 0.000649 0.002927 0.009996
v 0.001326 -0.000699 0.009996
v 0.002844 -0.000950 -0.010004
v 0.001326 -0.000699 -0.010004
v 0.000850 -0.001236 -0.010004
v 0.002326 0.001890 -0.010004
v 0.001575 0.002550 -0.010004
v 0.000850 0.001233 -0.010004
v -0.005260 -0.008508 -0.010004
v -0.000534 -0.001404 -0.010004
v -0.001125 -0.000996 -0.010004
v -0.000173 -0.010000 -0.010004
v 0.002997 0.000037 -0.010004
v 0.001498 -0.000002 -0.010004
v 0.002818 0.001021 -0.010004
v 0.001326 0.000695 -0.010004
v -0.000349 0.002978 -0.010004
v -0.001309 0.002699 -0.010004
v -0.000534 0.001401 -0.010004
v -0.006689 -0.007437 -0.010004
v -0.001949 -0.009810 -0.010004
v 0.000178 -0.001491 -0.010004
v 0.000178 0.001487 -0.010004
v 0.000649 0.002927 -0.010004
v -0.002124 0.002120 -0.010004
v -0.001125 0.000993 -0.010004
v -0.008869 -0.004626 -0.010004
v -0.001459 0.000357 -0.010004
v -0.007905 -0.006129 -0.010004
v -0.003663 -0.009308 -0.010004
v -0.001502 -0.000002 -0.010004
v -0.001459 -0.000361 -0.010004
v -0.001949 -0.009810 0.009996
v -0.000173 -0.010000 0.009996
v -0.000173 -0.010000 -0.010004
v -0.003663 -0.009308 0.009996
v -0.001949 -0.009810 -0.010004
v -0.005260 -0.008508 0.009996
v -0.003663 -0.009308 -0.010004
v -0.006689 -0.007437 0.009996
v -0.005260 -0.008508 -0.010004
v -0.007905 -0.006129 0.009996
v -0.006689 -0.007437 -0.010004
v -0.008869 -0.004626 0.009996
v -0.007905 -0.006129 -0.010004
v -0.008869 -0.004626 -0.010004
v -0.018674 -0.059305 -0.015004
v -0.018502 -0.060002 -0.015004
v -0.018502 -0.060002 0.014996
v -0.019150 -0.058767 -0.015004
v -0.018674 -0.059305 0.014996
v -0.019822 -0.058513 -0.015004
v -0.019150 -0.058767 0.014996
v -0.020534 -0.058599 -0.015004
v -0.019822 -0.058513 0.014996
v -0.021125 -0.059007 -0.015004
v -0.020534 -0.058599 0.014996
v -0.021459 -0.059643 -0.015004
v -0.021125 -0.059007 0.014996
v -0.021459 -0.060361 -0.015004
v -0.021502 -0.060002 -0.015004
v -0.021502 -0.060002 0.014996
v -0.021459 -0.059643 0.014996
v -0.021125 -0.060996 -0.015004
v -0.021459 -0.060361 0.014996
v -0.020534 -0.061404 -0.015004
v -0.021125 -0.060996 0.014996
v -0.019822 -0.061491 -0.015004
v -0.020534 -0.061404 0.014996
v -0.019150 -0.061236 -0.015004
v -0.019822 -0.061491 0.014996
v -0.018674 -0.060699 -0.015004
v -0.019150 -0.061236 0.014996
v -0.018674 -0.060699 0.014996
v 0.001326 0.000695 0.009996
v 0.001498 -0.000002 0.009996
v 0.001498 -0.000002 0.014996
v 0.000850 0.001233 0.009996
v 0.001326 0.000695 0.014996
v 0.000178 0.001487 0.009996
v 0.000850 0.001233 0.014996
v -0.000534 0.001401 0.009996
v 0.000178 0.001487 0.014996
v -0.001125 0.000993 0.009996
v -0.000534 0.001401 0.014996
v -0.001459 0.000357 0.009996
v -0.001125 0.000993 0.014996
v -0.001459 -0.000361 0.009996
v -0.001502 -0.000002 0.009996
v -0.001502 -0.000002 0.014996
v -0.001459 0.000357 0.014996
v -0.001125 -0.000996 0.009996
v -0.001459 -0.000361 0.014996
v -0.000534 -0.001404 0.009996
v -0.001125 -0.000996 0.014996
v 0.000178 -0.001491 0.009996
v -0.000534 -0.001404 0.014996
v 0.000850 -0.001236 0.009996
v 0.000178 -0.001491 0.014996
v 0.001326 -0.000699 0.009996
v 0.000850 -0.001236 0.014996
v 0.001326 -0.000699 0.014996
v -0.018674 -0.019305 -0.015004
v -0.018502 -0.020002 -0.015004
v -0.018502 -0.020002 0.014996
v -0.019150 -0.018767 -0.015004
v -0.018674 -0.019305 0.014996
v -0.019822 -0.018513 -0.015004
v -0.019150 -0.018767 0.014996
v -0.020534 -0.018599 -0.015004
v -0.019822 -0.018513 0.014996
v -0.021125 -0.019007 -0.015004
v -0.020534 -0.018599 0.014996
v -0.021459 -0.019643 -0.015004
v -0.021125 -0.019007 0.014996
v -0.021459 -0.020361 -0.015004
v -0.021502 -0.020002 -0.015004
v -0.021502 -0.020002 0.014996
v -0.021459 -0.019643 0.014996
v -0.021125 -0.020996 -0.015004
v -0.021459 -0.020361 0.014996
v -0.020534 -0.021404 -0.015004
v -0.021125 -0.020996 0.014996
v -0.019822 -0.021491 -0.015004
v -0.020534 -0.021404 0.014996
v -0.019150 -0.021236 -0.015004
v -0.019822 -0.021491 0.014996
v -0.018674 -0.020699 -0.015004
v -0.019150 -0.021236 0.014996
v -0.018674 -0.020699 0.014996
v -0.017156 -0.060950 -0.015004
v -0.017156 -0.060950 0.014996
v -0.017659 -0.061875 0.014996
v -0.017659 -0.061875 -0.015004
v -0.018449 -0.062569 0.014996
v -0.018449 -0.062569 -0.015004
v -0.019431 -0.062947 0.014996
v -0.019431 -0.062947 -0.015004
v -0.020483 -0.062963 0.014996
v -0.020483 -0.062963 -0.015004
v -0.021476 -0.062615 0.014996
v -0.021476 -0.062615 -0.015004
v -0.022287 -0.061946 0.014996
v -0.022287 -0.061946 -0.015004
v -0.022818 -0.061037 0.014996
v -0.022818 -0.061037 -0.015004
v -0.023002 -0.060002 0.014996
v -0.023002 -0.060002 -0.015004
v -0.023002 -0.060002 -0.015004
v -0.023002 -0.060002 0.014996
v -0.023002 -0.020002 0.014996
v -0.023002 -0.020002 -0.015004
v -0.023002 -0.020002 -0.015004
v -0.023002 -0.020002 0.014996
v -0.022900 -0.019225 0.014996
v -0.022900 -0.019225 -0.015004
v -0.022600 -0.018502 0.014996
v -0.022600 -0.018502 -0.015004
v -0.022124 -0.017880 0.014996
v -0.022124 -0.017880 -0.015004
v -0.002124 0.002120 0.009996
v -0.002124 0.002120 0.014996
v -0.001309 0.002699 0.014996
v -0.001309 0.002699 0.009996
v -0.000349 0.002978 0.014996
v -0.000349 0.002978 0.009996
v 0.000649 0.002927 0.014996
v 0.000649 0.002927 0.009996
v 0.001575 0.002550 0.014996
v 0.001575 0.002550 0.009996
v 0.002326 0.001890 0.014996
v 0.002326 0.001890 0.009996
v 0.002818 0.001021 0.014996
v 0.002818 0.001021 0.009996
v 0.002997 0.000037 0.014996
v 0.002997 0.000037 0.009996
v 0.002844 -0.000950 0.014996
v 0.002844 -0.000950 0.009996
v -0.018674 -0.019305 -0.015004
v -0.019150 -0.018767 -0.015004
v -0.001125 -0.000996 -0.015004
v -0.019822 -0.018513 -0.015004
v -0.002124 0.002120 -0.015004
v -0.001459 0.000357 -0.015004
v -0.000534 -0.001404 -0.015004
v -0.001502 -0.000002 -0.015004
v 0.000178 -0.001491 -0.015004
v -0.018502 -0.020002 -0.015004
v -0.001459 -0.000361 -0.015004
v -0.000349 0.002978 -0.015004
v 0.000178 0.001487 -0.015004
v -0.000534 0.001401 -0.015004
v 0.002326 0.001890 -0.015004
v 0.001326 0.000695 -0.015004
v 0.000850 0.001233 -0.015004
v -0.001125 0.000993 -0.015004
v -0.001309 0.002699 -0.015004
v 0.001575 0.002550 -0.015004
v 0.002818 0.001021 -0.015004
v 0.002997 0.000037 -0.015004
v 0.001498 -0.000002 -0.015004
v -0.023002 -0.060002 -0.015004
v -0.021502 -0.060002 -0.015004
v -0.021459 -0.060361 -0.015004
v -0.023002 -0.020002 -0.015004
v -0.021502 -0.020002 -0.015004
v -0.019822 -0.058513 -0.015004
v -0.022900 -0.019225 -0.015004
v -0.021459 -0.019643 -0.015004
v -0.022600 -0.018502 -0.015004
v -0.021125 -0.019007 -0.015004
v 0.000649 0.002927 -0.015004
v -0.022818 -0.061037 -0.015004
v -0.021125 -0.060996 -0.015004
v -0.021459 -0.059643 -0.015004
v 0.000850 -0.001236 -0.015004
v -0.020534 -0.018599 -0.015004
v -0.021125 -0.059007 -0.015004
v -0.022124 -0.017880 -0.015004
v 0.002844 -0.000950 -0.015004
v 0.001326 -0.000699 -0.015004
v -0.020534 -0.058599 -0.015004
v -0.019822 -0.021491 -0.015004
v -0.019150 -0.058767 -0.015004
v -0.021459 -0.020361 -0.015004
v -0.020483 -0.062963 -0.015004
v -0.020534 -0.061404 -0.015004
v -0.019822 -0.061491 -0.015004
v -0.018674 -0.059305 -0.015004
v -0.018674 -0.020699 -0.015004
v -0.019150 -0.021236 -0.015004
v -0.021125 -0.020996 -0.015004
v -0.019431 -0.062947 -0.015004
v -0.019150 -0.061236 -0.015004
v -0.021476 -0.062615 -0.015004
v -0.022287 -0.061946 -0.015004
v -0.020534 -0.021404 -0.015004
v -0.017659 -0.061875 -0.015004
v -0.018449 -0.062569 -0.015004
v -0.017156 -0.060950 -0.015004
v -0.018502 -0.060002 -0.015004
v -0.018674 -0.060699 -0.015004
v 0.000850 -0.001236 0.014996
v -0.021125 -0.019007 0.014996
v -0.020534 -0.018599 0.014996
v 0.002844 -0.000950 0.014996
v 0.001326 -0.000699 0.014996
v 0.002326 0.001890 0.014996
v 0.001575 0.002550 0.014996
v 0.000850 0.001233 0.014996
v -0.022600 -0.018502 0.014996
v -0.022900 -0.019225 0.014996
v -0.021459 -0.019643 0.014996
v -0.019150 -0.058767 0.014996
v -0.018502 -0.020002 0.014996
v -0.019822 -0.018513 0.014996
v 0.002997 0.000037 0.014996
v 0.001498 -0.000002 0.014996
v 0.002818 0.001021 0.014996
v 0.001326 0.000695 0.014996
v -0.000349 0.002978 0.014996
v -0.001309 0.002699 0.014996
v -0.000534 0.001401 0.014996
v -0.022124 -0.017880 0.014996
v -0.001125 -0.000996 0.014996
v -0.018674 -0.019305 0.014996
v 0.000178 0.001487 0.014996
v 0.000649 0.002927 0.014996
v -0.002124 0.002120 0.014996
v -0.001125 0.000993 0.014996
v -0.001502 -0.000002 0.014996
v -0.001459 0.000357 0.014996
v -0.023002 -0.020002 0.014996
v -0.021502 -0.020002 0.014996
v -0.019822 -0.058513 0.014996
v -0.017659 -0.061875 0.014996
v -0.018674 -0.060699 0.014996
v -0.019150 -0.061236 0.014996
v -0.019150 -0.018767 0.014996
v -0.001459 -0.000361 0.014996
v 0.000178 -0.001491 0.014996
v -0.000534 -0.001404 0.014996
v -0.023002 -0.060002 0.014996
v -0.021125 -0.020996 0.014996
v -0.020534 -0.021404 0.014996
v -0.020534 -0.058599 0.014996
v -0.021459 -0.059643 0.014996
v -0.021125 -0.059007 0.014996
v -0.018449 -0.062569 0.014996
v -0.021459 -0.020361 0.014996
v -0.021502 -0.060002 0.014996
v -0.022818 -0.061037 0.014996
v -0.021459 -0.060361 0.014996
v -0.022287 -0.061946 0.014996
v -0.021125 -0.060996 0.014996
v -0.020483 -0.062963 0.014996
v -0.019431 -0.062947 0.014996
v -0.019822 -0.061491 0.014996
v -0.017156 -0.060950 0.014996
v -0.018502 -0.060002 0.014996
v -0.018674 -0.059305 0.014996
v -0.018674 -0.020699 0.014996
v -0.021476 -0.062615 0.014996
v -0.020534 -0.061404 0.014996
v -0.019822 -0.021491 0.014996
v -0.019150 -0.021236 0.014996
v 0.001326 0.000695 -0.015004
v 0.001498 -0.000002 -0.015004
v 0.001498 -0.000002 -0.010004
v 0.000850 0.001233 -0.015004
v 0.001326 0.000695 -0.010004
v 0.000178 0.001487 -0.015004
v 0.000850 0.001233 -0.010004
v -0.000534 0.001401 -0.015004
v 0.000178 0.001487 -0.010004
v -0.001125 0.000993 -0.015004
v -0.000534 0.001401 -0.010004
v -0.001459 0.000357 -0.015004
v -0.001125 0.000993 -0.010004
v -0.001459 -0.000361 -0.015004
v -0.001502 -0.000002 -0.015004
v -0.001502 -0.000002 -0.010004
v -0.001459 0.000357 -0.010004
v -0.001125 -0.000996 -0.015004
v -0.001459 -0.000361 -0.010004
v -0.000534 -0.001404 -0.015004
v -0.001125 -0.000996 -0.010004
v 0.000178 -0.001491 -0.015004
v -0.000534 -0.001404 -0.010004
v 0.000850 -0.001236 -0.015004
v 0.000178 -0.001491 -0.010004
v 0.001326 -0.000699 -0.015004
v 0.000850 -0.001236 -0.010004
v 0.001326 -0.000699 -0.010004
v 0.002844 -0.000950 0.014996
v -0.017156 -0.060950 0.014996
v -0.000173 -0.010000 0.009996
v -0.017156 -0.060950 -0.015004
v -0.000173 -0.010000 -0.010004
v 0.002844 -0.000950 -0.015004
v 0.002844 -0.000950 -0.010004
v 0.002844 -0.000950 0.009996
v -0.022124 -0.017880 -0.015004
v -0.022124 -0.017880 0.014996
v -0.008869 -0.004626 0.009996
v -0.002124 0.002120 0.014996
v -0.002124 0.002120 0.009996
v -0.002124 0.002120 -0.015004
v -0.008869 -0.004626 -0.010004
v -0.002124 0.002120 -0.010004
v -0.002124 0.002120 -0.015004
v -0.002124 0.002120 -0.010004
v -0.001309 0.002699 -0.010004
v -0.001309 0.002699 -0.015004
v -0.000349 0.002978 -0.010004
v -0.000349 0.002978 -0.015004
v 0.000649 0.002927 -0.010004
v 0.000649 0.002927 -0.015004
v 0.001575 0.002550 -0.010004
v 0.001575 0.002550 -0.015004
v 0.002326 0.001890 -0.010004
v 0.002326 0.001890 -0.015004
v 0.002818 0.001021 -0.010004
v 0.002818 0.001021 -0.015004
v 0.002997 0.000037 -0.010004
v 0.002997 0.000037 -0.015004
v 0.002844 -0.000950 -0.010004
v 0.002844 -0.000950 -0.015004
vn -0.7071 0.7071 -0.0000
vn -0.4356 0.9002 -0.0000
vn -0.1157 0.9933 -0.0000
vn 0.2171 0.9762 -0.0000
vn 0.5257 0.8506 -0.0000
vn 0.5257 0.8507 -0.0000
vn 0.7760 0.6307 -0.0000
vn 0.9401 0.3408 -0.0000
vn 0.9999 0.0130 -0.0000
vn 0.9487 -0.3162 -0.0000
vn -0.5681 -0.8230 -0.0000
vn -0.8855 -0.4647 -0.0000
vn -1.0000 -0.0000 -0.0000
vn -0.1205 -0.9927 -0.0000
vn 0.3546 -0.9350 -0.0000
vn 0.7485 -0.6631 -0.0000
vn 0.9709 -0.2393 -0.0000
vn 0.7485 0.6631 -0.0000
vn 0.9709 0.2393 -0.0000
vn 0.3546 0.9350 -0.0000
vn -0.1205 0.9927 -0.0000
vn -0.5681 0.8230 -0.0000
vn -0.8855 0.4647 -0.0000
vn 1.0000 -0.0000 -0.0000
vn -0.0000 -0.0000 1.0000
vn 0.0005 -0.0000 1.0000
vn -0.0000 -0.0000 -1.0000
vn -0.9659 0.2588 -0.0000
vn -0.8660 0.5000 -0.0000
vn 0.5176 -0.8556 -0.0000
vn 0.7812 -0.6243 -0.0000
vn 0.1904 -0.9817 -0.0000
vn -0.1602 -0.9871 -0.0000
vn -0.4911 -0.8711 -0.0000
vn -0.7616 -0.6480 -0.0000
vn -0.9385 -0.3452 -0.0000
vn -1.0000 -0.0001 -0.0000
vn 0.9487 -0.3163 -0.0000
vn 0.3660 0.9306 -0.0000
vn 0.1946 0.9809 -0.0000
vn 0.6687 0.7436 -0.0000
vn 0.7903 0.6128 -0.0000
vn 0.8867 0.4624 -0.0000
vn 0.0171 0.9999 -0.0000
vt 3.926991 0.030000
vt 4.261734 0.025000
vt 4.261734 0.030000
vt 4.596477 0.025000
vt 4.596477 0.030000
vt 4.931220 0.025000
vt 4.931220 0.030000
vt 5.265964 0.025000
vt 5.265964 0.030000
vt 5.600707 0.025000
vt 5.600707 0.030000
vt 5.935450 0.025000
vt 5.935450 0.030000
vt 6.270193 0.025000
vt 6.270193 0.030000
vt 6.604936 0.025000
vt 6.604936 0.030000
vt 3.926991 0.025000
vt 0.000000 -0.030000
vt 0.018745 -0.005000
vt 0.018745 -0.025000
vt 0.028284 0.000000
vt 0.000000 0.000000
vt 0.028284 -0.030000
vt 0.028284 -0.005000
vt 0.028284 -0.025000
vt 0.009539 -0.005000
vt 0.063246 -0.030000
vt 0.009539 -0.025000
vt 0.063246 0.000000
vt 0.000000 -0.030000
vt 0.000000 -0.025000
vt 0.000000 0.000000
vt 0.000000 -0.005000
vt 5.316541 0.030000
vt -0.483322 0.025000
vt 5.316541 0.025000
vt -0.483322 0.030000
vt 0.000000 0.025000
vt 4.833220 0.030000
vt 4.833220 0.025000
vt 4.349897 0.030000
vt 4.349897 0.025000
vt 3.866575 0.030000
vt 3.866575 0.025000
vt 3.383254 0.030000
vt 3.383254 0.025000
vt 2.416610 0.030000
vt 2.899932 0.025000
vt 2.416610 0.025000
vt 1.933288 0.030000
vt 1.933288 0.025000
vt 1.449966 0.030000
vt 1.449966 0.025000
vt 0.966644 0.030000
vt 0.966644 0.025000
vt 0.483322 0.030000
vt 0.483322 0.025000
vt 0.000000 0.030000
vt 2.899932 0.030000
vt 3.141593 0.030000
vt 3.141593 0.025000
vt -0.000852 0.001234
vt -0.002846 0.000949
vt -0.001328 0.000697
vt -0.000852 -0.001234
vt -0.002328 -0.001892
vt -0.001577 -0.002552
vt 0.021456 0.019641
vt 0.022598 0.018500
vt 0.022898 0.019224
vt 0.018500 0.020000
vt 0.019148 0.058766
vt 0.020532 0.018597
vt 0.019819 0.018511
vt -0.001500 0.000000
vt -0.003000 -0.000039
vt -0.002820 -0.001022
vt -0.001328 -0.000697
vt 0.000532 -0.001403
vt 0.000347 -0.002980
vt 0.001307 -0.002700
vt 0.001123 0.000995
vt 0.022121 0.017879
vt 0.021123 0.019005
vt 0.018672 0.019303
vt -0.000181 -0.001489
vt -0.000651 -0.002928
vt 0.001123 -0.000995
vt 0.002121 -0.002121
vt 0.001456 -0.000359
vt 0.001500 0.000000
vt 0.023000 0.020000
vt 0.021500 0.020000
vt 0.019819 0.058511
vt 0.019148 0.061234
vt 0.017656 0.061873
vt 0.018672 0.060697
vt 0.019148 0.018766
vt 0.001456 0.000359
vt 0.000532 0.001403
vt -0.000181 0.001489
vt 0.021123 0.020995
vt 0.023000 0.060000
vt 0.020532 0.021403
vt 0.020532 0.058597
vt 0.021123 0.059005
vt 0.021456 0.059641
vt 0.018447 0.062567
vt 0.021456 0.020359
vt 0.021500 0.060000
vt 0.021456 0.060359
vt 0.022816 0.061036
vt 0.021123 0.060995
vt 0.022285 0.061944
vt 0.019819 0.061489
vt 0.020481 0.062961
vt 0.019429 0.062945
vt 0.017154 0.060949
vt 0.018500 0.060000
vt 0.018672 0.059303
vt 0.018672 0.020697
vt 0.021473 0.062613
vt 0.020532 0.061403
vt 0.019819 0.021489
vt 0.019148 0.021234
vt 3.926991 0.005000
vt 4.261734 0.000000
vt 4.261734 0.005000
vt 4.596477 0.000000
vt 4.596477 0.005000
vt 4.931220 0.000000
vt 4.931220 0.005000
vt 5.265964 0.000000
vt 5.265964 0.005000
vt 5.600707 0.000000
vt 5.600707 0.005000
vt 5.935450 0.000000
vt 5.935450 0.005000
vt 6.270193 0.000000
vt 6.270193 0.005000
vt 6.604936 0.000000
vt 6.604936 0.005000
vt 3.926991 0.000000
vt 3.403392 0.030000
vt 3.665191 0.000000
vt 3.665191 0.030000
vt 3.403392 0.000000
vt 3.141593 0.000000
vt -0.030000 0.000000
vt 0.000000 -0.040000
vt -0.030000 -0.040000
vt 1.026711 -0.000000
vt 0.674231 0.030000
vt 0.674231 -0.000000
vt 1.379191 -0.000000
vt 1.026711 0.030000
vt 1.731672 -0.000000
vt 1.379191 0.030000
vt 2.084152 -0.000000
vt 1.731672 0.030000
vt 2.436632 -0.000000
vt 2.084152 0.030000
vt 2.789112 -0.000000
vt 2.436632 0.030000
vt 2.789112 0.030000
vt 0.321751 0.030000
vt 0.321751 -0.000000
vt 4.833220 -0.000000
vt -0.483322 -0.000000
vt 3.383254 -0.000000
vt 5.316541 -0.000000
vt 4.349897 -0.000000
vt 3.866575 -0.000000
vt 2.899932 -0.000000
vt 2.416610 -0.000000
vt 1.933288 -0.000000
vt 1.449966 -0.000000
vt 0.966644 -0.000000
vt 0.483322 -0.000000
vt 3.383254 0.005000
vt 3.866575 0.005000
vt 4.349897 0.005000
vt 4.833220 0.005000
vt 5.316541 0.005000
vt -0.483322 0.005000
vt 0.000000 0.005000
vt 3.141593 0.005000
vt 2.416610 0.005000
vt 2.899932 0.005000
vt 1.933288 0.005000
vt 1.449966 0.005000
vt 0.966644 0.005000
vt 0.483322 0.005000
vt 1.017222 0.020000
vt 1.196061 0.000000
vt 1.017222 0.000000
vt 1.374900 0.000000
vt 1.196061 0.020000
vt 1.374900 0.020000
vt 0.838383 0.020000
vt 0.838383 0.000000
vt 0.659544 0.020000
vt 0.659544 0.000000
vt 0.480705 0.020000
vt 0.480705 0.000000
vt 1.553738 0.000000
vt 1.553738 0.020000
vt 0.005257 0.008507
vt 0.006687 0.007436
vt 0.008867 0.004624
vt 0.000171 0.009999
vt 0.003660 0.009306
vt 0.001946 0.009809
vt 0.007903 0.006128
s 1
usemtl mat1.016
f 379/1/1 381/2/2 382/3/2
f 382/3/2 383/4/3 384/5/3
f 384/5/3 385/6/4 386/7/4
f 386/7/4 387/8/5 388/9/6
f 388/9/6 389/10/7 390/11/7
f 390/11/7 391/12/8 392/13/8
f 392/13/8 393/14/9 394/15/9
f 394/15/9 395/16/10 396/17/10
f 395/16/10 394/15/9 393/14/9
f 393/14/9 392/13/8 391/12/8
f 391/12/8 390/11/7 389/10/7
f 389/10/7 388/9/6 387/8/5
f 387/8/5 386/7/4 385/6/4
f 385/6/4 384/5/3 383/4/3
f 383/4/3 382/3/2 381/2/2
f 381/2/2 379/1/1 380/18/1
f 371/19/1 373/20/1 377/21/1
f 374/22/1 373/20/1 372/23/1
f 377/21/1 376/24/1 371/19/1
f 373/20/1 374/22/1 375/25/1
f 373/20/1 371/19/1 372/23/1
f 376/24/1 377/21/1 378/26/1
f 365/27/10 366/28/10 367/29/10
f 366/28/10 365/27/10 364/30/10
f 367/29/10 368/31/10 369/32/10
f 363/33/10 365/27/10 370/34/10
f 368/31/10 367/29/10 366/28/10
f 365/27/10 363/33/10 364/30/10
f 338/35/11 339/36/12 341/37/11
f 335/38/12 337/39/13 339/36/12
f 340/40/14 341/37/11 343/41/14
f 342/42/15 343/41/14 345/43/15
f 344/44/16 345/43/15 347/45/16
f 346/46/17 347/45/16 351/47/17
f 352/48/18 353/49/19 355/50/18
f 354/51/20 355/50/18 357/52/20
f 356/53/21 357/52/20 359/54/21
f 358/55/22 359/54/21 361/56/22
f 360/57/23 361/56/22 362/58/23
f 336/59/13 362/58/23 337/39/13
f 362/58/23 336/59/13 360/57/23
f 361/56/22 360/57/23 358/55/22
f 359/54/21 358/55/22 356/53/21
f 357/52/20 356/53/21 354/51/20
f 355/50/18 354/51/20 352/48/18
f 353/49/19 352/48/18 348/60/19
f 351/47/17 349/61/24 346/46/17
f 349/61/24 351/47/17 350/62/24
f 350/62/24 348/60/19 349/61/24
f 337/39/13 335/38/12 336/59/13
f 339/36/12 338/35/11 335/38/12
f 341/37/11 340/40/14 338/35/11
f 343/41/14 342/42/15 340/40/14
f 345/43/15 344/44/16 342/42/15
f 347/45/16 346/46/17 344/44/16
f 348/60/19 350/62/24 353/49/19
f 271/63/25 274/64/25 275/65/25
f 278/66/25 276/67/25 277/68/25
f 281/69/25 279/70/25 280/71/25
f 283/72/25 282/73/25 274/64/25
f 271/63/25 273/74/25 274/64/25
f 274/64/25 273/74/25 284/75/25
f 286/76/25 274/64/25 285/77/25
f 286/76/25 287/78/25 288/79/25
f 276/67/25 288/79/25 287/78/25
f 291/80/25 289/81/25 290/82/25
f 293/83/25 292/84/25 272/85/25
f 279/70/25 272/85/25 292/84/25
f 283/72/25 274/64/25 294/86/25
f 274/64/25 286/76/25 275/65/25
f 276/67/25 278/66/25 288/79/25
f 289/81/25 295/87/25 296/88/25
f 298/89/25 290/82/25 297/90/25
f 300/91/25 292/84/25 299/92/25
f 279/70/25 281/69/25 272/85/25
f 281/69/25 301/93/25 302/94/25
f 282/73/25 283/72/25 303/95/25
f 287/78/25 286/76/25 285/77/25
f 278/66/25 296/88/25 295/87/25
f 290/82/25 298/89/25 291/80/25
f 292/84/25 300/91/25 297/90/25
f 301/93/25 281/69/25 280/71/25
f 306/96/25 304/97/25 305/98/25
f 294/86/25 274/64/25 307/99/25
f 296/88/25 278/66/25 277/68/25
f 297/90/25 300/91/25 298/89/25
f 292/84/25 293/83/25 308/100/25
f 310/101/25 272/85/25 309/102/25
f 312/103/25 301/93/25 311/104/25
f 303/95/25 313/105/25 314/106/25
f 316/107/25 311/104/25 315/108/25
f 304/97/25 306/96/25 317/109/25
f 307/99/25 274/64/25 284/75/25
f 289/81/25 291/80/25 295/87/25
f 272/85/25 310/101/25 293/83/25
f 301/93/25 312/103/25 318/110/25
f 314/106/25 313/105/25 316/107/25
f 315/108/25 311/104/25 319/111/25
f 321/112/25 311/104/25 320/113/25
f 323/114/25 320/113/25 322/115/25
f 326/116/25 324/117/25 325/118/25
f 305/98/25 327/119/25 328/120/25
f 329/121/25 327/119/25 274/64/25
f 309/102/25 272/85/25 271/63/25
f 312/103/25 311/104/25 313/105/25
f 311/104/25 316/107/25 313/105/25
f 330/122/26 303/95/25 283/72/25
f 320/113/25 323/114/25 321/112/25
f 323/114/25 331/123/25 332/124/25
f 324/117/25 332/124/25 331/123/25
f 306/96/25 325/118/25 317/109/25
f 327/119/25 329/121/25 328/120/25
f 292/84/25 308/100/25 299/92/25
f 313/105/25 303/95/25 333/125/25
f 303/95/25 330/122/26 334/126/25
f 305/98/25 304/97/25 327/119/25
f 311/104/25 321/112/25 319/111/25
f 301/93/25 318/110/25 302/94/25
f 303/95/25 334/126/25 333/125/25
f 331/123/25 323/114/25 322/115/25
f 325/118/25 306/96/25 326/116/25
f 274/64/25 282/73/25 329/121/25
f 324/117/25 326/116/25 332/124/25
f 273/74/25 271/63/25 272/85/25
f 209/83/27 207/86/27 208/99/27
f 212/91/27 210/75/27 211/90/27
f 207/86/27 209/83/27 213/101/27
f 210/75/27 212/91/27 214/92/27
f 207/86/27 215/102/27 216/72/27
f 210/75/27 214/92/27 217/100/27
f 220/80/27 218/81/27 219/87/27
f 223/66/27 221/67/27 222/79/27
f 207/86/27 213/101/27 215/102/27
f 212/91/27 211/90/27 224/89/27
f 224/89/27 225/82/27 220/80/27
f 218/81/27 220/80/27 225/82/27
f 221/67/27 223/66/27 226/68/27
f 229/76/27 227/78/27 228/77/27
f 232/112/27 230/104/27 231/111/27
f 235/95/27 233/93/27 234/94/27
f 237/69/27 233/93/27 236/71/27
f 210/75/27 217/100/27 209/83/27
f 219/87/27 218/81/27 240/88/27
f 223/66/27 240/88/27 226/68/27
f 227/78/27 229/76/27 222/79/27
f 242/114/27 241/113/27 232/112/27
f 231/111/27 230/104/27 243/108/27
f 233/93/27 237/69/27 234/94/27
f 238/70/27 237/69/27 236/71/27
f 244/63/27 216/72/27 215/102/27
f 245/74/27 211/90/27 210/75/27
f 225/82/27 224/89/27 211/90/27
f 222/79/27 221/67/27 227/78/27
f 230/104/27 232/112/27 241/113/27
f 246/107/27 230/104/27 233/93/27
f 239/85/27 238/70/27 247/84/27
f 229/76/27 248/64/27 249/65/27
f 216/72/27 244/63/27 248/64/27
f 211/90/27 245/74/27 247/84/27
f 240/88/27 223/66/27 219/87/27
f 230/104/27 246/107/27 243/108/27
f 233/93/27 235/95/27 250/106/27
f 248/64/27 244/63/27 249/65/27
f 209/83/27 208/99/27 210/75/27
f 235/95/27 251/125/27 252/73/27
f 253/110/27 235/95/27 234/94/27
f 256/116/27 254/117/27 255/124/27
f 233/93/27 250/106/27 246/107/27
f 247/84/27 245/74/27 239/85/27
f 258/122/27 248/64/27 257/121/27
f 259/126/27 257/121/27 251/125/27
f 252/73/27 251/125/27 257/121/27
f 235/95/27 253/110/27 260/103/27
f 262/96/27 261/118/27 256/116/27
f 254/117/27 256/116/27 261/118/27
f 242/114/27 263/123/27 264/115/27
f 248/64/27 229/76/27 228/77/27
f 257/121/27 259/126/27 258/122/27
f 235/95/27 260/103/27 265/105/27
f 262/96/27 266/97/27 267/109/27
f 255/124/27 254/117/27 263/123/27
f 241/113/27 242/114/27 264/115/27
f 251/125/27 235/95/27 265/105/27
f 257/121/27 268/119/27 269/120/27
f 268/119/27 270/98/27 269/120/27
f 261/118/27 262/96/27 267/109/27
f 248/64/27 258/122/27 216/72/27
f 266/97/27 262/96/27 270/98/27
f 268/119/27 257/121/27 248/64/27
f 263/123/27 242/114/27 255/124/27
f 266/97/27 270/98/27 268/119/27
f 237/69/27 238/70/27 239/85/27
f 189/127/1 191/128/2 192/129/2
f 192/129/2 193/130/3 194/131/3
f 194/131/3 195/132/4 196/133/4
f 196/133/4 197/134/5 198/135/6
f 198/135/6 199/136/7 200/137/7
f 200/137/7 201/138/8 202/139/8
f 202/139/8 203/140/9 204/141/9
f 204/141/9 205/142/10 206/143/10
f 205/142/10 204/141/9 203/140/9
f 203/140/9 202/139/8 201/138/8
f 201/138/8 200/137/7 199/136/7
f 199/136/7 198/135/6 197/134/5
f 197/134/5 196/133/4 195/132/4
f 195/132/4 194/131/3 193/130/3
f 193/130/3 192/129/2 191/128/2
f 191/128/2 189/127/1 190/144/1
f 184/145/28 185/146/29 186/147/29
f 186/147/29 187/144/1 188/1/1
f 187/144/1 186/147/29 185/146/29
f 185/146/29 184/145/28 183/148/28
f 183/148/28 181/61/13 182/149/13
f 181/61/13 183/148/28 184/145/28
f 177/150/13 179/151/13 180/152/13
f 179/151/13 177/150/13 178/33/13
f 163/153/30 162/154/31 161/155/31
f 165/156/32 164/157/30 163/153/30
f 167/158/33 166/159/32 165/156/32
f 169/160/34 168/161/33 167/158/33
f 171/162/35 170/163/34 169/160/34
f 173/164/36 172/165/35 171/162/35
f 175/149/13 174/166/36 173/164/36
f 174/166/36 175/149/13 176/61/37
f 172/165/35 173/164/36 174/166/36
f 159/167/38 161/155/31 162/154/31
f 162/154/31 163/153/30 164/157/30
f 164/157/30 165/156/32 166/159/32
f 166/159/32 167/158/33 168/161/33
f 168/161/33 169/160/34 170/163/34
f 170/163/34 171/162/35 172/165/35
f 161/155/31 159/167/38 160/168/38
f 139/169/14 138/42/15 136/40/14
f 146/149/24 144/60/19 145/61/24
f 135/170/12 134/35/11 131/38/12
f 133/33/13 131/38/12 132/59/13
f 145/61/24 147/171/17 146/149/24
f 137/172/11 136/40/14 134/35/11
f 141/173/15 140/44/16 138/42/15
f 131/38/12 133/33/13 135/170/12
f 134/35/11 135/170/12 137/172/11
f 147/171/17 145/61/24 142/46/17
f 136/40/14 137/172/11 139/169/14
f 138/42/15 139/169/14 141/173/15
f 140/44/16 141/173/15 143/174/16
f 142/46/17 143/174/16 147/171/17
f 144/60/19 146/149/24 149/175/19
f 148/48/18 149/175/19 151/176/18
f 150/51/20 151/176/18 153/177/20
f 152/53/21 153/177/20 155/178/21
f 154/55/22 155/178/21 157/179/22
f 156/57/23 157/179/22 158/180/23
f 132/59/13 158/180/23 133/33/13
f 158/180/23 132/59/13 156/57/23
f 157/179/22 156/57/23 154/55/22
f 155/178/21 154/55/22 152/53/21
f 153/177/20 152/53/21 150/51/20
f 151/176/18 150/51/20 148/48/18
f 149/175/19 148/48/18 144/60/19
f 143/174/16 142/46/17 140/44/16
f 115/174/16 114/181/17 112/182/16
f 113/173/15 112/182/16 110/183/15
f 111/169/14 110/183/15 108/184/14
f 109/172/11 108/184/14 106/185/11
f 107/170/12 106/185/11 103/186/12
f 105/33/13 103/186/12 104/187/13
f 117/188/24 119/171/17 118/149/24
f 119/171/17 117/188/24 114/181/17
f 121/175/19 120/189/18 116/190/19
f 123/176/18 122/191/20 120/189/18
f 125/177/20 124/192/21 122/191/20
f 127/178/21 126/193/22 124/192/21
f 129/179/22 128/194/23 126/193/22
f 130/180/23 104/187/13 128/194/23
f 104/187/13 130/180/23 105/33/13
f 128/194/23 129/179/22 130/180/23
f 126/193/22 127/178/21 129/179/22
f 124/192/21 125/177/20 127/178/21
f 122/191/20 123/176/18 125/177/20
f 120/189/18 121/175/19 123/176/18
f 116/190/19 118/149/24 121/175/19
f 114/181/17 115/174/16 119/171/17
f 112/182/16 113/173/15 115/174/16
f 110/183/15 111/169/14 113/173/15
f 108/184/14 109/172/11 111/169/14
f 106/185/11 107/170/12 109/172/11
f 103/186/12 105/33/13 107/170/12
f 118/149/24 116/190/19 117/188/24
f 102/180/23 76/59/13 100/57/23
f 101/179/22 100/57/23 98/55/22
f 91/171/17 89/61/24 86/46/17
f 99/178/21 98/55/22 96/53/21
f 97/177/20 96/53/21 94/51/20
f 95/176/18 94/51/20 92/48/18
f 93/175/19 92/48/18 88/60/19
f 87/174/16 86/46/17 84/44/16
f 76/59/13 102/180/23 77/33/13
f 100/57/23 101/179/22 102/180/23
f 98/55/22 99/178/21 101/179/22
f 96/53/21 97/177/20 99/178/21
f 94/51/20 95/176/18 97/177/20
f 92/48/18 93/175/19 95/176/18
f 88/60/19 90/149/24 93/175/19
f 86/46/17 87/174/16 91/171/17
f 84/44/16 85/173/15 87/174/16
f 82/42/15 83/169/14 85/173/15
f 80/40/14 81/172/11 83/169/14
f 78/35/11 79/170/12 81/172/11
f 75/38/12 77/33/13 79/170/12
f 85/173/15 84/44/16 82/42/15
f 83/169/14 82/42/15 80/40/14
f 89/61/24 91/171/17 90/149/24
f 81/172/11 80/40/14 78/35/11
f 79/170/12 78/35/11 75/38/12
f 77/33/13 75/38/12 76/59/13
f 90/149/24 88/60/19 89/61/24
f 66/195/6 67/196/39 69/197/5
f 65/198/40 64/199/39 61/200/40
f 67/196/39 66/195/6 64/199/39
f 69/197/5 68/201/41 66/195/6
f 71/202/41 70/203/42 68/201/41
f 73/204/42 72/205/43 70/203/42
f 72/205/43 73/204/42 74/206/43
f 70/203/42 71/202/41 73/204/42
f 61/200/40 63/207/44 65/198/40
f 64/199/39 65/198/40 67/196/39
f 63/207/44 61/200/40 62/208/44
f 68/201/41 69/197/5 71/202/41
f 42/76/25 43/78/25 44/79/25
f 42/76/25 31/64/25 41/77/25
f 39/83/25 37/209/25 38/101/25
f 36/66/25 34/67/25 35/68/25
f 33/63/25 31/64/25 32/65/25
f 37/209/25 39/83/25 48/210/25
f 47/80/25 45/81/25 46/82/25
f 34/67/25 44/79/25 43/78/25
f 55/211/25 60/100/25 59/92/25
f 40/212/25 33/63/25 50/102/25
f 45/81/25 47/80/25 51/87/25
f 38/101/25 37/209/25 58/213/25
f 53/90/25 56/91/25 54/89/25
f 52/88/25 36/66/25 35/68/25
f 49/214/25 50/102/25 38/101/25
f 55/211/25 39/83/25 60/100/25
f 56/91/25 55/211/25 59/92/25
f 46/82/25 54/89/25 47/80/25
f 36/66/25 52/88/25 51/87/25
f 43/78/25 42/76/25 41/77/25
f 49/214/25 38/101/25 58/213/25
f 48/210/25 39/83/25 57/215/25
f 39/83/25 55/211/25 57/215/25
f 56/91/25 53/90/25 55/211/25
f 54/89/25 46/82/25 53/90/25
f 45/81/25 51/87/25 52/88/25
f 34/67/25 36/66/25 44/79/25
f 31/64/25 42/76/25 32/65/25
f 50/102/25 49/214/25 40/212/25
f 31/64/25 33/63/25 40/212/25
f 26/76/27 27/64/27 30/65/27
f 28/63/27 11/212/27 6/102/27
f 22/82/27 14/89/27 13/90/27
f 19/79/27 18/67/27 24/78/27
f 27/64/27 28/63/27 30/65/27
f 29/88/27 20/66/27 16/87/27
f 5/101/27 4/214/27 12/213/27
f 27/64/27 26/76/27 25/77/27
f 6/102/27 4/214/27 5/101/27
f 1/209/27 3/83/27 5/101/27
f 3/83/27 7/211/27 8/100/27
f 10/92/27 7/211/27 9/91/27
f 4/214/27 6/102/27 11/212/27
f 1/209/27 5/101/27 12/213/27
f 7/211/27 10/92/27 8/100/27
f 9/91/27 13/90/27 14/89/27
f 17/80/27 15/81/27 16/87/27
f 20/66/27 18/67/27 19/79/27
f 3/83/27 2/210/27 21/215/27
f 13/90/27 9/91/27 7/211/27
f 14/89/27 22/82/27 17/80/27
f 15/81/27 17/80/27 22/82/27
f 18/67/27 20/66/27 23/68/27
f 26/76/27 24/78/27 25/77/27
f 28/63/27 27/64/27 11/212/27
f 7/211/27 3/83/27 21/215/27
f 16/87/27 15/81/27 29/88/27
f 20/66/27 29/88/27 23/68/27
f 24/78/27 26/76/27 19/79/27
f 3/83/27 1/209/27 2/210/27
