# Blender 4.5.4 LTS
# www.blender.org
mtllib RP.mtl
o RP
v 0.005260 -0.008508 -0.010004
v 0.006689 -0.007437 -0.010004
v 0.001125 -0.000996 -0.010004
v 0.001949 -0.009810 -0.010004
v 0.000534 -0.001404 -0.010004
v -0.000178 -0.001491 -0.010004
v 0.008869 -0.004626 -0.010004
v 0.001459 -0.000361 -0.010004
v 0.001459 0.000357 -0.010004
v 0.001502 -0.000002 -0.010004
v 0.000173 -0.010000 -0.010004
v 0.003663 -0.009308 -0.010004
v 0.002124 0.002120 -0.010004
v 0.001125 0.000993 -0.010004
v 0.000349 0.002978 -0.010004
v -0.000178 0.001487 -0.010004
v 0.000534 0.001401 -0.010004
v -0.002326 0.001890 -0.010004
v -0.001326 0.000695 -0.010004
v -0.000850 0.001233 -0.010004
v 0.007905 -0.006129 -0.010004
v 0.001309 0.002699 -0.010004
v -0.001575 0.002550 -0.010004
v -0.002818 0.001021 -0.010004
v -0.002997 0.000037 -0.010004
v -0.001498 -0.000002 -0.010004
v -0.002844 -0.000950 -0.010004
v -0.000850 -0.001236 -0.010004
v -0.000649 0.002927 -0.010004
v -0.001326 -0.000699 -0.010004
v -0.002844 -0.000950 0.009996
v -0.001326 -0.000699 0.009996
v -0.000850 -0.001236 0.009996
v -0.002326 0.001890 0.009996
v -0.001575 0.002550 0.009996
v -0.000850 0.001233 0.009996
v 0.005260 -0.008508 0.009996
v 0.000534 -0.001404 0.009996
v 0.001125 -0.000996 0.009996
v 0.000173 -0.010000 0.009996
v -0.002997 0.000037 0.009996
v -0.001498 -0.000002 0.009996
v -0.002818 0.001021 0.009996
v -0.001326 0.000695 0.009996
v 0.000349 0.002978 0.009996
v 0.001309 0.002699 0.009996
v 0.000534 0.001401 0.009996
v 0.006689 -0.007437 0.009996
v 0.001949 -0.009810 0.009996
v -0.000178 -0.001491 0.009996
v -0.000178 0.001487 0.009996
v -0.000649 0.002927 0.009996
v 0.002124 0.002120 0.009996
v 0.001125 0.000993 0.009996
v 0.008869 -0.004626 0.009996
v 0.001459 0.000357 0.009996
v 0.007905 -0.006129 0.009996
v 0.003663 -0.009308 0.009996
v 0.001502 -0.000002 0.009996
v 0.001459 -0.000361 0.009996
v 0.001949 -0.009810 -0.010004
v 0.000173 -0.010000 -0.010004
v 0.000173 -0.010000 0.009996
v 0.003663 -0.009308 -0.010004
v 0.001949 -0.009810 0.009996
v 0.005260 -0.008508 -0.010004
v 0.003663 -0.009308 0.009996
v 0.006689 -0.007437 -0.010004
v 0.005260 -0.008508 0.009996
v 0.007905 -0.006129 -0.010004
v 0.006689 -0.007437 0.009996
v 0.008869 -0.004626 -0.010004
v 0.007905 -0.006129 0.009996
v 0.008869 -0.004626 0.009996
v 0.018674 -0.059305 0.014996
v 0.018502 -0.060002 0.014996
v 0.018502 -0.060002 -0.015004
v 0.019150 -0.058767 0.014996
v 0.018674 -0.059305 -0.015004
v 0.019822 -0.058513 0.014996
v 0.019150 -0.058767 -0.015004
v 0.020534 -0.058599 0.014996
v 0.019822 -0.058513 -0.015004
v 0.021125 -0.059007 0.014996
v 0.020534 -0.058599 -0.015004
v 0.021459 -0.059643 0.014996
v 0.021125 -0.059007 -0.015004
v 0.021459 -0.060361 0.014996
v 0.021502 -0.060002 0.014996
v 0.021502 -0.060002 -0.015004
v 0.021459 -0.059643 -0.015004
v 0.021125 -0.060996 0.014996
v 0.021459 -0.060361 -0.015004
v 0.020534 -0.061404 0.014996
v 0.021125 -0.060996 -0.015004
v 0.019822 -0.061491 0.014996
v 0.020534 -0.061404 -0.015004
v 0.019150 -0.061236 0.014996
v 0.019822 -0.061491 -0.015004
v 0.018674 -0.060699 0.014996
v 0.019150 -0.061236 -0.015004
v 0.018674 -0.060699 -0.015004
v -0.001326 0.000695 -0.010004
v -0.001498 -0.000002 -0.010004
v -0.001498 -0.000002 -0.015004
v -0.000850 0.001233 -0.010004
v -0.001326 0.000695 -0.015004
v -0.000178 0.001487 -0.010004
v -0.000850 0.001233 -0.015004
v 0.000534 0.001401 -0.010004
v -0.000178 0.001487 -0.015004
v 0.001125 0.000993 -0.010004
v 0.000534 0.001401 -0.015004
v 0.001459 0.000357 -0.010004
v 0.001125 0.000993 -0.015004
v 0.001459 -0.000361 -0.010004
v 0.001502 -0.000002 -0.010004
v 0.001502 -0.000002 -0.015004
v 0.001459 0.000357 -0.015004
v 0.001125 -0.000996 -0.010004
v 0.001459 -0.000361 -0.015004
v 0.000534 -0.001404 -0.010004
v 0.001125 -0.000996 -0.015004
v -0.000178 -0.001491 -0.010004
v 0.000534 -0.001404 -0.015004
v -0.000850 -0.001236 -0.010004
v -0.000178 -0.001491 -0.015004
v -0.001326 -0.000699 -0.010004
v -0.000850 -0.001236 -0.015004
v -0.001326 -0.000699 -0.015004
v 0.018674 -0.019305 0.014996
v 0.018502 -0.020002 0.014996
v 0.018502 -0.020002 -0.015004
v 0.019150 -0.018767 0.014996
v 0.018674 -0.019305 -0.015004
v 0.019822 -0.018513 0.014996
v 0.019150 -0.018767 -0.015004
v 0.020534 -0.018599 0.014996
v 0.019822 -0.018513 -0.015004
v 0.021125 -0.019007 0.014996
v 0.020534 -0.018599 -0.015004
v 0.021459 -0.019643 0.014996
v 0.021125 -0.019007 -0.015004
v 0.021459 -0.020361 0.014996
v 0.021502 -0.020002 0.014996
v 0.021502 -0.020002 -0.015004
v 0.021459 -0.019643 -0.015004
v 0.021125 -0.020996 0.014996
v 0.021459 -0.020361 -0.015004
v 0.020534 -0.021404 0.014996
v 0.021125 -0.020996 -0.015004
v 0.019822 -0.021491 0.014996
v 0.020534 -0.021404 -0.015004
v 0.019150 -0.021236 0.014996
v 0.019822 -0.021491 -0.015004
v 0.018674 -0.020699 0.014996
v 0.019150 -0.021236 -0.015004
v 0.018674 -0.020699 -0.015004
v 0.017156 -0.060950 0.014996
v 0.017156 -0.060950 -0.015004
v 0.017659 -0.061875 -0.015004
v 0.017659 -0.061875 0.014996
v 0.018450 -0.062569 -0.015004
v 0.018450 -0.062569 0.014996
v 0.019431 -0.062947 -0.015004
v 0.019431 -0.062947 0.014996
v 0.020483 -0.062963 -0.015004
v 0.020483 -0.062963 0.014996
v 0.021476 -0.062615 -0.015004
v 0.021476 -0.062615 0.014996
v 0.022287 -0.061946 -0.015004
v 0.022287 -0.061946 0.014996
v 0.022818 -0.061037 -0.015004
v 0.022818 -0.061037 0.014996
v 0.023002 -0.060002 -0.015004
v 0.023002 -0.060002 0.014996
v 0.023002 -0.060002 0.014996
v 0.023002 -0.060002 -0.015004
v 0.023002 -0.020002 -0.015004
v 0.023002 -0.020002 0.014996
v 0.023002 -0.020002 0.014996
v 0.023002 -0.020002 -0.015004
v 0.022900 -0.019225 -0.015004
v 0.022900 -0.019225 0.014996
v 0.022601 -0.018502 -0.015004
v 0.022601 -0.018502 0.014996
v 0.022124 -0.017880 -0.015004
v 0.022124 -0.017880 0.014996
v 0.002124 0.002120 -0.010004
v 0.002124 0.002120 -0.015004
v 0.001309 0.002699 -0.015004
v 0.001309 0.002699 -0.010004
v 0.000349 0.002978 -0.015004
v 0.000349 0.002978 -0.010004
v -0.000649 0.002927 -0.015004
v -0.000649 0.002927 -0.010004
v -0.001575 0.002550 -0.015004
v -0.001575 0.002550 -0.010004
v -0.002326 0.001890 -0.015004
v -0.002326 0.001890 -0.010004
v -0.002818 0.001021 -0.015004
v -0.002818 0.001021 -0.010004
v -0.002997 0.000037 -0.015004
v -0.002997 0.000037 -0.010004
v -0.002844 -0.000950 -0.015004
v -0.002844 -0.000950 -0.010004
v 0.018674 -0.019305 0.014996
v 0.019150 -0.018767 0.014996
v 0.001125 -0.000996 0.014996
v 0.019822 -0.018513 0.014996
v 0.002124 0.002120 0.014996
v 0.001459 0.000357 0.014996
v 0.000534 -0.001404 0.014996
v 0.001502 -0.000002 0.014996
v -0.000178 -0.001491 0.014996
v 0.018502 -0.020002 0.014996
v 0.001459 -0.000361 0.014996
v 0.000349 0.002978 0.014996
v -0.000178 0.001487 0.014996
v 0.000534 0.001401 0.014996
v -0.002326 0.001890 0.014996
v -0.001326 0.000695 0.014996
v -0.000850 0.001233 0.014996
v 0.001125 0.000993 0.014996
v 0.001309 0.002699 0.014996
v -0.001575 0.002550 0.014996
v -0.002818 0.001021 0.014996
v -0.002997 0.000037 0.014996
v -0.001498 -0.000002 0.014996
v 0.023002 -0.060002 0.014996
v 0.021502 -0.060002 0.014996
v 0.021459 -0.060361 0.014996
v 0.023002 -0.020002 0.014996
v 0.021502 -0.020002 0.014996
v 0.019822 -0.058513 0.014996
v 0.022900 -0.019225 0.014996
v 0.021459 -0.019643 0.014996
v 0.022601 -0.018502 0.014996
v 0.021125 -0.019007 0.014996
v -0.000649 0.002927 0.014996
v 0.022818 -0.061037 0.014996
v 0.021125 -0.060996 0.014996
v 0.021459 -0.059643 0.014996
v -0.000850 -0.001236 0.014996
v 0.020534 -0.018599 0.014996
v 0.021125 -0.059007 0.014996
v 0.022124 -0.017880 0.014996
v -0.002844 -0.000950 0.014996
v -0.001326 -0.000699 0.014996
v 0.020534 -0.058599 0.014996
v 0.019822 -0.021491 0.014996
v 0.019150 -0.058767 0.014996
v 0.021459 -0.020361 0.014996
v 0.020483 -0.062963 0.014996
v 0.020534 -0.061404 0.014996
v 0.019822 -0.061491 0.014996
v 0.018674 -0.059305 0.014996
v 0.018674 -0.020699 0.014996
v 0.019150 -0.021236 0.014996
v 0.021125 -0.020996 0.014996
v 0.019431 -0.062947 0.014996
v 0.019150 -0.061236 0.014996
v 0.021476 -0.062615 0.014996
v 0.022287 -0.061946 0.014996
v 0.020534 -0.021404 0.014996
v 0.017659 -0.061875 0.014996
v 0.018450 -0.062569 0.014996
v 0.017156 -0.060950 0.014996
v 0.018502 -0.060002 0.014996
v 0.018674 -0.060699 0.014996
v -0.000850 -0.001236 -0.015004
v 0.021125 -0.019007 -0.015004
v 0.020534 -0.018599 -0.015004
v -0.002844 -0.000950 -0.015004
v -0.001326 -0.000699 -0.015004
v -0.002326 0.001890 -0.015004
v -0.001575 0.002550 -0.015004
v -0.000850 0.001233 -0.015004
v 0.022601 -0.018502 -0.015004
v 0.022900 -0.019225 -0.015004
v 0.021459 -0.019643 -0.015004
v 0.019150 -0.058767 -0.015004
v 0.018502 -0.020002 -0.015004
v 0.019822 -0.018513 -0.015004
v -0.002997 0.000037 -0.015004
v -0.001498 -0.000002 -0.015004
v -0.002818 0.001021 -0.015004
v -0.001326 0.000695 -0.015004
v 0.000349 0.002978 -0.015004
v 0.001309 0.002699 -0.015004
v 0.000534 0.001401 -0.015004
v 0.022124 -0.017880 -0.015004
v 0.001125 -0.000996 -0.015004
v 0.018674 -0.019305 -0.015004
v -0.000178 0.001487 -0.015004
v -0.000649 0.002927 -0.015004
v 0.002124 0.002120 -0.015004
v 0.001125 0.000993 -0.015004
v 0.001502 -0.000002 -0.015004
v 0.001459 0.000357 -0.015004
v 0.023002 -0.020002 -0.015004
v 0.021502 -0.020002 -0.015004
v 0.019822 -0.058513 -0.015004
v 0.017659 -0.061875 -0.015004
v 0.018674 -0.060699 -0.015004
v 0.019150 -0.061236 -0.015004
v 0.019150 -0.018767 -0.015004
v 0.001459 -0.000361 -0.015004
v -0.000178 -0.001491 -0.015004
v 0.000534 -0.001404 -0.015004
v 0.023002 -0.060002 -0.015004
v 0.021125 -0.020996 -0.015004
v 0.020534 -0.021404 -0.015004
v 0.020534 -0.058599 -0.015004
v 0.021459 -0.059643 -0.015004
v 0.021125 -0.059007 -0.015004
v 0.018450 -0.062569 -0.015004
v 0.021459 -0.020361 -0.015004
v 0.021502 -0.060002 -0.015004
v 0.022818 -0.061037 -0.015004
v 0.021459 -0.060361 -0.015004
v 0.022287 -0.061946 -0.015004
v 0.021125 -0.060996 -0.015004
v 0.020483 -0.062963 -0.015004
v 0.019431 -0.062947 -0.015004
v 0.019822 -0.061491 -0.015004
v 0.017156 -0.060950 -0.015004
v 0.018502 -0.060002 -0.015004
v 0.018674 -0.059305 -0.015004
v 0.018674 -0.020699 -0.015004
v 0.021476 -0.062615 -0.015004
v 0.020534 -0.061404 -0.015004
v 0.019822 -0.021491 -0.015004
v 0.019150 -0.021236 -0.015004
v -0.001326 0.000695 0.014996
v -0.001498 -0.000002 0.014996
v -0.001498 -0.000002 0.009996
v -0.000850 0.001233 0.014996
v -0.001326 0.000695 0.009996
v -0.000178 0.001487 0.014996
v -0.000850 0.001233 0.009996
v 0.000534 0.001401 0.014996
v -0.000178 0.001487 0.009996
v 0.001125 0.000993 0.014996
v 0.000534 0.001401 0.009996
v 0.001459 0.000357 0.014996
v 0.001125 0.000993 0.009996
v 0.001459 -0.000361 0.014996
v 0.001502 -0.000002 0.014996
v 0.001502 -0.000002 0.009996
v 0.001459 0.000357 0.009996
v 0.001125 -0.000996 0.014996
v 0.001459 -0.000361 0.009996
v 0.000534 -0.001404 0.014996
v 0.001125 -0.000996 0.009996
v -0.000178 -0.001491 0.014996
v 0.000534 -0.001404 0.009996
v -0.000850 -0.001236 0.014996
v -0.000178 -0.001491 0.009996
v -0.001326 -0.000699 0.014996
v -0.000850 -0.001236 0.009996
v -0.001326 -0.000699 0.009996
v -0.002844 -0.000950 -0.015004
v 0.017156 -0.060950 -0.015004
v 0.000173 -0.010000 -0.010004
v 0.017156 -0.060950 0.014996
v 0.000173 -0.010000 0.009996
v -0.002844 -0.000950 0.014996
v -0.002844 -0.000950 0.009996
v -0.002844 -0.000950 -0.010004
v 0.022124 -0.017880 0.014996
v 0.022124 -0.017880 -0.015004
v 0.008869 -0.004626 -0.010004
v 0.002124 0.002120 -0.015004
v 0.002124 0.002120 -0.010004
v 0.002124 0.002120 0.014996
v 0.008869 -0.004626 0.009996
v 0.002124 0.002120 0.009996
v 0.002124 0.002120 0.014996
v 0.002124 0.002120 0.009996
v 0.001309 0.002699 0.009996
v 0.001309 0.002699 0.014996
v 0.000349 0.002978 0.009996
v 0.000349 0.002978 0.014996
v -0.000649 0.002927 0.009996
v -0.000649 0.002927 0.014996
v -0.001575 0.002550 0.009996
v -0.001575 0.002550 0.014996
v -0.002326 0.001890 0.009996
v -0.002326 0.001890 0.014996
v -0.002818 0.001021 0.009996
v -0.002818 0.001021 0.014996
v -0.002997 0.000037 0.009996
v -0.002997 0.000037 0.014996
v -0.002844 -0.000950 0.009996
v -0.002844 -0.000950 0.014996
vn 0.7071 0.7071 -0.0000
vn 0.4356 0.9002 -0.0000
vn 0.1157 0.9933 -0.0000
vn -0.2171 0.9762 -0.0000
vn -0.5257 0.8506 -0.0000
vn -0.5257 0.8507 -0.0000
vn -0.7760 0.6307 -0.0000
vn -0.9401 0.3408 -0.0000
vn -0.9999 0.0130 -0.0000
vn -0.9487 -0.3162 -0.0000
vn 0.5681 -0.8230 -0.0000
vn 0.8855 -0.4647 -0.0000
vn 1.0000 -0.0000 -0.0000
vn 0.1205 -0.9927 -0.0000
vn -0.3546 -0.9350 -0.0000
vn -0.7485 -0.6631 -0.0000
vn -0.9710 -0.2393 -0.0000
vn -0.9709 -0.2394 -0.0000
vn -0.7485 0.6631 -0.0000
vn -0.9709 0.2393 -0.0000
vn -0.3546 0.9350 -0.0000
vn 0.1205 0.9927 -0.0000
vn 0.5681 0.8230 -0.0000
vn 0.8855 0.4647 -0.0000
vn -0.9709 0.2394 -0.0000
vn -1.0000 -0.0000 -0.0000
vn -0.0000 -0.0000 -1.0000
vn -0.0000 -0.0000 1.0000
vn 0.0031 -0.0000 1.0000
vn 0.9659 0.2588 -0.0000
vn 0.8660 0.5000 -0.0000
vn 1.0000 0.0001 -0.0000
vn -0.5176 -0.8556 -0.0000
vn -0.7812 -0.6243 -0.0000
vn -0.1904 -0.9817 -0.0000
vn 0.1602 -0.9871 -0.0000
vn 0.4911 -0.8711 -0.0000
vn 0.7616 -0.6480 -0.0000
vn 0.9385 -0.3452 -0.0000
vn 1.0000 -0.0001 -0.0000
vn -0.9487 -0.3163 -0.0000
vn -0.9709 -0.2393 -0.0000
vn -0.3660 0.9306 -0.0000
vn -0.1946 0.9809 -0.0000
vn -0.6687 0.7436 -0.0000
vn -0.7903 0.6128 -0.0000
vn -0.8867 0.4624 -0.0000
vn -0.0171 0.9999 -0.0000
vt 3.926991 0.030000
vt 4.261734 0.025000
vt 4.261734 0.030000
vt 4.596477 0.025000
vt 4.596477 0.030000
vt 4.931220 0.025000
vt 4.931220 0.030000
vt 5.265964 0.025000
vt 5.265964 0.030000
vt 5.600707 0.025000
vt 5.600707 0.030000
vt 5.935450 0.025000
vt 5.935450 0.030000
vt 6.270193 0.025000
vt 6.270193 0.030000
vt 6.604936 0.025000
vt 6.604936 0.030000
vt 3.926991 0.025000
vt 0.000000 -0.030000
vt 0.018745 -0.005000
vt 0.018745 -0.025000
vt 0.028284 0.000000
vt 0.000000 0.000000
vt 0.028284 -0.030000
vt 0.028284 -0.005000
vt 0.028284 -0.025000
vt 0.009539 -0.005000
vt 0.063246 -0.030000
vt 0.009539 -0.025000
vt 0.063246 0.000000
vt 0.000000 -0.030000
vt 0.000000 -0.025000
vt 0.000000 0.000000
vt 0.000000 -0.005000
vt 5.316541 0.030000
vt -0.483322 0.025000
vt 5.316541 0.025000
vt -0.483322 0.030000
vt 0.000000 0.025000
vt 4.833220 0.030000
vt 4.833220 0.025000
vt 4.349897 0.030000
vt 4.349897 0.025000
vt 3.866575 0.030000
vt 3.866575 0.025000
vt 3.383254 0.030000
vt 3.383254 0.025000
vt 2.416610 0.030000
vt 2.899932 0.025000
vt 2.416610 0.025000
vt 1.933288 0.030000
vt 1.933288 0.025000
vt 1.449966 0.030000
vt 1.449966 0.025000
vt 0.966644 0.030000
vt 0.966644 0.025000
vt 0.483322 0.030000
vt 0.483322 0.025000
vt 0.000000 0.030000
vt 2.899932 0.030000
vt 3.141593 0.030000
vt 3.141593 0.025000
vt -0.000852 0.001234
vt -0.002846 0.000949
vt -0.001328 0.000697
vt -0.000852 -0.001234
vt -0.002328 -0.001892
vt -0.001577 -0.002552
vt 0.021456 0.019641
vt 0.022598 0.018500
vt 0.022898 0.019224
vt 0.018500 0.020000
vt 0.019148 0.058766
vt 0.020532 0.018597
vt 0.019819 0.018511
vt -0.001500 0.000000
vt -0.003000 -0.000039
vt -0.002820 -0.001022
vt -0.001328 -0.000697
vt 0.000532 -0.001403
vt 0.000347 -0.002980
vt 0.001307 -0.002700
vt 0.001123 0.000995
vt 0.022121 0.017879
vt 0.021123 0.019005
vt 0.018672 0.019303
vt -0.000181 -0.001489
vt -0.000651 -0.002928
vt 0.001123 -0.000995
vt 0.002121 -0.002121
vt 0.001456 -0.000359
vt 0.001500 0.000000
vt 0.023000 0.020000
vt 0.021500 0.020000
vt 0.019819 0.058511
vt 0.019148 0.061234
vt 0.017656 0.061873
vt 0.018672 0.060697
vt 0.019148 0.018766
vt 0.001456 0.000359
vt 0.000532 0.001403
vt -0.000181 0.001489
vt 0.021123 0.020995
vt 0.023000 0.060000
vt 0.020532 0.021403
vt 0.020532 0.058597
vt 0.021123 0.059005
vt 0.021456 0.059641
vt 0.018447 0.062567
vt 0.021456 0.020359
vt 0.021500 0.060000
vt 0.021456 0.060359
vt 0.022816 0.061036
vt 0.021123 0.060995
vt 0.022285 0.061944
vt 0.019819 0.061489
vt 0.020481 0.062961
vt 0.019429 0.062945
vt 0.017154 0.060949
vt 0.018500 0.060000
vt 0.018672 0.059303
vt 0.018672 0.020697
vt 0.021473 0.062613
vt 0.020532 0.061403
vt 0.019819 0.021489
vt 0.019148 0.021234
vt 3.926991 0.005000
vt 4.261734 0.000000
vt 4.261734 0.005000
vt 4.596477 0.000000
vt 4.596477 0.005000
vt 4.931220 0.000000
vt 4.931220 0.005000
vt 5.265964 0.000000
vt 5.265964 0.005000
vt 5.600707 0.000000
vt 5.600707 0.005000
vt 5.935450 0.000000
vt 5.935450 0.005000
vt 6.270193 0.000000
vt 6.270193 0.005000
vt 6.604936 0.000000
vt 6.604936 0.005000
vt 3.926991 0.000000
vt 3.403392 0.030000
vt 3.665191 0.000000
vt 3.665191 0.030000
vt 3.403392 0.000000
vt 3.141593 0.000000
vt -0.030000 0.000000
vt 0.000000 -0.040000
vt -0.030000 -0.040000
vt 1.026711 -0.000000
vt 0.674231 0.030000
vt 0.674231 -0.000000
vt 1.379191 -0.000000
vt 1.026711 0.030000
vt 1.731672 -0.000000
vt 1.379191 0.030000
vt 2.084152 -0.000000
vt 1.731672 0.030000
vt 2.436632 -0.000000
vt 2.084152 0.030000
vt 2.789112 -0.000000
vt 2.436632 0.030000
vt 2.789112 0.030000
vt 0.321751 0.030000
vt 0.321751 -0.000000
vt 4.833220 -0.000000
vt -0.483322 -0.000000
vt 3.383254 -0.000000
vt 5.316541 -0.000000
vt 4.349897 -0.000000
vt 3.866575 -0.000000
vt 2.899932 -0.000000
vt 2.416610 -0.000000
vt 1.933288 -0.000000
vt 1.449966 -0.000000
vt 0.966644 -0.000000
vt 0.483322 -0.000000
vt 3.383254 0.005000
vt 3.866575 0.005000
vt 4.349897 0.005000
vt 4.833220 0.005000
vt 5.316541 0.005000
vt -0.483322 0.005000
vt 0.000000 0.005000
vt 3.141593 0.005000
vt 2.416610 0.005000
vt 2.899932 0.005000
vt 1.933288 0.005000
vt 1.449966 0.005000
vt 0.966644 0.005000
vt 0.483322 0.005000
vt 1.017222 0.020000
vt 1.196061 0.000000
vt 1.017222 0.000000
vt 1.374900 0.000000
vt 1.196061 0.020000
vt 1.374900 0.020000
vt 0.838383 0.020000
vt 0.838383 0.000000
vt 0.659544 0.020000
vt 0.659544 0.000000
vt 0.480705 0.020000
vt 0.480705 0.000000
vt 1.553738 0.000000
vt 1.553738 0.020000
vt 0.005257 0.008507
vt 0.006687 0.007436
vt 0.008867 0.004624
vt 0.000171 0.009999
vt 0.003660 0.009306
vt 0.001946 0.009809
vt 0.007903 0.006128
s 1
usemtl mat1.017
f 379/1/1 381/2/2 382/3/2
f 382/3/2 383/4/3 384/5/3
f 384/5/3 385/6/4 386/7/4
f 386/7/4 387/8/5 388/9/6
f 388/9/6 389/10/7 390/11/7
f 390/11/7 391/12/8 392/13/8
f 392/13/8 393/14/9 394/15/9
f 394/15/9 395/16/10 396/17/10
f 395/16/10 394/15/9 393/14/9
f 393/14/9 392/13/8 391/12/8
f 391/12/8 390/11/7 389/10/7
f 389/10/7 388/9/6 387/8/5
f 387/8/5 386/7/4 385/6/4
f 385/6/4 384/5/3 383/4/3
f 383/4/3 382/3/2 381/2/2
f 381/2/2 379/1/1 380/18/1
f 371/19/1 373/20/1 377/21/1
f 374/22/1 373/20/1 372/23/1
f 377/21/1 376/24/1 371/19/1
f 373/20/1 374/22/1 375/25/1
f 373/20/1 371/19/1 372/23/1
f 376/24/1 377/21/1 378/26/1
f 365/27/10 366/28/10 367/29/10
f 366/28/10 365/27/10 364/30/10
f 367/29/10 368/31/10 369/32/10
f 363/33/10 365/27/10 370/34/10
f 368/31/10 367/29/10 366/28/10
f 365/27/10 363/33/10 364/30/10
f 338/35/11 339/36/12 341/37/11
f 335/38/12 337/39/13 339/36/12
f 340/40/14 341/37/11 343/41/14
f 342/42/15 343/41/14 345/43/15
f 344/44/16 345/43/15 347/45/16
f 346/46/17 347/45/16 351/47/18
f 352/48/19 353/49/20 355/50/19
f 354/51/21 355/50/19 357/52/21
f 356/53/22 357/52/21 359/54/22
f 358/55/23 359/54/22 361/56/23
f 360/57/24 361/56/23 362/58/24
f 336/59/13 362/58/24 337/39/13
f 362/58/24 336/59/13 360/57/24
f 361/56/23 360/57/24 358/55/23
f 359/54/22 358/55/23 356/53/22
f 357/52/21 356/53/22 354/51/21
f 355/50/19 354/51/21 352/48/19
f 353/49/20 352/48/19 348/60/25
f 351/47/18 349/61/26 346/46/17
f 349/61/26 351/47/18 350/62/26
f 350/62/26 348/60/25 349/61/26
f 337/39/13 335/38/12 336/59/13
f 339/36/12 338/35/11 335/38/12
f 341/37/11 340/40/14 338/35/11
f 343/41/14 342/42/15 340/40/14
f 345/43/15 344/44/16 342/42/15
f 347/45/16 346/46/17 344/44/16
f 348/60/25 350/62/26 353/49/20
f 271/63/27 274/64/27 275/65/27
f 278/66/27 276/67/27 277/68/27
f 281/69/27 279/70/27 280/71/27
f 283/72/27 282/73/27 274/64/27
f 271/63/27 273/74/27 274/64/27
f 274/64/27 273/74/27 284/75/27
f 286/76/27 274/64/27 285/77/27
f 286/76/27 287/78/27 288/79/27
f 276/67/27 288/79/27 287/78/27
f 291/80/27 289/81/27 290/82/27
f 293/83/27 292/84/27 272/85/27
f 279/70/27 272/85/27 292/84/27
f 283/72/27 274/64/27 294/86/27
f 274/64/27 286/76/27 275/65/27
f 276/67/27 278/66/27 288/79/27
f 289/81/27 295/87/27 296/88/27
f 298/89/27 290/82/27 297/90/27
f 300/91/27 292/84/27 299/92/27
f 279/70/27 281/69/27 272/85/27
f 281/69/27 301/93/27 302/94/27
f 282/73/27 283/72/27 303/95/27
f 287/78/27 286/76/27 285/77/27
f 278/66/27 296/88/27 295/87/27
f 290/82/27 298/89/27 291/80/27
f 292/84/27 300/91/27 297/90/27
f 301/93/27 281/69/27 280/71/27
f 306/96/27 304/97/27 305/98/27
f 294/86/27 274/64/27 307/99/27
f 296/88/27 278/66/27 277/68/27
f 297/90/27 300/91/27 298/89/27
f 292/84/27 293/83/27 308/100/27
f 310/101/27 272/85/27 309/102/27
f 312/103/27 301/93/27 311/104/27
f 303/95/27 313/105/27 314/106/27
f 316/107/27 311/104/27 315/108/27
f 304/97/27 306/96/27 317/109/27
f 307/99/27 274/64/27 284/75/27
f 289/81/27 291/80/27 295/87/27
f 272/85/27 310/101/27 293/83/27
f 301/93/27 312/103/27 318/110/27
f 314/106/27 313/105/27 316/107/27
f 315/108/27 311/104/27 319/111/27
f 321/112/27 311/104/27 320/113/27
f 323/114/27 320/113/27 322/115/27
f 326/116/27 324/117/27 325/118/27
f 305/98/27 327/119/27 328/120/27
f 329/121/27 327/119/27 274/64/27
f 309/102/27 272/85/27 271/63/27
f 312/103/27 311/104/27 313/105/27
f 311/104/27 316/107/27 313/105/27
f 330/122/27 303/95/27 283/72/27
f 320/113/27 323/114/27 321/112/27
f 323/114/27 331/123/27 332/124/27
f 324/117/27 332/124/27 331/123/27
f 306/96/27 325/118/27 317/109/27
f 327/119/27 329/121/27 328/120/27
f 292/84/27 308/100/27 299/92/27
f 313/105/27 303/95/27 333/125/27
f 303/95/27 330/122/27 334/126/27
f 305/98/27 304/97/27 327/119/27
f 311/104/27 321/112/27 319/111/27
f 301/93/27 318/110/27 302/94/27
f 303/95/27 334/126/27 333/125/27
f 331/123/27 323/114/27 322/115/27
f 325/118/27 306/96/27 326/116/27
f 274/64/27 282/73/27 329/121/27
f 324/117/27 326/116/27 332/124/27
f 273/74/27 271/63/27 272/85/27
f 209/83/28 207/86/28 208/99/28
f 212/91/28 210/75/28 211/90/28
f 207/86/28 209/83/28 213/101/28
f 210/75/28 212/91/28 214/92/28
f 207/86/28 215/102/28 216/72/28
f 210/75/28 214/92/28 217/100/28
f 220/80/28 218/81/28 219/87/28
f 223/66/28 221/67/28 222/79/28
f 207/86/28 213/101/28 215/102/28
f 212/91/28 211/90/28 224/89/28
f 224/89/28 225/82/28 220/80/28
f 218/81/28 220/80/28 225/82/28
f 221/67/28 223/66/28 226/68/28
f 229/76/28 227/78/28 228/77/28
f 232/112/28 230/104/28 231/111/28
f 235/95/28 233/93/28 234/94/28
f 237/69/28 233/93/28 236/71/28
f 210/75/28 217/100/28 209/83/28
f 219/87/28 218/81/28 240/88/28
f 223/66/28 240/88/28 226/68/28
f 227/78/28 229/76/28 222/79/28
f 242/114/28 241/113/28 232/112/28
f 231/111/28 230/104/28 243/108/28
f 233/93/28 237/69/28 234/94/28
f 238/70/28 237/69/28 236/71/28
f 244/63/28 216/72/28 215/102/28
f 245/74/28 211/90/28 210/75/28
f 225/82/28 224/89/28 211/90/28
f 222/79/28 221/67/28 227/78/28
f 230/104/28 232/112/28 241/113/28
f 246/107/28 230/104/28 233/93/28
f 239/85/28 238/70/28 247/84/28
f 229/76/28 248/64/28 249/65/28
f 216/72/28 244/63/28 248/64/28
f 211/90/28 245/74/28 247/84/28
f 240/88/28 223/66/28 219/87/28
f 230/104/28 246/107/28 243/108/28
f 233/93/28 235/95/28 250/106/28
f 248/64/28 244/63/28 249/65/28
f 209/83/28 208/99/28 210/75/28
f 235/95/28 251/125/28 252/73/28
f 253/110/29 235/95/28 234/94/28
f 256/116/28 254/117/28 255/124/28
f 233/93/28 250/106/28 246/107/28
f 247/84/28 245/74/28 239/85/28
f 258/122/28 248/64/28 257/121/28
f 259/126/28 257/121/28 251/125/28
f 252/73/28 251/125/28 257/121/28
f 235/95/28 253/110/29 260/103/28
f 262/96/28 261/118/28 256/116/28
f 254/117/28 256/116/28 261/118/28
f 242/114/28 263/123/28 264/115/28
f 248/64/28 229/76/28 228/77/28
f 257/121/28 259/126/28 258/122/28
f 235/95/28 260/103/28 265/105/28
f 262/96/28 266/97/28 267/109/28
f 255/124/28 254/117/28 263/123/28
f 241/113/28 242/114/28 264/115/28
f 251/125/28 235/95/28 265/105/28
f 257/121/28 268/119/28 269/120/28
f 268/119/28 270/98/28 269/120/28
f 261/118/28 262/96/28 267/109/28
f 248/64/28 258/122/28 216/72/28
f 266/97/28 262/96/28 270/98/28
f 268/119/28 257/121/28 248/64/28
f 263/123/28 242/114/28 255/124/28
f 266/97/28 270/98/28 268/119/28
f 237/69/28 238/70/28 239/85/28
f 189/127/1 191/128/2 192/129/2
f 192/129/2 193/130/3 194/131/3
f 194/131/3 195/132/4 196/133/4
f 196/133/4 197/134/5 198/135/6
f 198/135/6 199/136/7 200/137/7
f 200/137/7 201/138/8 202/139/8
f 202/139/8 203/140/9 204/141/9
f 204/141/9 205/142/10 206/143/10
f 205/142/10 204/141/9 203/140/9
f 203/140/9 202/139/8 201/138/8
f 201/138/8 200/137/7 199/136/7
f 199/136/7 198/135/6 197/134/5
f 197/134/5 196/133/4 195/132/4
f 195/132/4 194/131/3 193/130/3
f 193/130/3 192/129/2 191/128/2
f 191/128/2 189/127/1 190/144/1
f 184/145/30 185/146/31 186/147/31
f 186/147/31 187/144/1 188/1/1
f 187/144/1 186/147/31 185/146/31
f 185/146/31 184/145/30 183/148/30
f 183/148/30 181/61/13 182/149/32
f 181/61/13 183/148/30 184/145/30
f 177/150/13 179/151/13 180/152/13
f 179/151/13 177/150/13 178/33/13
f 163/153/33 162/154/34 161/155/34
f 165/156/35 164/157/33 163/153/33
f 167/158/36 166/159/35 165/156/35
f 169/160/37 168/161/36 167/158/36
f 171/162/38 170/163/37 169/160/37
f 173/164/39 172/165/38 171/162/38
f 175/149/40 174/166/39 173/164/39
f 174/166/39 175/149/40 176/61/40
f 172/165/38 173/164/39 174/166/39
f 159/167/10 161/155/34 162/154/34
f 162/154/34 163/153/33 164/157/33
f 164/157/33 165/156/35 166/159/35
f 166/159/35 167/158/36 168/161/36
f 168/161/36 169/160/37 170/163/37
f 170/163/37 171/162/38 172/165/38
f 161/155/34 159/167/10 160/168/41
f 139/169/14 138/42/15 136/40/14
f 146/149/26 144/60/20 145/61/26
f 135/170/12 134/35/11 131/38/12
f 133/33/13 131/38/12 132/59/13
f 145/61/26 147/171/42 146/149/26
f 137/172/11 136/40/14 134/35/11
f 141/173/15 140/44/16 138/42/15
f 131/38/12 133/33/13 135/170/12
f 134/35/11 135/170/12 137/172/11
f 147/171/42 145/61/26 142/46/42
f 136/40/14 137/172/11 139/169/14
f 138/42/15 139/169/14 141/173/15
f 140/44/16 141/173/15 143/174/16
f 142/46/42 143/174/16 147/171/42
f 144/60/20 146/149/26 149/175/20
f 148/48/19 149/175/20 151/176/19
f 150/51/21 151/176/19 153/177/21
f 152/53/22 153/177/21 155/178/22
f 154/55/23 155/178/22 157/179/23
f 156/57/24 157/179/23 158/180/24
f 132/59/13 158/180/24 133/33/13
f 158/180/24 132/59/13 156/57/24
f 157/179/23 156/57/24 154/55/23
f 155/178/22 154/55/23 152/53/22
f 153/177/21 152/53/22 150/51/21
f 151/176/19 150/51/21 148/48/19
f 149/175/20 148/48/19 144/60/20
f 143/174/16 142/46/42 140/44/16
f 115/174/16 114/181/17 112/182/16
f 113/173/15 112/182/16 110/183/15
f 111/169/14 110/183/15 108/184/14
f 109/172/11 108/184/14 106/185/11
f 107/170/12 106/185/11 103/186/12
f 105/33/13 103/186/12 104/187/13
f 117/188/26 119/171/18 118/149/26
f 119/171/18 117/188/26 114/181/17
f 121/175/20 120/189/19 116/190/25
f 123/176/19 122/191/21 120/189/19
f 125/177/21 124/192/22 122/191/21
f 127/178/22 126/193/23 124/192/22
f 129/179/23 128/194/24 126/193/23
f 130/180/24 104/187/13 128/194/24
f 104/187/13 130/180/24 105/33/13
f 128/194/24 129/179/23 130/180/24
f 126/193/23 127/178/22 129/179/23
f 124/192/22 125/177/21 127/178/22
f 122/191/21 123/176/19 125/177/21
f 120/189/19 121/175/20 123/176/19
f 116/190/25 118/149/26 121/175/20
f 114/181/17 115/174/16 119/171/18
f 112/182/16 113/173/15 115/174/16
f 110/183/15 111/169/14 113/173/15
f 108/184/14 109/172/11 111/169/14
f 106/185/11 107/170/12 109/172/11
f 103/186/12 105/33/13 107/170/12
f 118/149/26 116/190/25 117/188/26
f 102/180/24 76/59/13 100/57/24
f 101/179/23 100/57/24 98/55/23
f 91/171/42 89/61/26 86/46/42
f 99/178/22 98/55/23 96/53/22
f 97/177/21 96/53/22 94/51/21
f 95/176/19 94/51/21 92/48/19
f 93/175/20 92/48/19 88/60/20
f 87/174/16 86/46/42 84/44/16
f 76/59/13 102/180/24 77/33/13
f 100/57/24 101/179/23 102/180/24
f 98/55/23 99/178/22 101/179/23
f 96/53/22 97/177/21 99/178/22
f 94/51/21 95/176/19 97/177/21
f 92/48/19 93/175/20 95/176/19
f 88/60/20 90/149/26 93/175/20
f 86/46/42 87/174/16 91/171/42
f 84/44/16 85/173/15 87/174/16
f 82/42/15 83/169/14 85/173/15
f 80/40/14 81/172/11 83/169/14
f 78/35/11 79/170/12 81/172/11
f 75/38/12 77/33/13 79/170/12
f 85/173/15 84/44/16 82/42/15
f 83/169/14 82/42/15 80/40/14
f 89/61/26 91/171/42 90/149/26
f 81/172/11 80/40/14 78/35/11
f 79/170/12 78/35/11 75/38/12
f 77/33/13 75/38/12 76/59/13
f 90/149/26 88/60/20 89/61/26
f 66/195/6 67/196/43 69/197/5
f 65/198/44 64/199/43 61/200/44
f 67/196/43 66/195/6 64/199/43
f 69/197/5 68/201/45 66/195/6
f 71/202/45 70/203/46 68/201/45
f 73/204/46 72/205/47 70/203/46
f 72/205/47 73/204/46 74/206/47
f 70/203/46 71/202/45 73/204/46
f 61/200/44 63/207/48 65/198/44
f 64/199/43 65/198/44 67/196/43
f 63/207/48 61/200/44 62/208/48
f 68/201/45 69/197/5 71/202/45
f 42/76/27 43/78/27 44/79/27
f 42/76/27 31/64/27 41/77/27
f 39/83/27 37/209/27 38/101/27
f 36/66/27 34/67/27 35/68/27
f 33/63/27 31/64/27 32/65/27
f 37/209/27 39/83/27 48/210/27
f 47/80/27 45/81/27 46/82/27
f 34/67/27 44/79/27 43/78/27
f 55/211/27 60/100/27 59/92/27
f 40/212/27 33/63/27 50/102/27
f 45/81/27 47/80/27 51/87/27
f 38/101/27 37/209/27 58/213/27
f 53/90/27 56/91/27 54/89/27
f 52/88/27 36/66/27 35/68/27
f 49/214/27 50/102/27 38/101/27
f 55/211/27 39/83/27 60/100/27
f 56/91/27 55/211/27 59/92/27
f 46/82/27 54/89/27 47/80/27
f 36/66/27 52/88/27 51/87/27
f 43/78/27 42/76/27 41/77/27
f 49/214/27 38/101/27 58/213/27
f 48/210/27 39/83/27 57/215/27
f 39/83/27 55/211/27 57/215/27
f 56/91/27 53/90/27 55/211/27
f 54/89/27 46/82/27 53/90/27
f 45/81/27 51/87/27 52/88/27
f 34/67/27 36/66/27 44/79/27
f 31/64/27 42/76/27 32/65/27
f 50/102/27 49/214/27 40/212/27
f 31/64/27 33/63/27 40/212/27
f 26/76/28 27/64/28 30/65/28
f 28/63/28 11/212/28 6/102/28
f 22/82/28 14/89/28 13/90/28
f 19/79/28 18/67/28 24/78/28
f 27/64/28 28/63/28 30/65/28
f 29/88/28 20/66/28 16/87/28
f 5/101/28 4/214/28 12/213/28
f 27/64/28 26/76/28 25/77/28
f 6/102/28 4/214/28 5/101/28
f 1/209/28 3/83/28 5/101/28
f 3/83/28 7/211/28 8/100/28
f 10/92/28 7/211/28 9/91/28
f 4/214/28 6/102/28 11/212/28
f 1/209/28 5/101/28 12/213/28
f 7/211/28 10/92/28 8/100/28
f 9/91/28 13/90/28 14/89/28
f 17/80/28 15/81/28 16/87/28
f 20/66/28 18/67/28 19/79/28
f 3/83/28 2/210/28 21/215/28
f 13/90/28 9/91/28 7/211/28
f 14/89/28 22/82/28 17/80/28
f 15/81/28 17/80/28 22/82/28
f 18/67/28 20/66/28 23/68/28
f 26/76/28 24/78/28 25/77/28
f 28/63/28 27/64/28 11/212/28
f 7/211/28 3/83/28 21/215/28
f 16/87/28 15/81/28 29/88/28
f 20/66/28 29/88/28 23/68/28
f 24/78/28 26/76/28 19/79/28
f 3/83/28 1/209/28 2/210/28
